<ttFont>
    <TTGlyph name="A" xMin="-7" yMin="0" xMax="586" yMax="700">
      <contour>
        <pt x="586" y="0" on="1"/>
        <pt x="442" y="0" on="1"/>
        <pt x="392" y="171" on="1"/>
        <pt x="181" y="171" on="1"/>
        <pt x="132" y="0" on="1"/>
        <pt x="-7" y="0" on="1"/>
        <pt x="203" y="700" on="1"/>
        <pt x="374" y="700" on="1"/>
      </contour>
      <contour>
        <pt x="365" y="286" on="1"/>
        <pt x="288" y="574" on="1"/>
        <pt x="210" y="286" on="1"/>
      </contour>
    </TTGlyph>
    <TTGlyph name="AE" xMin="-7" yMin="0" xMax="798" yMax="700">
      <contour>
        <pt x="797" y="0" on="1"/>
        <pt x="390" y="0" on="1"/>
        <pt x="390" y="171" on="1"/>
        <pt x="205" y="171" on="1"/>
        <pt x="132" y="0" on="1"/>
        <pt x="-7" y="0" on="1"/>
        <pt x="291" y="700" on="1"/>
        <pt x="797" y="700" on="1"/>
        <pt x="797" y="585" on="1"/>
        <pt x="525" y="585" on="1"/>
        <pt x="525" y="438" on="1"/>
        <pt x="772" y="438" on="1"/>
        <pt x="772" y="321" on="1"/>
        <pt x="525" y="321" on="1"/>
        <pt x="525" y="115" on="1"/>
        <pt x="797" y="115" on="1"/>
      </contour>
      <contour>
        <pt x="380" y="584" on="1"/>
        <pt x="250" y="286" on="1"/>
        <pt x="390" y="286" on="1"/>
        <pt x="390" y="584" on="1"/>
      </contour>
      <contour>
        <pt x="798" y="0" on="1"/>
        <pt x="381" y="0" on="1"/>
        <pt x="381" y="700" on="1"/>
        <pt x="798" y="700" on="1"/>
        <pt x="798" y="585" on="1"/>
        <pt x="526" y="585" on="1"/>
        <pt x="526" y="438" on="1"/>
        <pt x="773" y="438" on="1"/>
        <pt x="773" y="321" on="1"/>
        <pt x="526" y="321" on="1"/>
        <pt x="526" y="115" on="1"/>
        <pt x="798" y="115" on="1"/>
      </contour>
    </TTGlyph>
    <TTGlyph name="Aacute" xMin="-7" yMin="0" xMax="586" yMax="876">
      <contour>
        <pt x="586" y="0" on="1"/>
        <pt x="442" y="0" on="1"/>
        <pt x="392" y="171" on="1"/>
        <pt x="181" y="171" on="1"/>
        <pt x="132" y="0" on="1"/>
        <pt x="-7" y="0" on="1"/>
        <pt x="203" y="700" on="1"/>
        <pt x="374" y="700" on="1"/>
      </contour>
      <contour>
        <pt x="365" y="286" on="1"/>
        <pt x="288" y="574" on="1"/>
        <pt x="210" y="286" on="1"/>
      </contour>
      <contour>
        <pt x="229" y="752" on="1"/>
        <pt x="304" y="876" on="1"/>
        <pt x="438" y="876" on="1"/>
        <pt x="340" y="752" on="1"/>
      </contour>
    </TTGlyph>
    <TTGlyph name="Acircumflex" xMin="-7" yMin="0" xMax="586" yMax="890">
      <component glyphName="A" x="0" y="0" flags="0x1004"/>
      <component glyphName="circumflex" x="45" y="60" flags="0x1004"/>
    </TTGlyph>
    <TTGlyph name="Adieresis" xMin="-7" yMin="0" xMax="586" yMax="871">
      <component glyphName="A" x="0" y="0" flags="0x1004"/>
      <component glyphName="dieresis" x="42" y="46" flags="0x1004"/>
    </TTGlyph>
    <TTGlyph name="Agrave" xMin="-7" yMin="0" xMax="586" yMax="877">
      <contour>
        <pt x="586" y="0" on="1"/>
        <pt x="442" y="0" on="1"/>
        <pt x="392" y="171" on="1"/>
        <pt x="181" y="171" on="1"/>
        <pt x="132" y="0" on="1"/>
        <pt x="-7" y="0" on="1"/>
        <pt x="203" y="700" on="1"/>
        <pt x="374" y="700" on="1"/>
      </contour>
      <contour>
        <pt x="365" y="286" on="1"/>
        <pt x="288" y="574" on="1"/>
        <pt x="210" y="286" on="1"/>
      </contour>
      <contour>
        <pt x="338" y="753" on="1"/>
        <pt x="227" y="753" on="1"/>
        <pt x="129" y="877" on="1"/>
        <pt x="263" y="877" on="1"/>
      </contour>
    </TTGlyph>
    <TTGlyph name="Aring" xMin="-7" yMin="0" xMax="586" yMax="972">
      <contour>
        <pt x="586" y="0" on="1"/>
        <pt x="442" y="0" on="1"/>
        <pt x="392" y="171" on="1"/>
        <pt x="181" y="171" on="1"/>
        <pt x="132" y="0" on="1"/>
        <pt x="-7" y="0" on="1"/>
        <pt x="203" y="700" on="1"/>
        <pt x="374" y="700" on="1"/>
      </contour>
      <contour>
        <pt x="365" y="286" on="1"/>
        <pt x="288" y="574" on="1"/>
        <pt x="210" y="286" on="1"/>
      </contour>
      <contour>
        <pt x="229" y="972" on="0"/>
        <pt x="349" y="972" on="0"/>
        <pt x="412" y="911" on="0"/>
        <pt x="412" y="811" on="0"/>
        <pt x="352" y="752" on="0"/>
        <pt x="228" y="752" on="0"/>
        <pt x="168" y="811" on="0"/>
        <pt x="168" y="911" on="0"/>
      </contour>
      <contour>
        <pt x="290" y="903" on="1"/>
        <pt x="254" y="903" on="0"/>
        <pt x="254" y="823" on="0"/>
        <pt x="290" y="823" on="1"/>
        <pt x="328" y="823" on="0"/>
        <pt x="328" y="903" on="0"/>
      </contour>
    </TTGlyph>
    <TTGlyph name="Atilde" xMin="-7" yMin="0" xMax="586" yMax="888">
      <component glyphName="A" x="0" y="0" flags="0x1004"/>
      <component glyphName="tilde" x="13" y="67" flags="0x1004"/>
    </TTGlyph>
    <TTGlyph name="B" xMin="71" yMin="0" xMax="552" yMax="700">
      <contour>
        <pt x="71" y="0" on="1"/>
        <pt x="71" y="700" on="1"/>
        <pt x="291" y="700" on="1"/>
        <pt x="408" y="700" on="0"/>
        <pt x="524" y="607" on="0"/>
        <pt x="524" y="521" on="1"/>
        <pt x="524" y="463" on="0"/>
        <pt x="459" y="387" on="0"/>
        <pt x="403" y="379" on="1"/>
        <pt x="474" y="367" on="0"/>
        <pt x="552" y="277" on="0"/>
        <pt x="552" y="210" on="1"/>
        <pt x="552" y="115" on="0"/>
        <pt x="410" y="0" on="0"/>
        <pt x="284" y="0" on="1"/>
      </contour>
      <contour>
        <pt x="209" y="115" on="1"/>
        <pt x="308" y="115" on="1"/>
        <pt x="356" y="115" on="0"/>
        <pt x="414" y="166" on="0"/>
        <pt x="414" y="253" on="0"/>
        <pt x="349" y="318" on="0"/>
        <pt x="287" y="318" on="1"/>
        <pt x="209" y="318" on="1"/>
      </contour>
      <contour>
        <pt x="296" y="585" on="1"/>
        <pt x="209" y="585" on="1"/>
        <pt x="209" y="432" on="1"/>
        <pt x="286" y="432" on="1"/>
        <pt x="325" y="432" on="0"/>
        <pt x="386" y="480" on="0"/>
        <pt x="386" y="518" on="1"/>
        <pt x="386" y="580" on="0"/>
      </contour>
    </TTGlyph>
    <TTGlyph name="C" xMin="30" yMin="-6" xMax="544" yMax="709">
      <contour>
        <pt x="346" y="-6" on="1"/>
        <pt x="193" y="-6" on="0"/>
        <pt x="30" y="187" on="0"/>
        <pt x="30" y="517" on="0"/>
        <pt x="203" y="709" on="0"/>
        <pt x="357" y="709" on="1"/>
        <pt x="441" y="709" on="0"/>
        <pt x="524" y="680" on="1"/>
        <pt x="496" y="568" on="1"/>
        <pt x="435" y="594" on="0"/>
        <pt x="269" y="594" on="0"/>
        <pt x="175" y="468" on="0"/>
        <pt x="175" y="246" on="0"/>
        <pt x="263" y="109" on="0"/>
        <pt x="343" y="109" on="1"/>
        <pt x="403" y="109" on="0"/>
        <pt x="514" y="148" on="1"/>
        <pt x="544" y="46" on="1"/>
        <pt x="453" y="-6" on="0"/>
      </contour>
    </TTGlyph>
    <TTGlyph name="Ccedilla" xMin="30" yMin="-177" xMax="544" yMax="709">
      <contour>
        <pt x="163" y="16" on="0"/>
        <pt x="30" y="203" on="0"/>
        <pt x="30" y="517" on="0"/>
        <pt x="203" y="709" on="0"/>
        <pt x="357" y="709" on="1"/>
        <pt x="441" y="709" on="0"/>
        <pt x="524" y="680" on="1"/>
        <pt x="496" y="568" on="1"/>
        <pt x="435" y="594" on="0"/>
        <pt x="269" y="594" on="0"/>
        <pt x="175" y="468" on="0"/>
        <pt x="175" y="246" on="0"/>
        <pt x="263" y="109" on="0"/>
        <pt x="343" y="109" on="1"/>
        <pt x="403" y="109" on="0"/>
        <pt x="514" y="148" on="1"/>
        <pt x="544" y="46" on="1"/>
        <pt x="476" y="7" on="0"/>
        <pt x="399" y="-2" on="1"/>
        <pt x="398" y="-49" on="0"/>
        <pt x="375" y="-113" on="0"/>
        <pt x="336" y="-177" on="1"/>
        <pt x="247" y="-146" on="1"/>
        <pt x="273" y="-93" on="0"/>
        <pt x="288" y="-45" on="0"/>
        <pt x="288" y="-2" on="1"/>
      </contour>
    </TTGlyph>
    <TTGlyph name="Crculo0" xMin="15" yMin="-5" xMax="611" yMax="710">
      <contour>
        <pt x="247" y="159" on="1"/>
        <pt x="247" y="436" on="1"/>
        <pt x="378" y="436" on="1"/>
        <pt x="378" y="159" on="1"/>
      </contour>
      <contour>
        <pt x="611" y="198" on="0"/>
        <pt x="458" y="-5" on="0"/>
        <pt x="165" y="-5" on="0"/>
        <pt x="15" y="198" on="0"/>
        <pt x="15" y="512" on="0"/>
        <pt x="166" y="710" on="0"/>
        <pt x="459" y="710" on="0"/>
        <pt x="611" y="512" on="0"/>
      </contour>
      <contour>
        <pt x="314" y="605" on="1"/>
        <pt x="151" y="605" on="0"/>
        <pt x="151" y="101" on="0"/>
        <pt x="313" y="101" on="1"/>
        <pt x="398" y="101" on="0"/>
        <pt x="476" y="231" on="0"/>
        <pt x="476" y="476" on="0"/>
        <pt x="393" y="605" on="0"/>
      </contour>
      <contour>
        <pt x="380" y="565" on="1"/>
        <pt x="380" y="461" on="1"/>
        <pt x="245" y="461" on="1"/>
        <pt x="245" y="565" on="1"/>
      </contour>
    </TTGlyph>
    <TTGlyph name="D" xMin="71" yMin="0" xMax="617" yMax="700">
      <contour>
        <pt x="617" y="375" on="1"/>
        <pt x="617" y="206" on="0"/>
        <pt x="421" y="0" on="0"/>
        <pt x="257" y="0" on="1"/>
        <pt x="71" y="0" on="1"/>
        <pt x="71" y="700" on="1"/>
        <pt x="288" y="700" on="1"/>
        <pt x="437" y="700" on="0"/>
        <pt x="617" y="518" on="0"/>
      </contour>
      <contour>
        <pt x="466" y="383" on="1"/>
        <pt x="466" y="477" on="0"/>
        <pt x="364" y="585" on="0"/>
        <pt x="292" y="585" on="1"/>
        <pt x="212" y="585" on="1"/>
        <pt x="212" y="115" on="1"/>
        <pt x="266" y="115" on="1"/>
        <pt x="350" y="115" on="0"/>
        <pt x="466" y="258" on="0"/>
      </contour>
    </TTGlyph>
    <TTGlyph name="Delta" xMin="20" yMin="0" xMax="593" yMax="700">
      <contour>
        <pt x="593" y="0" on="1"/>
        <pt x="20" y="0" on="1"/>
        <pt x="230" y="700" on="1"/>
        <pt x="381" y="700" on="1"/>
      </contour>
      <contour>
        <pt x="426" y="107" on="1"/>
        <pt x="305" y="554" on="1"/>
        <pt x="175" y="107" on="1"/>
      </contour>
    </TTGlyph>
    <TTGlyph name="E" xMin="71" yMin="0" xMax="488" yMax="700">
      <contour>
        <pt x="488" y="0" on="1"/>
        <pt x="71" y="0" on="1"/>
        <pt x="71" y="700" on="1"/>
        <pt x="488" y="700" on="1"/>
        <pt x="488" y="585" on="1"/>
        <pt x="216" y="585" on="1"/>
        <pt x="216" y="438" on="1"/>
        <pt x="463" y="438" on="1"/>
        <pt x="463" y="321" on="1"/>
        <pt x="216" y="321" on="1"/>
        <pt x="216" y="115" on="1"/>
        <pt x="488" y="115" on="1"/>
      </contour>
    </TTGlyph>
    <TTGlyph name="Eacute" xMin="71" yMin="0" xMax="488" yMax="876">
      <contour>
        <pt x="488" y="0" on="1"/>
        <pt x="71" y="0" on="1"/>
        <pt x="71" y="700" on="1"/>
        <pt x="488" y="700" on="1"/>
        <pt x="488" y="585" on="1"/>
        <pt x="216" y="585" on="1"/>
        <pt x="216" y="438" on="1"/>
        <pt x="463" y="438" on="1"/>
        <pt x="463" y="321" on="1"/>
        <pt x="216" y="321" on="1"/>
        <pt x="216" y="115" on="1"/>
        <pt x="488" y="115" on="1"/>
      </contour>
      <contour>
        <pt x="190" y="752" on="1"/>
        <pt x="265" y="876" on="1"/>
        <pt x="399" y="876" on="1"/>
        <pt x="301" y="752" on="1"/>
      </contour>
    </TTGlyph>
    <TTGlyph name="Ecircumflex" xMin="71" yMin="0" xMax="488" yMax="890">
      <component glyphName="E" x="0" y="0" flags="0x1004"/>
      <component glyphName="circumflex" x="35" y="60" flags="0x1004"/>
    </TTGlyph>
    <TTGlyph name="Edieresis" xMin="71" yMin="0" xMax="488" yMax="871">
      <contour>
        <pt x="488" y="0" on="1"/>
        <pt x="71" y="0" on="1"/>
        <pt x="71" y="700" on="1"/>
        <pt x="488" y="700" on="1"/>
        <pt x="488" y="585" on="1"/>
        <pt x="216" y="585" on="1"/>
        <pt x="216" y="438" on="1"/>
        <pt x="463" y="438" on="1"/>
        <pt x="463" y="321" on="1"/>
        <pt x="216" y="321" on="1"/>
        <pt x="216" y="115" on="1"/>
        <pt x="488" y="115" on="1"/>
      </contour>
      <contour>
        <pt x="106" y="740" on="1"/>
        <pt x="106" y="871" on="1"/>
        <pt x="227" y="871" on="1"/>
        <pt x="227" y="740" on="1"/>
      </contour>
      <contour>
        <pt x="325" y="740" on="1"/>
        <pt x="325" y="871" on="1"/>
        <pt x="446" y="871" on="1"/>
        <pt x="446" y="740" on="1"/>
      </contour>
    </TTGlyph>
    <TTGlyph name="Egrave" xMin="71" yMin="0" xMax="488" yMax="877">
      <contour>
        <pt x="488" y="0" on="1"/>
        <pt x="71" y="0" on="1"/>
        <pt x="71" y="700" on="1"/>
        <pt x="488" y="700" on="1"/>
        <pt x="488" y="585" on="1"/>
        <pt x="216" y="585" on="1"/>
        <pt x="216" y="438" on="1"/>
        <pt x="463" y="438" on="1"/>
        <pt x="463" y="321" on="1"/>
        <pt x="216" y="321" on="1"/>
        <pt x="216" y="115" on="1"/>
        <pt x="488" y="115" on="1"/>
      </contour>
      <contour>
        <pt x="355" y="753" on="1"/>
        <pt x="244" y="753" on="1"/>
        <pt x="146" y="877" on="1"/>
        <pt x="280" y="877" on="1"/>
      </contour>
    </TTGlyph>
    <TTGlyph name="Eth" xMin="16" yMin="0" xMax="646" yMax="700">
      <contour>
        <pt x="646" y="375" on="1"/>
        <pt x="646" y="206" on="0"/>
        <pt x="450" y="0" on="0"/>
        <pt x="286" y="0" on="1"/>
        <pt x="100" y="0" on="1"/>
        <pt x="100" y="297" on="1"/>
        <pt x="16" y="297" on="1"/>
        <pt x="16" y="402" on="1"/>
        <pt x="100" y="402" on="1"/>
        <pt x="100" y="700" on="1"/>
        <pt x="317" y="700" on="1"/>
        <pt x="466" y="700" on="0"/>
        <pt x="646" y="518" on="0"/>
      </contour>
      <contour>
        <pt x="495" y="383" on="1"/>
        <pt x="495" y="477" on="0"/>
        <pt x="393" y="585" on="0"/>
        <pt x="321" y="585" on="1"/>
        <pt x="241" y="585" on="1"/>
        <pt x="241" y="402" on="1"/>
        <pt x="396" y="402" on="1"/>
        <pt x="396" y="297" on="1"/>
        <pt x="241" y="297" on="1"/>
        <pt x="241" y="115" on="1"/>
        <pt x="295" y="115" on="1"/>
        <pt x="379" y="115" on="0"/>
        <pt x="495" y="258" on="0"/>
      </contour>
    </TTGlyph>
    <TTGlyph name="Euro" xMin="21" yMin="-6" xMax="602" yMax="710">
      <contour>
        <pt x="78" y="330" on="1"/>
        <pt x="77" y="362" on="1"/>
        <pt x="77" y="366" on="0"/>
        <pt x="79" y="376" on="1"/>
        <pt x="21" y="376" on="1"/>
        <pt x="21" y="481" on="1"/>
        <pt x="89" y="481" on="1"/>
        <pt x="116" y="588" on="0"/>
        <pt x="281" y="710" on="0"/>
        <pt x="406" y="710" on="1"/>
        <pt x="491" y="710" on="0"/>
        <pt x="582" y="680" on="1"/>
        <pt x="544" y="568" on="1"/>
        <pt x="480" y="595" on="0"/>
        <pt x="408" y="595" on="1"/>
        <pt x="273" y="595" on="0"/>
        <pt x="235" y="481" on="1"/>
        <pt x="441" y="481" on="1"/>
        <pt x="441" y="375" on="1"/>
        <pt x="225" y="375" on="1"/>
        <pt x="223" y="359" on="0"/>
        <pt x="223" y="340" on="0"/>
        <pt x="224" y="330" on="1"/>
        <pt x="441" y="330" on="1"/>
        <pt x="441" y="225" on="1"/>
        <pt x="231" y="225" on="1"/>
        <pt x="264" y="109" on="0"/>
        <pt x="391" y="109" on="1"/>
        <pt x="463" y="109" on="0"/>
        <pt x="562" y="148" on="1"/>
        <pt x="602" y="46" on="1"/>
        <pt x="506" y="-6" on="0"/>
        <pt x="267" y="-6" on="0"/>
        <pt x="107" y="118" on="0"/>
        <pt x="84" y="225" on="1"/>
        <pt x="21" y="225" on="1"/>
        <pt x="21" y="330" on="1"/>
      </contour>
    </TTGlyph>
    <TTGlyph name="F" xMin="71" yMin="0" xMax="489" yMax="700">
      <contour>
        <pt x="489" y="700" on="1"/>
        <pt x="489" y="585" on="1"/>
        <pt x="216" y="585" on="1"/>
        <pt x="216" y="438" on="1"/>
        <pt x="465" y="438" on="1"/>
        <pt x="465" y="321" on="1"/>
        <pt x="216" y="321" on="1"/>
        <pt x="216" y="0" on="1"/>
        <pt x="71" y="0" on="1"/>
        <pt x="71" y="700" on="1"/>
      </contour>
    </TTGlyph>
    <TTGlyph name="G" xMin="26" yMin="-6" xMax="580" yMax="710">
      <contour>
        <pt x="362" y="-6" on="1"/>
        <pt x="208" y="-6" on="0"/>
        <pt x="26" y="190" on="0"/>
        <pt x="26" y="517" on="0"/>
        <pt x="199" y="710" on="0"/>
        <pt x="353" y="710" on="1"/>
        <pt x="455" y="710" on="0"/>
        <pt x="560" y="674" on="1"/>
        <pt x="542" y="562" on="1"/>
        <pt x="504" y="576" on="0"/>
        <pt x="382" y="595" on="0"/>
        <pt x="348" y="595" on="1"/>
        <pt x="265" y="595" on="0"/>
        <pt x="171" y="468" on="0"/>
        <pt x="171" y="252" on="0"/>
        <pt x="272" y="109" on="0"/>
        <pt x="351" y="109" on="1"/>
        <pt x="397" y="109" on="0"/>
        <pt x="435" y="129" on="1"/>
        <pt x="435" y="265" on="1"/>
        <pt x="319" y="265" on="1"/>
        <pt x="319" y="380" on="1"/>
        <pt x="580" y="380" on="1"/>
        <pt x="580" y="48" on="1"/>
        <pt x="475" y="-6" on="0"/>
      </contour>
    </TTGlyph>
    <TTGlyph name="H" xMin="71" yMin="0" xMax="593" yMax="700">
      <contour>
        <pt x="593" y="0" on="1"/>
        <pt x="448" y="0" on="1"/>
        <pt x="448" y="306" on="1"/>
        <pt x="216" y="306" on="1"/>
        <pt x="216" y="0" on="1"/>
        <pt x="71" y="0" on="1"/>
        <pt x="71" y="700" on="1"/>
        <pt x="216" y="700" on="1"/>
        <pt x="216" y="421" on="1"/>
        <pt x="448" y="421" on="1"/>
        <pt x="448" y="700" on="1"/>
        <pt x="593" y="700" on="1"/>
      </contour>
    </TTGlyph>
    <TTGlyph name="I" xMin="56" yMin="0" xMax="201" yMax="700">
      <contour>
        <pt x="201" y="0" on="1"/>
        <pt x="56" y="0" on="1"/>
        <pt x="56" y="700" on="1"/>
        <pt x="201" y="700" on="1"/>
      </contour>
    </TTGlyph>
    <TTGlyph name="Iacute" xMin="56" yMin="0" xMax="282" yMax="877">
      <contour>
        <pt x="201" y="0" on="1"/>
        <pt x="56" y="0" on="1"/>
        <pt x="56" y="700" on="1"/>
        <pt x="201" y="700" on="1"/>
      </contour>
      <contour>
        <pt x="73" y="753" on="1"/>
        <pt x="148" y="877" on="1"/>
        <pt x="282" y="877" on="1"/>
        <pt x="184" y="753" on="1"/>
      </contour>
    </TTGlyph>
    <TTGlyph name="Icircumflex" xMin="-41" yMin="0" xMax="300" yMax="893">
      <component glyphName="I" x="0" y="0" flags="0x1004"/>
      <component glyphName="circumflex" x="-116" y="63" flags="0x1004"/>
    </TTGlyph>
    <TTGlyph name="Idieresis" xMin="-41" yMin="0" xMax="299" yMax="871">
      <component glyphName="I" x="0" y="0" flags="0x1004"/>
      <component glyphName="dieresis" x="-119" y="46" flags="0x1004"/>
    </TTGlyph>
    <TTGlyph name="Igrave" xMin="-24" yMin="0" xMax="201" yMax="877">
      <contour>
        <pt x="201" y="0" on="1"/>
        <pt x="56" y="0" on="1"/>
        <pt x="56" y="700" on="1"/>
        <pt x="201" y="700" on="1"/>
      </contour>
      <contour>
        <pt x="185" y="753" on="1"/>
        <pt x="74" y="753" on="1"/>
        <pt x="-24" y="877" on="1"/>
        <pt x="110" y="877" on="1"/>
      </contour>
    </TTGlyph>
    <TTGlyph name="Itilde" xMin="-60" yMin="0" xMax="321" yMax="896">
      <component glyphName="I" x="0" y="0" flags="0x1004"/>
      <component glyphName="tilde" x="-138" y="75" flags="0x1004"/>
    </TTGlyph>
    <TTGlyph name="J" xMin="-19" yMin="-7" xMax="272" yMax="700">
      <contour>
        <pt x="272" y="211" on="1"/>
        <pt x="272" y="-7" on="0"/>
        <pt x="101" y="-7" on="1"/>
        <pt x="38" y="-7" on="0"/>
        <pt x="-19" y="4" on="1"/>
        <pt x="-19" y="117" on="1"/>
        <pt x="-14" y="117" on="0"/>
        <pt x="43" y="108" on="0"/>
        <pt x="70" y="108" on="1"/>
        <pt x="127" y="108" on="0"/>
        <pt x="127" y="228" on="1"/>
        <pt x="127" y="591" on="1"/>
        <pt x="12" y="591" on="1"/>
        <pt x="12" y="700" on="1"/>
        <pt x="272" y="700" on="1"/>
      </contour>
    </TTGlyph>
    <TTGlyph name="Jcircumflex" xMin="-19" yMin="-7" xMax="342" yMax="890">
      <component glyphName="J" x="0" y="0" flags="0x1004"/>
      <component glyphName="circumflex" x="-74" y="60" flags="0x1004"/>
    </TTGlyph>
    <TTGlyph name="K" xMin="71" yMin="0" xMax="579" yMax="700">
      <contour>
        <pt x="575" y="0" on="1"/>
        <pt x="411" y="0" on="1"/>
        <pt x="256" y="323" on="1"/>
        <pt x="216" y="278" on="1"/>
        <pt x="216" y="0" on="1"/>
        <pt x="71" y="0" on="1"/>
        <pt x="71" y="700" on="1"/>
        <pt x="215" y="700" on="1"/>
        <pt x="215" y="444" on="1"/>
        <pt x="407" y="700" on="1"/>
        <pt x="579" y="700" on="1"/>
        <pt x="357" y="434" on="1"/>
      </contour>
    </TTGlyph>
    <TTGlyph name="L" xMin="71" yMin="0" xMax="486" yMax="700">
      <contour>
        <pt x="486" y="0" on="1"/>
        <pt x="71" y="0" on="1"/>
        <pt x="71" y="700" on="1"/>
        <pt x="216" y="700" on="1"/>
        <pt x="216" y="115" on="1"/>
        <pt x="486" y="115" on="1"/>
      </contour>
    </TTGlyph>
    <TTGlyph name="Lslash" xMin="23" yMin="0" xMax="486" yMax="700">
      <contour>
        <pt x="486" y="0" on="1"/>
        <pt x="71" y="0" on="1"/>
        <pt x="71" y="304" on="1"/>
        <pt x="23" y="275" on="1"/>
        <pt x="23" y="387" on="1"/>
        <pt x="71" y="415" on="1"/>
        <pt x="71" y="700" on="1"/>
        <pt x="216" y="700" on="1"/>
        <pt x="216" y="489" on="1"/>
        <pt x="326" y="555" on="1"/>
        <pt x="326" y="443" on="1"/>
        <pt x="216" y="379" on="1"/>
        <pt x="216" y="115" on="1"/>
        <pt x="486" y="115" on="1"/>
      </contour>
    </TTGlyph>
    <TTGlyph name="M" xMin="36" yMin="0" xMax="701" yMax="700">
      <contour>
        <pt x="701" y="0" on="1"/>
        <pt x="556" y="0" on="1"/>
        <pt x="556" y="434" on="1"/>
        <pt x="431" y="164" on="1"/>
        <pt x="305" y="164" on="1"/>
        <pt x="180" y="433" on="1"/>
        <pt x="180" y="0" on="1"/>
        <pt x="36" y="0" on="1"/>
        <pt x="36" y="700" on="1"/>
        <pt x="190" y="700" on="1"/>
        <pt x="369" y="325" on="1"/>
        <pt x="556" y="700" on="1"/>
        <pt x="701" y="700" on="1"/>
      </contour>
    </TTGlyph>
    <TTGlyph name="N" xMin="71" yMin="-1" xMax="608" yMax="700">
      <contour>
        <pt x="608" y="-1" on="1"/>
        <pt x="456" y="-1" on="1"/>
        <pt x="219" y="430" on="1"/>
        <pt x="219" y="0" on="1"/>
        <pt x="71" y="0" on="1"/>
        <pt x="71" y="700" on="1"/>
        <pt x="219" y="700" on="1"/>
        <pt x="463" y="248" on="1"/>
        <pt x="463" y="700" on="1"/>
        <pt x="608" y="700" on="1"/>
      </contour>
    </TTGlyph>
    <TTGlyph name="Nacute" xMin="71" yMin="-1" xMax="608" yMax="876">
      <contour>
        <pt x="608" y="-1" on="1"/>
        <pt x="456" y="-1" on="1"/>
        <pt x="219" y="430" on="1"/>
        <pt x="219" y="0" on="1"/>
        <pt x="71" y="0" on="1"/>
        <pt x="71" y="700" on="1"/>
        <pt x="219" y="700" on="1"/>
        <pt x="463" y="248" on="1"/>
        <pt x="463" y="700" on="1"/>
        <pt x="608" y="700" on="1"/>
      </contour>
      <contour>
        <pt x="293" y="752" on="1"/>
        <pt x="368" y="876" on="1"/>
        <pt x="502" y="876" on="1"/>
        <pt x="404" y="752" on="1"/>
      </contour>
    </TTGlyph>
    <TTGlyph name="Ntilde" xMin="71" yMin="-1" xMax="608" yMax="891">
      <contour>
        <pt x="608" y="-1" on="1"/>
        <pt x="456" y="-1" on="1"/>
        <pt x="219" y="430" on="1"/>
        <pt x="219" y="0" on="1"/>
        <pt x="71" y="0" on="1"/>
        <pt x="71" y="700" on="1"/>
        <pt x="219" y="700" on="1"/>
        <pt x="463" y="248" on="1"/>
        <pt x="463" y="700" on="1"/>
        <pt x="608" y="700" on="1"/>
      </contour>
      <contour>
        <pt x="456" y="881" on="1"/>
        <pt x="519" y="834" on="1"/>
        <pt x="518" y="829" on="0"/>
        <pt x="478" y="786" on="0"/>
        <pt x="417" y="742" on="0"/>
        <pt x="370" y="742" on="0"/>
        <pt x="266" y="793" on="0"/>
        <pt x="246" y="793" on="0"/>
        <pt x="215" y="772" on="0"/>
        <pt x="205" y="761" on="1"/>
        <pt x="195" y="750" on="1"/>
        <pt x="138" y="806" on="1"/>
        <pt x="146" y="816" on="0"/>
        <pt x="171" y="844" on="0"/>
        <pt x="235" y="891" on="0"/>
        <pt x="283" y="891" on="0"/>
        <pt x="385" y="840" on="0"/>
        <pt x="406" y="840" on="0"/>
        <pt x="436" y="860" on="0"/>
        <pt x="446" y="870" on="1"/>
      </contour>
    </TTGlyph>
    <TTGlyph name="O" xMin="26" yMin="-5" xMax="622" yMax="710">
      <contour>
        <pt x="323" y="-5" on="1"/>
        <pt x="176" y="-5" on="0"/>
        <pt x="26" y="198" on="0"/>
        <pt x="26" y="512" on="0"/>
        <pt x="177" y="710" on="0"/>
        <pt x="470" y="710" on="0"/>
        <pt x="622" y="512" on="0"/>
        <pt x="622" y="355" on="1"/>
        <pt x="622" y="140" on="0"/>
        <pt x="491" y="45" on="1"/>
        <pt x="422" y="-5" on="0"/>
      </contour>
      <contour>
        <pt x="325" y="595" on="1"/>
        <pt x="272" y="595" on="0"/>
        <pt x="236" y="558" on="1"/>
        <pt x="172" y="494" on="0"/>
        <pt x="172" y="355" on="1"/>
        <pt x="172" y="250" on="0"/>
        <pt x="250" y="111" on="0"/>
        <pt x="401" y="111" on="0"/>
        <pt x="477" y="252" on="0"/>
        <pt x="477" y="455" on="0"/>
        <pt x="396" y="595" on="0"/>
      </contour>
    </TTGlyph>
    <TTGlyph name="OE" xMin="26" yMin="0" xMax="819" yMax="700">
      <contour>
        <pt x="819" y="0" on="1"/>
        <pt x="323" y="1" on="1"/>
        <pt x="176" y="1" on="0"/>
        <pt x="26" y="199" on="0"/>
        <pt x="26" y="511" on="0"/>
        <pt x="176" y="700" on="0"/>
        <pt x="323" y="700" on="1"/>
        <pt x="819" y="700" on="1"/>
        <pt x="819" y="584" on="1"/>
        <pt x="547" y="584" on="1"/>
        <pt x="547" y="438" on="1"/>
        <pt x="794" y="438" on="1"/>
        <pt x="794" y="321" on="1"/>
        <pt x="547" y="321" on="1"/>
        <pt x="547" y="121" on="1"/>
        <pt x="819" y="121" on="1"/>
      </contour>
      <contour>
        <pt x="324" y="120" on="1"/>
        <pt x="401" y="120" on="1"/>
        <pt x="401" y="584" on="1"/>
        <pt x="325" y="584" on="1"/>
        <pt x="247" y="584" on="0"/>
        <pt x="172" y="453" on="0"/>
        <pt x="172" y="252" on="0"/>
        <pt x="250" y="120" on="0"/>
      </contour>
    </TTGlyph>
    <TTGlyph name="Oacute" xMin="26" yMin="-5" xMax="622" yMax="877">
      <contour>
        <pt x="323" y="-5" on="1"/>
        <pt x="422" y="-5" on="0"/>
        <pt x="491" y="45" on="1"/>
        <pt x="622" y="140" on="0"/>
        <pt x="622" y="355" on="1"/>
        <pt x="622" y="512" on="0"/>
        <pt x="470" y="710" on="0"/>
        <pt x="177" y="710" on="0"/>
        <pt x="26" y="512" on="0"/>
        <pt x="26" y="198" on="0"/>
        <pt x="176" y="-5" on="0"/>
      </contour>
      <contour>
        <pt x="325" y="595" on="1"/>
        <pt x="396" y="595" on="0"/>
        <pt x="477" y="455" on="0"/>
        <pt x="477" y="252" on="0"/>
        <pt x="401" y="111" on="0"/>
        <pt x="250" y="111" on="0"/>
        <pt x="172" y="250" on="0"/>
        <pt x="172" y="355" on="1"/>
        <pt x="172" y="494" on="0"/>
        <pt x="236" y="558" on="1"/>
        <pt x="272" y="595" on="0"/>
      </contour>
      <contour>
        <pt x="251" y="753" on="1"/>
        <pt x="326" y="877" on="1"/>
        <pt x="460" y="877" on="1"/>
        <pt x="362" y="753" on="1"/>
      </contour>
    </TTGlyph>
    <TTGlyph name="Ocircumflex" xMin="26" yMin="-5" xMax="622" yMax="893">
      <contour>
        <pt x="323" y="-5" on="1"/>
        <pt x="176" y="-5" on="0"/>
        <pt x="26" y="198" on="0"/>
        <pt x="26" y="512" on="0"/>
        <pt x="177" y="710" on="0"/>
        <pt x="470" y="710" on="0"/>
        <pt x="622" y="512" on="0"/>
        <pt x="622" y="355" on="1"/>
        <pt x="622" y="140" on="0"/>
        <pt x="491" y="45" on="1"/>
        <pt x="422" y="-5" on="0"/>
      </contour>
      <contour>
        <pt x="325" y="595" on="1"/>
        <pt x="272" y="595" on="0"/>
        <pt x="236" y="558" on="1"/>
        <pt x="172" y="494" on="0"/>
        <pt x="172" y="355" on="1"/>
        <pt x="172" y="250" on="0"/>
        <pt x="250" y="111" on="0"/>
        <pt x="401" y="111" on="0"/>
        <pt x="477" y="252" on="0"/>
        <pt x="477" y="455" on="0"/>
        <pt x="396" y="595" on="0"/>
      </contour>
      <contour>
        <pt x="281" y="893" on="1"/>
        <pt x="368" y="893" on="1"/>
        <pt x="494" y="803" on="1"/>
        <pt x="450" y="739" on="1"/>
        <pt x="324" y="804" on="1"/>
        <pt x="197" y="739" on="1"/>
        <pt x="153" y="803" on="1"/>
      </contour>
    </TTGlyph>
    <TTGlyph name="Odieresis" xMin="26" yMin="-5" xMax="622" yMax="870">
      <contour>
        <pt x="323" y="-5" on="1"/>
        <pt x="422" y="-5" on="0"/>
        <pt x="491" y="45" on="1"/>
        <pt x="622" y="140" on="0"/>
        <pt x="622" y="355" on="1"/>
        <pt x="622" y="512" on="0"/>
        <pt x="470" y="710" on="0"/>
        <pt x="177" y="710" on="0"/>
        <pt x="26" y="512" on="0"/>
        <pt x="26" y="198" on="0"/>
        <pt x="176" y="-5" on="0"/>
      </contour>
      <contour>
        <pt x="325" y="595" on="1"/>
        <pt x="396" y="595" on="0"/>
        <pt x="477" y="455" on="0"/>
        <pt x="477" y="252" on="0"/>
        <pt x="401" y="111" on="0"/>
        <pt x="250" y="111" on="0"/>
        <pt x="172" y="250" on="0"/>
        <pt x="172" y="355" on="1"/>
        <pt x="172" y="494" on="0"/>
        <pt x="236" y="558" on="1"/>
        <pt x="272" y="595" on="0"/>
      </contour>
      <contour>
        <pt x="154" y="739" on="1"/>
        <pt x="154" y="870" on="1"/>
        <pt x="275" y="870" on="1"/>
        <pt x="275" y="739" on="1"/>
      </contour>
      <contour>
        <pt x="373" y="739" on="1"/>
        <pt x="373" y="870" on="1"/>
        <pt x="494" y="870" on="1"/>
        <pt x="494" y="739" on="1"/>
      </contour>
    </TTGlyph>
    <TTGlyph name="Ograve" xMin="26" yMin="-5" xMax="622" yMax="877">
      <contour>
        <pt x="323" y="-5" on="1"/>
        <pt x="422" y="-5" on="0"/>
        <pt x="491" y="45" on="1"/>
        <pt x="622" y="140" on="0"/>
        <pt x="622" y="355" on="1"/>
        <pt x="622" y="512" on="0"/>
        <pt x="470" y="710" on="0"/>
        <pt x="177" y="710" on="0"/>
        <pt x="26" y="512" on="0"/>
        <pt x="26" y="198" on="0"/>
        <pt x="176" y="-5" on="0"/>
      </contour>
      <contour>
        <pt x="325" y="595" on="1"/>
        <pt x="396" y="595" on="0"/>
        <pt x="477" y="455" on="0"/>
        <pt x="477" y="252" on="0"/>
        <pt x="401" y="111" on="0"/>
        <pt x="250" y="111" on="0"/>
        <pt x="172" y="250" on="0"/>
        <pt x="172" y="355" on="1"/>
        <pt x="172" y="494" on="0"/>
        <pt x="236" y="558" on="1"/>
        <pt x="272" y="595" on="0"/>
      </contour>
      <contour>
        <pt x="361" y="753" on="1"/>
        <pt x="250" y="753" on="1"/>
        <pt x="152" y="877" on="1"/>
        <pt x="286" y="877" on="1"/>
      </contour>
    </TTGlyph>
    <TTGlyph name="Omega" xMin="47" yMin="0" xMax="686" yMax="710">
      <contour>
        <pt x="578" y="115" on="1"/>
        <pt x="686" y="115" on="1"/>
        <pt x="686" y="0" on="1"/>
        <pt x="401" y="0" on="1"/>
        <pt x="401" y="115" on="1"/>
        <pt x="472" y="141" on="0"/>
        <pt x="495" y="214" on="1"/>
        <pt x="514" y="276" on="0"/>
        <pt x="514" y="455" on="0"/>
        <pt x="433" y="595" on="0"/>
        <pt x="362" y="595" on="1"/>
        <pt x="309" y="595" on="0"/>
        <pt x="273" y="558" on="1"/>
        <pt x="209" y="494" on="0"/>
        <pt x="209" y="355" on="1"/>
        <pt x="209" y="265" on="0"/>
        <pt x="269" y="124" on="0"/>
        <pt x="332" y="115" on="1"/>
        <pt x="332" y="0" on="1"/>
        <pt x="47" y="0" on="1"/>
        <pt x="47" y="115" on="1"/>
        <pt x="140" y="115" on="1"/>
        <pt x="63" y="198" on="0"/>
        <pt x="63" y="512" on="0"/>
        <pt x="214" y="710" on="0"/>
        <pt x="507" y="710" on="0"/>
        <pt x="659" y="512" on="0"/>
        <pt x="659" y="197" on="0"/>
      </contour>
    </TTGlyph>
    <TTGlyph name="Oslash" xMin="26" yMin="-109" xMax="622" yMax="800">
      <contour>
        <pt x="323" y="-5" on="1"/>
        <pt x="290" y="-5" on="0"/>
        <pt x="251" y="2" on="1"/>
        <pt x="210" y="-109" on="1"/>
        <pt x="102" y="-109" on="1"/>
        <pt x="157" y="42" on="1"/>
        <pt x="92" y="88" on="0"/>
        <pt x="26" y="252" on="0"/>
        <pt x="26" y="355" on="1"/>
        <pt x="26" y="512" on="0"/>
        <pt x="177" y="710" on="0"/>
        <pt x="323" y="710" on="1"/>
        <pt x="362" y="710" on="0"/>
        <pt x="400" y="702" on="1"/>
        <pt x="436" y="800" on="1"/>
        <pt x="545" y="800" on="1"/>
        <pt x="493" y="660" on="1"/>
        <pt x="557" y="615" on="0"/>
        <pt x="622" y="456" on="0"/>
        <pt x="622" y="254" on="0"/>
        <pt x="560" y="95" on="0"/>
        <pt x="422" y="-5" on="0"/>
      </contour>
      <contour>
        <pt x="325" y="599" on="1"/>
        <pt x="270" y="599" on="0"/>
        <pt x="234" y="562" on="1"/>
        <pt x="168" y="496" on="0"/>
        <pt x="168" y="355" on="1"/>
        <pt x="168" y="241" on="0"/>
        <pt x="210" y="174" on="1"/>
        <pt x="363" y="593" on="1"/>
        <pt x="345" y="599" on="0"/>
      </contour>
      <contour>
        <pt x="324" y="107" on="1"/>
        <pt x="377" y="107" on="0"/>
        <pt x="414" y="143" on="1"/>
        <pt x="481" y="210" on="0"/>
        <pt x="481" y="360" on="1"/>
        <pt x="481" y="459" on="0"/>
        <pt x="440" y="527" on="1"/>
        <pt x="287" y="112" on="1"/>
        <pt x="301" y="107" on="0"/>
      </contour>
    </TTGlyph>
    <TTGlyph name="Otilde" xMin="26" yMin="-5" xMax="622" yMax="885">
      <contour>
        <pt x="323" y="-5" on="1"/>
        <pt x="422" y="-5" on="0"/>
        <pt x="491" y="45" on="1"/>
        <pt x="622" y="140" on="0"/>
        <pt x="622" y="355" on="1"/>
        <pt x="622" y="512" on="0"/>
        <pt x="470" y="710" on="0"/>
        <pt x="177" y="710" on="0"/>
        <pt x="26" y="512" on="0"/>
        <pt x="26" y="198" on="0"/>
        <pt x="176" y="-5" on="0"/>
      </contour>
      <contour>
        <pt x="325" y="595" on="1"/>
        <pt x="396" y="595" on="0"/>
        <pt x="477" y="455" on="0"/>
        <pt x="477" y="252" on="0"/>
        <pt x="401" y="111" on="0"/>
        <pt x="250" y="111" on="0"/>
        <pt x="172" y="250" on="0"/>
        <pt x="172" y="355" on="1"/>
        <pt x="172" y="494" on="0"/>
        <pt x="236" y="558" on="1"/>
        <pt x="272" y="595" on="0"/>
      </contour>
      <contour>
        <pt x="460" y="875" on="1"/>
        <pt x="523" y="828" on="1"/>
        <pt x="522" y="823" on="0"/>
        <pt x="482" y="780" on="0"/>
        <pt x="421" y="736" on="0"/>
        <pt x="374" y="736" on="0"/>
        <pt x="270" y="787" on="0"/>
        <pt x="250" y="787" on="0"/>
        <pt x="219" y="766" on="0"/>
        <pt x="209" y="755" on="1"/>
        <pt x="199" y="744" on="1"/>
        <pt x="142" y="800" on="1"/>
        <pt x="150" y="810" on="0"/>
        <pt x="175" y="838" on="0"/>
        <pt x="239" y="885" on="0"/>
        <pt x="287" y="885" on="0"/>
        <pt x="389" y="834" on="0"/>
        <pt x="410" y="834" on="0"/>
        <pt x="440" y="854" on="0"/>
        <pt x="450" y="864" on="1"/>
      </contour>
    </TTGlyph>
    <TTGlyph name="P" xMin="71" yMin="0" xMax="524" yMax="700">
      <contour>
        <pt x="268" y="269" on="1"/>
        <pt x="216" y="269" on="1"/>
        <pt x="216" y="0" on="1"/>
        <pt x="71" y="0" on="1"/>
        <pt x="71" y="700" on="1"/>
        <pt x="291" y="700" on="1"/>
        <pt x="414" y="700" on="0"/>
        <pt x="524" y="595" on="0"/>
        <pt x="524" y="376" on="0"/>
        <pt x="389" y="269" on="0"/>
      </contour>
      <contour>
        <pt x="257" y="586" on="1"/>
        <pt x="216" y="586" on="1"/>
        <pt x="216" y="383" on="1"/>
        <pt x="232" y="383" on="1"/>
        <pt x="308" y="383" on="0"/>
        <pt x="379" y="429" on="0"/>
        <pt x="379" y="538" on="0"/>
        <pt x="321" y="586" on="0"/>
      </contour>
    </TTGlyph>
    <TTGlyph name="Q" xMin="26" yMin="-64" xMax="651" yMax="710">
      <contour>
        <pt x="558" y="111" on="1"/>
        <pt x="651" y="15" on="1"/>
        <pt x="572" y="-64" on="1"/>
        <pt x="477" y="37" on="1"/>
        <pt x="416" y="-7" on="0"/>
        <pt x="224" y="-7" on="0"/>
        <pt x="156" y="44" on="1"/>
        <pt x="26" y="139" on="0"/>
        <pt x="26" y="355" on="1"/>
        <pt x="26" y="512" on="0"/>
        <pt x="177" y="710" on="0"/>
        <pt x="470" y="710" on="0"/>
        <pt x="622" y="512" on="0"/>
        <pt x="622" y="205" on="0"/>
      </contour>
      <contour>
        <pt x="419" y="258" on="1"/>
        <pt x="451" y="219" on="1"/>
        <pt x="477" y="270" on="0"/>
        <pt x="477" y="455" on="0"/>
        <pt x="396" y="596" on="0"/>
        <pt x="246" y="596" on="0"/>
        <pt x="172" y="456" on="0"/>
        <pt x="172" y="250" on="0"/>
        <pt x="250" y="109" on="0"/>
        <pt x="324" y="109" on="1"/>
        <pt x="363" y="109" on="0"/>
        <pt x="387" y="127" on="1"/>
        <pt x="339" y="179" on="1"/>
      </contour>
    </TTGlyph>
    <TTGlyph name="R" xMin="71" yMin="1" xMax="591" yMax="701">
      <contour>
        <pt x="228" y="304" on="1"/>
        <pt x="216" y="304" on="1"/>
        <pt x="216" y="1" on="1"/>
        <pt x="71" y="1" on="1"/>
        <pt x="71" y="701" on="1"/>
        <pt x="293" y="701" on="1"/>
        <pt x="406" y="701" on="0"/>
        <pt x="518" y="602" on="0"/>
        <pt x="518" y="510" on="1"/>
        <pt x="518" y="454" on="0"/>
        <pt x="440" y="361" on="0"/>
        <pt x="384" y="354" on="1"/>
        <pt x="424" y="343" on="0"/>
        <pt x="468" y="292" on="0"/>
        <pt x="492" y="235" on="1"/>
        <pt x="591" y="1" on="1"/>
        <pt x="442" y="1" on="1"/>
        <pt x="345" y="225" on="1"/>
        <pt x="324" y="273" on="0"/>
        <pt x="277" y="304" on="0"/>
      </contour>
      <contour>
        <pt x="289" y="587" on="1"/>
        <pt x="216" y="587" on="1"/>
        <pt x="216" y="418" on="1"/>
        <pt x="279" y="418" on="1"/>
        <pt x="319" y="418" on="0"/>
        <pt x="364" y="470" on="0"/>
        <pt x="364" y="508" on="1"/>
        <pt x="364" y="587" on="0"/>
      </contour>
    </TTGlyph>
    <TTGlyph name="Racute" xMin="71" yMin="1" xMax="591" yMax="876">
      <contour>
        <pt x="216" y="304" on="1"/>
        <pt x="228" y="304" on="1"/>
        <pt x="277" y="304" on="0"/>
        <pt x="324" y="273" on="0"/>
        <pt x="345" y="225" on="1"/>
        <pt x="442" y="1" on="1"/>
        <pt x="591" y="1" on="1"/>
        <pt x="492" y="235" on="1"/>
        <pt x="468" y="292" on="0"/>
        <pt x="424" y="343" on="0"/>
        <pt x="384" y="354" on="1"/>
        <pt x="440" y="361" on="0"/>
        <pt x="518" y="454" on="0"/>
        <pt x="518" y="510" on="1"/>
        <pt x="518" y="602" on="0"/>
        <pt x="406" y="701" on="0"/>
        <pt x="293" y="701" on="1"/>
        <pt x="71" y="701" on="1"/>
        <pt x="71" y="1" on="1"/>
        <pt x="216" y="1" on="1"/>
      </contour>
      <contour>
        <pt x="216" y="587" on="1"/>
        <pt x="289" y="587" on="1"/>
        <pt x="364" y="587" on="0"/>
        <pt x="364" y="508" on="1"/>
        <pt x="364" y="470" on="0"/>
        <pt x="319" y="418" on="0"/>
        <pt x="279" y="418" on="1"/>
        <pt x="216" y="418" on="1"/>
      </contour>
      <contour>
        <pt x="229" y="752" on="1"/>
        <pt x="304" y="876" on="1"/>
        <pt x="438" y="876" on="1"/>
        <pt x="340" y="752" on="1"/>
      </contour>
    </TTGlyph>
    <TTGlyph name="Rcaron" xMin="71" yMin="0" xMax="591" yMax="927">
      <contour>
        <pt x="228" y="303" on="1"/>
        <pt x="216" y="303" on="1"/>
        <pt x="216" y="0" on="1"/>
        <pt x="71" y="0" on="1"/>
        <pt x="71" y="700" on="1"/>
        <pt x="293" y="700" on="1"/>
        <pt x="406" y="700" on="0"/>
        <pt x="518" y="601" on="0"/>
        <pt x="518" y="509" on="1"/>
        <pt x="518" y="453" on="0"/>
        <pt x="440" y="360" on="0"/>
        <pt x="384" y="353" on="1"/>
        <pt x="424" y="342" on="0"/>
        <pt x="468" y="291" on="0"/>
        <pt x="492" y="234" on="1"/>
        <pt x="591" y="0" on="1"/>
        <pt x="442" y="0" on="1"/>
        <pt x="345" y="224" on="1"/>
        <pt x="324" y="272" on="0"/>
        <pt x="277" y="303" on="0"/>
      </contour>
      <contour>
        <pt x="289" y="586" on="1"/>
        <pt x="216" y="586" on="1"/>
        <pt x="216" y="417" on="1"/>
        <pt x="279" y="417" on="1"/>
        <pt x="319" y="417" on="0"/>
        <pt x="364" y="469" on="0"/>
        <pt x="364" y="507" on="1"/>
        <pt x="364" y="586" on="0"/>
      </contour>
      <contour>
        <pt x="331" y="773" on="1"/>
        <pt x="244" y="773" on="1"/>
        <pt x="118" y="863" on="1"/>
        <pt x="162" y="927" on="1"/>
        <pt x="288" y="862" on="1"/>
        <pt x="415" y="927" on="1"/>
        <pt x="459" y="863" on="1"/>
      </contour>
    </TTGlyph>
    <TTGlyph name="Rcommaaccent" xMin="71" yMin="-217" xMax="591" yMax="701">
      <contour>
        <pt x="228" y="304" on="1"/>
        <pt x="216" y="304" on="1"/>
        <pt x="216" y="1" on="1"/>
        <pt x="71" y="1" on="1"/>
        <pt x="71" y="701" on="1"/>
        <pt x="293" y="701" on="1"/>
        <pt x="406" y="701" on="0"/>
        <pt x="518" y="602" on="0"/>
        <pt x="518" y="510" on="1"/>
        <pt x="518" y="454" on="0"/>
        <pt x="440" y="361" on="0"/>
        <pt x="384" y="354" on="1"/>
        <pt x="424" y="343" on="0"/>
        <pt x="468" y="292" on="0"/>
        <pt x="492" y="235" on="1"/>
        <pt x="591" y="1" on="1"/>
        <pt x="442" y="1" on="1"/>
        <pt x="345" y="225" on="1"/>
        <pt x="324" y="273" on="0"/>
        <pt x="277" y="304" on="0"/>
      </contour>
      <contour>
        <pt x="289" y="587" on="1"/>
        <pt x="216" y="587" on="1"/>
        <pt x="216" y="418" on="1"/>
        <pt x="279" y="418" on="1"/>
        <pt x="319" y="418" on="0"/>
        <pt x="364" y="470" on="0"/>
        <pt x="364" y="508" on="1"/>
        <pt x="364" y="587" on="0"/>
      </contour>
      <contour>
        <pt x="370" y="-40" on="1"/>
        <pt x="370" y="-88" on="0"/>
        <pt x="347" y="-152" on="0"/>
        <pt x="307" y="-217" on="1"/>
        <pt x="218" y="-186" on="1"/>
        <pt x="244" y="-133" on="0"/>
        <pt x="259" y="-84" on="0"/>
        <pt x="259" y="-40" on="1"/>
      </contour>
    </TTGlyph>
    <TTGlyph name="S" xMin="35" yMin="-6" xMax="514" yMax="710">
      <contour>
        <pt x="463" y="675" on="1"/>
        <pt x="439" y="558" on="1"/>
        <pt x="377" y="575" on="1"/>
        <pt x="311" y="590" on="0"/>
        <pt x="262" y="590" on="1"/>
        <pt x="194" y="590" on="0"/>
        <pt x="194" y="525" on="1"/>
        <pt x="194" y="500" on="0"/>
        <pt x="241" y="459" on="0"/>
        <pt x="313" y="432" on="0"/>
        <pt x="395" y="392" on="0"/>
        <pt x="467" y="346" on="0"/>
        <pt x="514" y="266" on="0"/>
        <pt x="514" y="214" on="1"/>
        <pt x="514" y="111" on="0"/>
        <pt x="381" y="-6" on="0"/>
        <pt x="260" y="-6" on="1"/>
        <pt x="198" y="-6" on="0"/>
        <pt x="75" y="27" on="0"/>
        <pt x="35" y="49" on="1"/>
        <pt x="78" y="156" on="1"/>
        <pt x="170" y="114" on="0"/>
        <pt x="260" y="114" on="1"/>
        <pt x="311" y="114" on="0"/>
        <pt x="369" y="161" on="0"/>
        <pt x="369" y="235" on="0"/>
        <pt x="303" y="284" on="0"/>
        <pt x="209" y="323" on="0"/>
        <pt x="115" y="372" on="0"/>
        <pt x="49" y="461" on="0"/>
        <pt x="49" y="522" on="1"/>
        <pt x="49" y="613" on="0"/>
        <pt x="163" y="710" on="0"/>
        <pt x="356" y="710" on="0"/>
      </contour>
    </TTGlyph>
    <TTGlyph name="Scaron" xMin="35" yMin="-6" xMax="514" yMax="927">
      <component glyphName="S" x="0" y="0" flags="0x1004"/>
      <component glyphName="caron" x="26" y="97" flags="0x1004"/>
    </TTGlyph>
    <TTGlyph name="T" xMin="20" yMin="0" xMax="484" yMax="700">
      <contour>
        <pt x="181" y="0" on="1"/>
        <pt x="181" y="583" on="1"/>
        <pt x="20" y="583" on="1"/>
        <pt x="20" y="700" on="1"/>
        <pt x="484" y="700" on="1"/>
        <pt x="484" y="583" on="1"/>
        <pt x="325" y="583" on="1"/>
        <pt x="325" y="0" on="1"/>
      </contour>
    </TTGlyph>
    <TTGlyph name="Thorn" xMin="69" yMin="0" xMax="522" yMax="700">
      <contour>
        <pt x="214" y="700" on="1"/>
        <pt x="214" y="590" on="1"/>
        <pt x="289" y="590" on="1"/>
        <pt x="412" y="589" on="0"/>
        <pt x="522" y="484" on="0"/>
        <pt x="522" y="265" on="0"/>
        <pt x="387" y="159" on="0"/>
        <pt x="266" y="159" on="1"/>
        <pt x="214" y="159" on="1"/>
        <pt x="214" y="0" on="1"/>
        <pt x="69" y="0" on="1"/>
        <pt x="69" y="700" on="1"/>
      </contour>
      <contour>
        <pt x="255" y="476" on="1"/>
        <pt x="214" y="476" on="1"/>
        <pt x="214" y="273" on="1"/>
        <pt x="250" y="273" on="1"/>
        <pt x="315" y="273" on="0"/>
        <pt x="377" y="318" on="0"/>
        <pt x="377" y="427" on="0"/>
        <pt x="319" y="476" on="0"/>
      </contour>
    </TTGlyph>
    <TTGlyph name="U" xMin="71" yMin="-6" xMax="593" yMax="700">
      <contour>
        <pt x="459" y="-6" on="0"/>
        <pt x="205" y="-6" on="0"/>
        <pt x="71" y="127" on="0"/>
        <pt x="71" y="258" on="1"/>
        <pt x="71" y="700" on="1"/>
        <pt x="217" y="700" on="1"/>
        <pt x="217" y="246" on="1"/>
        <pt x="217" y="180" on="0"/>
        <pt x="276" y="109" on="0"/>
        <pt x="386" y="109" on="0"/>
        <pt x="447" y="180" on="0"/>
        <pt x="447" y="246" on="1"/>
        <pt x="447" y="700" on="1"/>
        <pt x="593" y="700" on="1"/>
        <pt x="593" y="258" on="1"/>
        <pt x="593" y="127" on="0"/>
      </contour>
    </TTGlyph>
    <TTGlyph name="Uacute" xMin="71" yMin="-6" xMax="593" yMax="877">
      <contour>
        <pt x="205" y="-6" on="0"/>
        <pt x="459" y="-6" on="0"/>
        <pt x="593" y="127" on="0"/>
        <pt x="593" y="258" on="1"/>
        <pt x="593" y="700" on="1"/>
        <pt x="447" y="700" on="1"/>
        <pt x="447" y="246" on="1"/>
        <pt x="447" y="180" on="0"/>
        <pt x="386" y="109" on="0"/>
        <pt x="276" y="109" on="0"/>
        <pt x="217" y="180" on="0"/>
        <pt x="217" y="246" on="1"/>
        <pt x="217" y="700" on="1"/>
        <pt x="71" y="700" on="1"/>
        <pt x="71" y="258" on="1"/>
        <pt x="71" y="127" on="0"/>
      </contour>
      <contour>
        <pt x="273" y="753" on="1"/>
        <pt x="348" y="877" on="1"/>
        <pt x="482" y="877" on="1"/>
        <pt x="384" y="753" on="1"/>
      </contour>
    </TTGlyph>
    <TTGlyph name="Ucircumflex" xMin="71" yMin="-6" xMax="593" yMax="893">
      <contour>
        <pt x="459" y="-6" on="0"/>
        <pt x="205" y="-6" on="0"/>
        <pt x="71" y="127" on="0"/>
        <pt x="71" y="258" on="1"/>
        <pt x="71" y="700" on="1"/>
        <pt x="217" y="700" on="1"/>
        <pt x="217" y="246" on="1"/>
        <pt x="217" y="180" on="0"/>
        <pt x="276" y="109" on="0"/>
        <pt x="386" y="109" on="0"/>
        <pt x="447" y="180" on="0"/>
        <pt x="447" y="246" on="1"/>
        <pt x="447" y="700" on="1"/>
        <pt x="593" y="700" on="1"/>
        <pt x="593" y="258" on="1"/>
        <pt x="593" y="127" on="0"/>
      </contour>
      <contour>
        <pt x="290" y="893" on="1"/>
        <pt x="377" y="893" on="1"/>
        <pt x="503" y="803" on="1"/>
        <pt x="459" y="739" on="1"/>
        <pt x="333" y="804" on="1"/>
        <pt x="206" y="739" on="1"/>
        <pt x="162" y="803" on="1"/>
      </contour>
    </TTGlyph>
    <TTGlyph name="Udieresis" xMin="71" yMin="-6" xMax="593" yMax="870">
      <component glyphName="U" x="0" y="0" flags="0x1004"/>
      <component glyphName="dieresis" x="85" y="45" flags="0x1004"/>
    </TTGlyph>
    <TTGlyph name="Ugrave" xMin="71" yMin="-6" xMax="593" yMax="878">
      <contour>
        <pt x="205" y="-6" on="0"/>
        <pt x="459" y="-6" on="0"/>
        <pt x="593" y="127" on="0"/>
        <pt x="593" y="258" on="1"/>
        <pt x="593" y="700" on="1"/>
        <pt x="447" y="700" on="1"/>
        <pt x="447" y="246" on="1"/>
        <pt x="447" y="180" on="0"/>
        <pt x="386" y="109" on="0"/>
        <pt x="276" y="109" on="0"/>
        <pt x="217" y="180" on="0"/>
        <pt x="217" y="246" on="1"/>
        <pt x="217" y="700" on="1"/>
        <pt x="71" y="700" on="1"/>
        <pt x="71" y="258" on="1"/>
        <pt x="71" y="127" on="0"/>
      </contour>
      <contour>
        <pt x="392" y="754" on="1"/>
        <pt x="281" y="754" on="1"/>
        <pt x="183" y="878" on="1"/>
        <pt x="317" y="878" on="1"/>
      </contour>
    </TTGlyph>
    <TTGlyph name="V" xMin="-7" yMin="0" xMax="553" yMax="700">
      <contour>
        <pt x="553" y="700" on="1"/>
        <pt x="347" y="0" on="1"/>
        <pt x="182" y="0" on="1"/>
        <pt x="-7" y="700" on="1"/>
        <pt x="147" y="700" on="1"/>
        <pt x="268" y="185" on="1"/>
        <pt x="401" y="700" on="1"/>
      </contour>
    </TTGlyph>
    <TTGlyph name="W" xMin="-7" yMin="0" xMax="758" yMax="700">
      <contour>
        <pt x="758" y="700" on="1"/>
        <pt x="592" y="0" on="1"/>
        <pt x="445" y="0" on="1"/>
        <pt x="383" y="306" on="1"/>
        <pt x="298" y="0" on="1"/>
        <pt x="156" y="0" on="1"/>
        <pt x="-7" y="700" on="1"/>
        <pt x="149" y="700" on="1"/>
        <pt x="231" y="185" on="1"/>
        <pt x="314" y="510" on="1"/>
        <pt x="450" y="510" on="1"/>
        <pt x="523" y="185" on="1"/>
        <pt x="609" y="700" on="1"/>
      </contour>
    </TTGlyph>
    <TTGlyph name="X" xMin="0" yMin="0" xMax="584" yMax="700">
      <contour>
        <pt x="584" y="0" on="1"/>
        <pt x="422" y="0" on="1"/>
        <pt x="294" y="245" on="1"/>
        <pt x="161" y="0" on="1"/>
        <pt x="0" y="0" on="1"/>
        <pt x="222" y="368" on="1"/>
        <pt x="21" y="700" on="1"/>
        <pt x="186" y="700" on="1"/>
        <pt x="297" y="494" on="1"/>
        <pt x="413" y="700" on="1"/>
        <pt x="573" y="700" on="1"/>
        <pt x="369" y="368" on="1"/>
      </contour>
    </TTGlyph>
    <TTGlyph name="Y" xMin="-7" yMin="0" xMax="559" yMax="700">
      <contour>
        <pt x="559" y="700" on="1"/>
        <pt x="344" y="295" on="1"/>
        <pt x="344" y="0" on="1"/>
        <pt x="199" y="0" on="1"/>
        <pt x="199" y="295" on="1"/>
        <pt x="-7" y="700" on="1"/>
        <pt x="146" y="700" on="1"/>
        <pt x="273" y="426" on="1"/>
        <pt x="408" y="700" on="1"/>
      </contour>
    </TTGlyph>
    <TTGlyph name="Yacute" xMin="-7" yMin="0" xMax="559" yMax="877">
      <contour>
        <pt x="559" y="700" on="1"/>
        <pt x="344" y="295" on="1"/>
        <pt x="344" y="0" on="1"/>
        <pt x="199" y="0" on="1"/>
        <pt x="199" y="295" on="1"/>
        <pt x="-7" y="700" on="1"/>
        <pt x="146" y="700" on="1"/>
        <pt x="273" y="426" on="1"/>
        <pt x="408" y="700" on="1"/>
      </contour>
      <contour>
        <pt x="206" y="753" on="1"/>
        <pt x="281" y="877" on="1"/>
        <pt x="415" y="877" on="1"/>
        <pt x="317" y="753" on="1"/>
      </contour>
    </TTGlyph>
    <TTGlyph name="Ydieresis" xMin="-7" yMin="0" xMax="559" yMax="932">
      <component glyphName="Y" x="0" y="0" flags="0x1004"/>
      <component glyphName="dieresis" x="26" y="107" flags="0x1004"/>
    </TTGlyph>
    <TTGlyph name="Z" xMin="19" yMin="0" xMax="499" yMax="700">
      <contour>
        <pt x="499" y="0" on="1"/>
        <pt x="20" y="0" on="1"/>
        <pt x="20" y="112" on="1"/>
        <pt x="310" y="585" on="1"/>
        <pt x="19" y="585" on="1"/>
        <pt x="19" y="700" on="1"/>
        <pt x="468" y="700" on="1"/>
        <pt x="468" y="593" on="1"/>
        <pt x="181" y="116" on="1"/>
        <pt x="499" y="116" on="1"/>
      </contour>
    </TTGlyph>
    <TTGlyph name="Zcaron" xMin="19" yMin="0" xMax="499" yMax="927">
      <component glyphName="Z" x="0" y="0" flags="0x1004"/>
      <component glyphName="caron" x="0" y="97" flags="0x1004"/>
    </TTGlyph>
    <TTGlyph name="a" xMin="40" yMin="-7" xMax="442" yMax="510">
      <contour>
        <pt x="346" y="0" on="1"/>
        <pt x="326" y="50" on="1"/>
        <pt x="291" y="18" on="0"/>
        <pt x="237" y="-7" on="0"/>
        <pt x="199" y="-7" on="1"/>
        <pt x="135" y="-7" on="0"/>
        <pt x="40" y="82" on="0"/>
        <pt x="40" y="230" on="0"/>
        <pt x="156" y="315" on="0"/>
        <pt x="273" y="315" on="1"/>
        <pt x="314" y="315" on="1"/>
        <pt x="314" y="358" on="0"/>
        <pt x="273" y="410" on="0"/>
        <pt x="231" y="410" on="1"/>
        <pt x="158" y="410" on="0"/>
        <pt x="83" y="390" on="1"/>
        <pt x="61" y="478" on="1"/>
        <pt x="160" y="510" on="0"/>
        <pt x="260" y="510" on="1"/>
        <pt x="442" y="510" on="0"/>
        <pt x="442" y="340" on="1"/>
        <pt x="442" y="0" on="1"/>
      </contour>
      <contour>
        <pt x="312" y="219" on="1"/>
        <pt x="269" y="219" on="1"/>
        <pt x="213" y="219" on="0"/>
        <pt x="173" y="189" on="0"/>
        <pt x="173" y="132" on="0"/>
        <pt x="203" y="96" on="0"/>
        <pt x="227" y="96" on="1"/>
        <pt x="261" y="96" on="0"/>
        <pt x="312" y="150" on="1"/>
      </contour>
    </TTGlyph>
    <TTGlyph name="aacute" xMin="40" yMin="-7" xMax="442" yMax="736">
      <component glyphName="a" x="0" y="0" flags="0x1004"/>
      <component glyphName="acute" x="118" y="0" flags="0x1004"/>
    </TTGlyph>
    <TTGlyph name="acircumflex" xMin="40" yMin="-7" xMax="442" yMax="722">
      <component glyphName="a" x="0" y="0" flags="0x1004"/>
      <component glyphName="circumflex" x="16" y="-108" flags="0x1004"/>
    </TTGlyph>
    <TTGlyph name="acute" xMin="91" yMin="567" xMax="309" yMax="736">
      <contour>
        <pt x="179" y="567" on="1"/>
        <pt x="91" y="599" on="1"/>
        <pt x="194" y="736" on="1"/>
        <pt x="309" y="690" on="1"/>
      </contour>
    </TTGlyph>
    <TTGlyph name="acuteMAY" xMin="158" yMin="701" xMax="367" yMax="825">
      <contour>
        <pt x="158" y="701" on="1"/>
        <pt x="233" y="825" on="1"/>
        <pt x="367" y="825" on="1"/>
        <pt x="269" y="701" on="1"/>
      </contour>
    </TTGlyph>
    <TTGlyph name="adieresis" xMin="40" yMin="-7" xMax="442" yMax="710">
      <component glyphName="a" x="0" y="0" flags="0x1004"/>
      <component glyphName="dieresis" x="15" y="-115" flags="0x1004"/>
    </TTGlyph>
    <TTGlyph name="ae" xMin="40" yMin="-7" xMax="728" yMax="510">
      <contour>
        <pt x="444" y="131" on="1"/>
        <pt x="349" y="-7" on="0"/>
        <pt x="199" y="-7" on="1"/>
        <pt x="135" y="-7" on="0"/>
        <pt x="40" y="82" on="0"/>
        <pt x="40" y="230" on="0"/>
        <pt x="167" y="315" on="0"/>
        <pt x="295" y="315" on="1"/>
        <pt x="326" y="315" on="1"/>
        <pt x="326" y="410" on="0"/>
        <pt x="261" y="410" on="1"/>
        <pt x="173" y="410" on="0"/>
        <pt x="83" y="380" on="1"/>
        <pt x="61" y="468" on="1"/>
        <pt x="157" y="510" on="0"/>
        <pt x="360" y="510" on="0"/>
        <pt x="444" y="423" on="0"/>
        <pt x="444" y="340" on="1"/>
      </contour>
      <contour>
        <pt x="324" y="219" on="1"/>
        <pt x="291" y="219" on="1"/>
        <pt x="223" y="219" on="0"/>
        <pt x="173" y="189" on="0"/>
        <pt x="173" y="132" on="0"/>
        <pt x="203" y="96" on="0"/>
        <pt x="227" y="96" on="1"/>
        <pt x="267" y="96" on="0"/>
        <pt x="324" y="150" on="1"/>
      </contour>
      <contour>
        <pt x="718" y="31" on="1"/>
        <pt x="628" y="-6" on="0"/>
        <pt x="552" y="-6" on="1"/>
        <pt x="327" y="-6" on="0"/>
        <pt x="327" y="248" on="1"/>
        <pt x="327" y="377" on="0"/>
        <pt x="436" y="510" on="0"/>
        <pt x="540" y="510" on="1"/>
        <pt x="625" y="510" on="0"/>
        <pt x="728" y="398" on="0"/>
        <pt x="728" y="288" on="1"/>
        <pt x="728" y="244" on="0"/>
        <pt x="724" y="211" on="1"/>
        <pt x="455" y="211" on="1"/>
        <pt x="455" y="152" on="0"/>
        <pt x="514" y="96" on="0"/>
        <pt x="614" y="96" on="0"/>
        <pt x="696" y="120" on="1"/>
      </contour>
      <contour>
        <pt x="603" y="303" on="1"/>
        <pt x="603" y="310" on="1"/>
        <pt x="603" y="412" on="0"/>
        <pt x="530" y="412" on="1"/>
        <pt x="492" y="412" on="0"/>
        <pt x="455" y="350" on="0"/>
        <pt x="454" y="303" on="1"/>
      </contour>
    </TTGlyph>
    <TTGlyph name="agrave" xMin="40" yMin="-7" xMax="442" yMax="736">
      <component glyphName="a" x="0" y="0" flags="0x1004"/>
      <component glyphName="grave" x="75" y="0" flags="0x1004"/>
    </TTGlyph>
    <TTGlyph name="ampersand" xMin="49" yMin="-7" xMax="725" yMax="710">
      <contour>
        <pt x="517" y="361" on="1"/>
        <pt x="629" y="361" on="1"/>
        <pt x="621" y="245" on="0"/>
        <pt x="603" y="195" on="1"/>
        <pt x="596" y="176" on="0"/>
        <pt x="582" y="147" on="1"/>
        <pt x="725" y="1" on="1"/>
        <pt x="555" y="1" on="1"/>
        <pt x="503" y="50" on="1"/>
        <pt x="470" y="26" on="0"/>
        <pt x="354" y="-7" on="0"/>
        <pt x="294" y="-7" on="1"/>
        <pt x="175" y="-7" on="0"/>
        <pt x="49" y="101" on="0"/>
        <pt x="49" y="193" on="1"/>
        <pt x="49" y="279" on="0"/>
        <pt x="104" y="327" on="1"/>
        <pt x="128" y="348" on="0"/>
        <pt x="171" y="374" on="1"/>
        <pt x="127" y="426" on="0"/>
        <pt x="86" y="501" on="0"/>
        <pt x="86" y="539" on="1"/>
        <pt x="86" y="614" on="0"/>
        <pt x="200" y="710" on="0"/>
        <pt x="378" y="710" on="0"/>
        <pt x="485" y="621" on="0"/>
        <pt x="485" y="493" on="0"/>
        <pt x="424" y="407" on="0"/>
        <pt x="356" y="365" on="1"/>
        <pt x="495" y="231" on="1"/>
        <pt x="517" y="278" on="0"/>
      </contour>
      <contour>
        <pt x="416" y="138" on="1"/>
        <pt x="261" y="294" on="1"/>
        <pt x="174" y="249" on="0"/>
        <pt x="174" y="187" on="1"/>
        <pt x="174" y="147" on="0"/>
        <pt x="239" y="98" on="0"/>
        <pt x="331" y="98" on="0"/>
        <pt x="401" y="123" on="0"/>
      </contour>
      <contour>
        <pt x="217" y="522" on="1"/>
        <pt x="226" y="504" on="1"/>
        <pt x="229" y="498" on="0"/>
        <pt x="237" y="488" on="1"/>
        <pt x="249" y="473" on="1"/>
        <pt x="253" y="468" on="0"/>
        <pt x="273" y="444" on="0"/>
        <pt x="277" y="439" on="1"/>
        <pt x="363" y="489" on="0"/>
        <pt x="363" y="555" on="1"/>
        <pt x="363" y="580" on="0"/>
        <pt x="319" y="605" on="0"/>
        <pt x="253" y="605" on="0"/>
        <pt x="211" y="578" on="0"/>
        <pt x="211" y="534" on="0"/>
      </contour>
    </TTGlyph>
    <TTGlyph name="approxequal" xMin="54" yMin="101" xMax="513" yMax="486">
      <contour>
        <pt x="513" y="403" on="1"/>
        <pt x="494" y="359" on="0"/>
        <pt x="426" y="311" on="0"/>
        <pt x="337" y="311" on="0"/>
        <pt x="224" y="370" on="0"/>
        <pt x="145" y="370" on="0"/>
        <pt x="99" y="331" on="1"/>
        <pt x="54" y="413" on="1"/>
        <pt x="76" y="444" on="0"/>
        <pt x="150" y="486" on="0"/>
        <pt x="240" y="486" on="0"/>
        <pt x="353" y="426" on="0"/>
        <pt x="427" y="426" on="0"/>
        <pt x="468" y="462" on="1"/>
      </contour>
      <contour>
        <pt x="513" y="193" on="1"/>
        <pt x="494" y="149" on="0"/>
        <pt x="426" y="101" on="0"/>
        <pt x="337" y="101" on="0"/>
        <pt x="224" y="160" on="0"/>
        <pt x="145" y="160" on="0"/>
        <pt x="99" y="121" on="1"/>
        <pt x="54" y="203" on="1"/>
        <pt x="76" y="234" on="0"/>
        <pt x="150" y="276" on="0"/>
        <pt x="240" y="276" on="0"/>
        <pt x="353" y="216" on="0"/>
        <pt x="427" y="216" on="0"/>
        <pt x="468" y="252" on="1"/>
      </contour>
    </TTGlyph>
    <TTGlyph name="aring" xMin="40" yMin="-7" xMax="442" yMax="772">
      <component glyphName="a" x="0" y="0" flags="0x1004"/>
      <component glyphName="ring" x="65" y="0" flags="0x1004"/>
    </TTGlyph>
    <TTGlyph name="arrowdown" xMin="85" yMin="-54" xMax="619" yMax="597">
      <contour>
        <pt x="619" y="224" on="1"/>
        <pt x="344" y="-54" on="1"/>
        <pt x="85" y="221" on="1"/>
        <pt x="168" y="304" on="1"/>
        <pt x="291" y="172" on="1"/>
        <pt x="291" y="597" on="1"/>
        <pt x="406" y="597" on="1"/>
        <pt x="406" y="172" on="1"/>
        <pt x="537" y="308" on="1"/>
      </contour>
    </TTGlyph>
    <TTGlyph name="arrowleft" xMin="27" yMin="44" xMax="718" yMax="578">
      <contour>
        <pt x="305" y="44" on="1"/>
        <pt x="27" y="319" on="1"/>
        <pt x="302" y="578" on="1"/>
        <pt x="385" y="495" on="1"/>
        <pt x="253" y="372" on="1"/>
        <pt x="718" y="372" on="1"/>
        <pt x="718" y="257" on="1"/>
        <pt x="253" y="257" on="1"/>
        <pt x="389" y="126" on="1"/>
      </contour>
    </TTGlyph>
    <TTGlyph name="arrowright" xMin="27" yMin="44" xMax="718" yMax="578">
      <contour>
        <pt x="718" y="319" on="1"/>
        <pt x="440" y="44" on="1"/>
        <pt x="356" y="126" on="1"/>
        <pt x="492" y="257" on="1"/>
        <pt x="27" y="257" on="1"/>
        <pt x="27" y="372" on="1"/>
        <pt x="492" y="372" on="1"/>
        <pt x="360" y="495" on="1"/>
        <pt x="443" y="578" on="1"/>
      </contour>
    </TTGlyph>
    <TTGlyph name="arrowup" xMin="85" yMin="-28" xMax="619" yMax="623">
      <contour>
        <pt x="85" y="345" on="1"/>
        <pt x="360" y="623" on="1"/>
        <pt x="619" y="348" on="1"/>
        <pt x="536" y="265" on="1"/>
        <pt x="413" y="397" on="1"/>
        <pt x="413" y="-28" on="1"/>
        <pt x="298" y="-28" on="1"/>
        <pt x="298" y="397" on="1"/>
        <pt x="167" y="261" on="1"/>
      </contour>
    </TTGlyph>
    <TTGlyph name="asciicircum" xMin="56" yMin="275" xMax="581" yMax="667">
      <contour>
        <pt x="377" y="667" on="1"/>
        <pt x="581" y="275" on="1"/>
        <pt x="444" y="275" on="1"/>
        <pt x="319" y="524" on="1"/>
        <pt x="196" y="275" on="1"/>
        <pt x="56" y="275" on="1"/>
        <pt x="261" y="667" on="1"/>
      </contour>
    </TTGlyph>
    <TTGlyph name="asciitilde" xMin="44" yMin="201" xMax="493" yMax="376">
      <contour>
        <pt x="493" y="283" on="1"/>
        <pt x="472" y="244" on="0"/>
        <pt x="399" y="201" on="0"/>
        <pt x="310" y="201" on="0"/>
        <pt x="202" y="260" on="0"/>
        <pt x="130" y="260" on="0"/>
        <pt x="89" y="221" on="1"/>
        <pt x="44" y="303" on="1"/>
        <pt x="65" y="334" on="0"/>
        <pt x="133" y="376" on="0"/>
        <pt x="217" y="376" on="0"/>
        <pt x="325" y="316" on="0"/>
        <pt x="397" y="316" on="0"/>
        <pt x="438" y="352" on="1"/>
      </contour>
    </TTGlyph>
    <TTGlyph name="asterisk" xMin="20" yMin="343" xMax="388" yMax="710">
      <contour>
        <pt x="164" y="596" on="1"/>
        <pt x="162" y="638" on="0"/>
        <pt x="156" y="710" on="1"/>
        <pt x="256" y="710" on="1"/>
        <pt x="245" y="596" on="1"/>
        <pt x="341" y="661" on="1"/>
        <pt x="388" y="572" on="1"/>
        <pt x="287" y="527" on="1"/>
        <pt x="388" y="481" on="1"/>
        <pt x="341" y="392" on="1"/>
        <pt x="245" y="456" on="1"/>
        <pt x="256" y="343" on="1"/>
        <pt x="156" y="343" on="1"/>
        <pt x="164" y="457" on="1"/>
        <pt x="69" y="393" on="1"/>
        <pt x="20" y="476" on="1"/>
        <pt x="124" y="526" on="1"/>
        <pt x="21" y="576" on="1"/>
        <pt x="74" y="661" on="1"/>
      </contour>
    </TTGlyph>
    <TTGlyph name="at" xMin="66" yMin="-119" xMax="840" yMax="710">
      <contour>
        <pt x="500" y="216" on="1"/>
        <pt x="533" y="394" on="1"/>
        <pt x="532" y="394" on="0"/>
        <pt x="500" y="411" on="0"/>
        <pt x="480" y="411" on="1"/>
        <pt x="422" y="411" on="0"/>
        <pt x="352" y="296" on="0"/>
        <pt x="352" y="225" on="1"/>
        <pt x="352" y="175" on="0"/>
        <pt x="400" y="175" on="1"/>
        <pt x="426" y="175" on="0"/>
        <pt x="465" y="193" on="0"/>
      </contour>
      <contour>
        <pt x="505" y="81" on="1"/>
        <pt x="497" y="117" on="1"/>
        <pt x="438" y="76" on="0"/>
        <pt x="320" y="76" on="0"/>
        <pt x="250" y="154" on="0"/>
        <pt x="250" y="291" on="0"/>
        <pt x="294" y="411" on="0"/>
        <pt x="328" y="445" on="1"/>
        <pt x="400" y="515" on="0"/>
        <pt x="474" y="515" on="1"/>
        <pt x="510" y="515" on="0"/>
        <pt x="546" y="497" on="0"/>
        <pt x="571" y="479" on="0"/>
        <pt x="572" y="479" on="1"/>
        <pt x="588" y="504" on="1"/>
        <pt x="659" y="504" on="1"/>
        <pt x="596" y="175" on="1"/>
        <pt x="735" y="175" on="0"/>
        <pt x="735" y="398" on="1"/>
        <pt x="735" y="605" on="0"/>
        <pt x="476" y="605" on="1"/>
        <pt x="320" y="605" on="0"/>
        <pt x="176" y="419" on="0"/>
        <pt x="176" y="232" on="1"/>
        <pt x="176" y="102" on="0"/>
        <pt x="283" y="-17" on="0"/>
        <pt x="402" y="-17" on="1"/>
        <pt x="573" y="-17" on="1"/>
        <pt x="577" y="-111" on="1"/>
        <pt x="492" y="-119" on="0"/>
        <pt x="398" y="-119" on="1"/>
        <pt x="66" y="-119" on="0"/>
        <pt x="66" y="209" on="1"/>
        <pt x="66" y="710" on="0"/>
        <pt x="477" y="710" on="1"/>
        <pt x="840" y="710" on="0"/>
        <pt x="840" y="394" on="1"/>
        <pt x="840" y="220" on="0"/>
        <pt x="670" y="81" on="0"/>
      </contour>
    </TTGlyph>
    <TTGlyph name="atilde" xMin="40" yMin="-7" xMax="455" yMax="718">
      <contour>
        <pt x="346" y="0" on="1"/>
        <pt x="326" y="50" on="1"/>
        <pt x="291" y="18" on="0"/>
        <pt x="237" y="-7" on="0"/>
        <pt x="199" y="-7" on="1"/>
        <pt x="135" y="-7" on="0"/>
        <pt x="40" y="82" on="0"/>
        <pt x="40" y="230" on="0"/>
        <pt x="156" y="315" on="0"/>
        <pt x="273" y="315" on="1"/>
        <pt x="314" y="315" on="1"/>
        <pt x="314" y="358" on="0"/>
        <pt x="273" y="410" on="0"/>
        <pt x="231" y="410" on="1"/>
        <pt x="158" y="410" on="0"/>
        <pt x="83" y="390" on="1"/>
        <pt x="61" y="478" on="1"/>
        <pt x="160" y="510" on="0"/>
        <pt x="260" y="510" on="1"/>
        <pt x="442" y="510" on="0"/>
        <pt x="442" y="340" on="1"/>
        <pt x="442" y="0" on="1"/>
      </contour>
      <contour>
        <pt x="312" y="219" on="1"/>
        <pt x="269" y="219" on="1"/>
        <pt x="213" y="219" on="0"/>
        <pt x="173" y="189" on="0"/>
        <pt x="173" y="132" on="0"/>
        <pt x="203" y="96" on="0"/>
        <pt x="227" y="96" on="1"/>
        <pt x="261" y="96" on="0"/>
        <pt x="312" y="150" on="1"/>
      </contour>
      <contour>
        <pt x="392" y="708" on="1"/>
        <pt x="455" y="661" on="1"/>
        <pt x="454" y="656" on="0"/>
        <pt x="414" y="613" on="0"/>
        <pt x="353" y="569" on="0"/>
        <pt x="306" y="569" on="0"/>
        <pt x="202" y="620" on="0"/>
        <pt x="182" y="620" on="0"/>
        <pt x="151" y="598" on="0"/>
        <pt x="141" y="588" on="1"/>
        <pt x="131" y="577" on="1"/>
        <pt x="74" y="633" on="1"/>
        <pt x="82" y="643" on="0"/>
        <pt x="107" y="671" on="0"/>
        <pt x="171" y="718" on="0"/>
        <pt x="219" y="718" on="0"/>
        <pt x="321" y="667" on="0"/>
        <pt x="332" y="667" on="1"/>
        <pt x="351" y="667" on="0"/>
        <pt x="382" y="698" on="1"/>
      </contour>
    </TTGlyph>
    <TTGlyph name="b" xMin="81" yMin="0" xMax="514" yMax="700">
      <contour>
        <pt x="421" y="510" on="0"/>
        <pt x="514" y="379" on="0"/>
        <pt x="514" y="132" on="0"/>
        <pt x="408" y="0" on="0"/>
        <pt x="325" y="0" on="1"/>
        <pt x="261" y="0" on="0"/>
        <pt x="199" y="56" on="1"/>
        <pt x="180" y="0" on="1"/>
        <pt x="81" y="0" on="1"/>
        <pt x="81" y="700" on="1"/>
        <pt x="211" y="700" on="1"/>
        <pt x="211" y="454" on="1"/>
        <pt x="288" y="510" on="0"/>
        <pt x="344" y="510" on="1"/>
      </contour>
      <contour>
        <pt x="386" y="255" on="1"/>
        <pt x="386" y="394" on="0"/>
        <pt x="302" y="394" on="1"/>
        <pt x="264" y="394" on="0"/>
        <pt x="211" y="349" on="1"/>
        <pt x="211" y="156" on="1"/>
        <pt x="264" y="111" on="0"/>
        <pt x="339" y="111" on="0"/>
        <pt x="386" y="183" on="0"/>
      </contour>
    </TTGlyph>
    <TTGlyph name="backslash" xMin="29" yMin="-145" xMax="453" yMax="800">
      <contour>
        <pt x="323" y="-145" on="1"/>
        <pt x="29" y="800" on="1"/>
        <pt x="158" y="800" on="1"/>
        <pt x="453" y="-145" on="1"/>
      </contour>
    </TTGlyph>
    <TTGlyph name="bar" xMin="88" yMin="-203" xMax="203" yMax="800">
      <contour>
        <pt x="203" y="-203" on="1"/>
        <pt x="88" y="-203" on="1"/>
        <pt x="88" y="800" on="1"/>
        <pt x="203" y="800" on="1"/>
      </contour>
    </TTGlyph>
    <TTGlyph name="braceleft" xMin="20" yMin="-201" xMax="336" yMax="801">
      <contour>
        <pt x="97" y="145" on="1"/>
        <pt x="97" y="248" on="0"/>
        <pt x="20" y="248" on="1"/>
        <pt x="20" y="354" on="1"/>
        <pt x="64" y="354" on="0"/>
        <pt x="97" y="401" on="0"/>
        <pt x="97" y="451" on="1"/>
        <pt x="97" y="601" on="1"/>
        <pt x="97" y="801" on="0"/>
        <pt x="305" y="801" on="1"/>
        <pt x="336" y="801" on="1"/>
        <pt x="336" y="697" on="1"/>
        <pt x="306" y="697" on="1"/>
        <pt x="259" y="697" on="0"/>
        <pt x="226" y="651" on="0"/>
        <pt x="226" y="591" on="1"/>
        <pt x="226" y="438" on="1"/>
        <pt x="226" y="369" on="0"/>
        <pt x="198" y="317" on="0"/>
        <pt x="150" y="304" on="1"/>
        <pt x="194" y="295" on="0"/>
        <pt x="226" y="235" on="0"/>
        <pt x="226" y="172" on="1"/>
        <pt x="226" y="21" on="1"/>
        <pt x="226" y="-49" on="0"/>
        <pt x="262" y="-97" on="0"/>
        <pt x="309" y="-97" on="1"/>
        <pt x="336" y="-97" on="1"/>
        <pt x="336" y="-201" on="1"/>
        <pt x="303" y="-201" on="1"/>
        <pt x="204" y="-201" on="0"/>
        <pt x="97" y="-111" on="0"/>
        <pt x="97" y="-5" on="1"/>
      </contour>
    </TTGlyph>
    <TTGlyph name="braceright" xMin="20" yMin="-201" xMax="336" yMax="801">
      <contour>
        <pt x="259" y="455" on="1"/>
        <pt x="259" y="352" on="0"/>
        <pt x="336" y="352" on="1"/>
        <pt x="336" y="246" on="1"/>
        <pt x="292" y="246" on="0"/>
        <pt x="259" y="199" on="0"/>
        <pt x="259" y="149" on="1"/>
        <pt x="259" y="-1" on="1"/>
        <pt x="259" y="-201" on="0"/>
        <pt x="51" y="-201" on="1"/>
        <pt x="20" y="-201" on="1"/>
        <pt x="20" y="-97" on="1"/>
        <pt x="50" y="-97" on="1"/>
        <pt x="97" y="-97" on="0"/>
        <pt x="130" y="-51" on="0"/>
        <pt x="130" y="9" on="1"/>
        <pt x="130" y="162" on="1"/>
        <pt x="130" y="231" on="0"/>
        <pt x="158" y="283" on="0"/>
        <pt x="206" y="296" on="1"/>
        <pt x="162" y="305" on="0"/>
        <pt x="130" y="365" on="0"/>
        <pt x="130" y="428" on="1"/>
        <pt x="130" y="579" on="1"/>
        <pt x="130" y="649" on="0"/>
        <pt x="94" y="697" on="0"/>
        <pt x="47" y="697" on="1"/>
        <pt x="20" y="697" on="1"/>
        <pt x="20" y="801" on="1"/>
        <pt x="53" y="801" on="1"/>
        <pt x="152" y="801" on="0"/>
        <pt x="259" y="711" on="0"/>
        <pt x="259" y="605" on="1"/>
      </contour>
    </TTGlyph>
    <TTGlyph name="bracketleft" xMin="81" yMin="-200" xMax="311" yMax="800">
      <contour>
        <pt x="311" y="-200" on="1"/>
        <pt x="81" y="-200" on="1"/>
        <pt x="81" y="800" on="1"/>
        <pt x="308" y="800" on="1"/>
        <pt x="308" y="695" on="1"/>
        <pt x="206" y="695" on="1"/>
        <pt x="206" y="-96" on="1"/>
        <pt x="311" y="-96" on="1"/>
      </contour>
    </TTGlyph>
    <TTGlyph name="bracketright" xMin="29" yMin="-200" xMax="259" yMax="800">
      <contour>
        <pt x="259" y="-200" on="1"/>
        <pt x="29" y="-200" on="1"/>
        <pt x="29" y="-96" on="1"/>
        <pt x="134" y="-96" on="1"/>
        <pt x="134" y="695" on="1"/>
        <pt x="32" y="695" on="1"/>
        <pt x="32" y="800" on="1"/>
        <pt x="259" y="800" on="1"/>
      </contour>
    </TTGlyph>
    <TTGlyph name="breve" xMin="66" yMin="-25" xMax="334" yMax="115">
      <contour>
        <pt x="200" y="63" on="1"/>
        <pt x="250" y="63" on="0"/>
        <pt x="250" y="115" on="1"/>
        <pt x="334" y="115" on="1"/>
        <pt x="334" y="102" on="1"/>
        <pt x="334" y="42" on="0"/>
        <pt x="266" y="-25" on="0"/>
        <pt x="134" y="-25" on="0"/>
        <pt x="66" y="42" on="0"/>
        <pt x="66" y="102" on="1"/>
        <pt x="66" y="115" on="1"/>
        <pt x="150" y="115" on="1"/>
        <pt x="150" y="87" on="0"/>
        <pt x="174" y="63" on="0"/>
      </contour>
    </TTGlyph>
    <TTGlyph name="brokenbar" xMin="88" yMin="-203" xMax="203" yMax="800">
      <contour>
        <pt x="203" y="413" on="1"/>
        <pt x="88" y="413" on="1"/>
        <pt x="88" y="800" on="1"/>
        <pt x="203" y="800" on="1"/>
      </contour>
      <contour>
        <pt x="88" y="201" on="1"/>
        <pt x="203" y="201" on="1"/>
        <pt x="203" y="-203" on="1"/>
        <pt x="88" y="-203" on="1"/>
      </contour>
    </TTGlyph>
    <TTGlyph name="bullet" xMin="79" yMin="116" xMax="377" yMax="414">
      <contour>
        <pt x="290" y="414" on="0"/>
        <pt x="377" y="327" on="0"/>
        <pt x="377" y="202" on="0"/>
        <pt x="290" y="116" on="0"/>
        <pt x="166" y="116" on="0"/>
        <pt x="79" y="202" on="0"/>
        <pt x="79" y="327" on="0"/>
        <pt x="166" y="414" on="0"/>
      </contour>
    </TTGlyph>
    <TTGlyph name="c" xMin="35" yMin="-6" xMax="407" yMax="510">
      <contour>
        <pt x="391" y="109" on="1"/>
        <pt x="407" y="19" on="1"/>
        <pt x="320" y="-6" on="0"/>
        <pt x="269" y="-6" on="1"/>
        <pt x="145" y="-6" on="0"/>
        <pt x="35" y="124" on="0"/>
        <pt x="35" y="373" on="0"/>
        <pt x="149" y="510" on="0"/>
        <pt x="258" y="510" on="1"/>
        <pt x="322" y="510" on="0"/>
        <pt x="404" y="486" on="1"/>
        <pt x="357" y="395" on="1"/>
        <pt x="302" y="412" on="0"/>
        <pt x="230" y="412" on="0"/>
        <pt x="189" y="384" on="0"/>
        <pt x="180" y="358" on="1"/>
        <pt x="165" y="315" on="0"/>
        <pt x="165" y="166" on="0"/>
        <pt x="227" y="96" on="0"/>
        <pt x="345" y="96" on="0"/>
      </contour>
    </TTGlyph>
    <TTGlyph name="caron" xMin="75" yMin="676" xMax="416" yMax="830">
      <contour>
        <pt x="288" y="676" on="1"/>
        <pt x="201" y="676" on="1"/>
        <pt x="75" y="766" on="1"/>
        <pt x="119" y="830" on="1"/>
        <pt x="245" y="765" on="1"/>
        <pt x="372" y="830" on="1"/>
        <pt x="416" y="766" on="1"/>
      </contour>
    </TTGlyph>
    <TTGlyph name="ccedilla" xMin="35" yMin="-177" xMax="407" yMax="510">
      <contour>
        <pt x="391" y="109" on="1"/>
        <pt x="407" y="19" on="1"/>
        <pt x="344" y="0" on="0"/>
        <pt x="312" y="-3" on="1"/>
        <pt x="311" y="-50" on="0"/>
        <pt x="288" y="-113" on="0"/>
        <pt x="249" y="-177" on="1"/>
        <pt x="160" y="-146" on="1"/>
        <pt x="186" y="-93" on="0"/>
        <pt x="201" y="-44" on="0"/>
        <pt x="201" y="0" on="1"/>
        <pt x="113" y="17" on="0"/>
        <pt x="35" y="142" on="0"/>
        <pt x="35" y="373" on="0"/>
        <pt x="149" y="510" on="0"/>
        <pt x="258" y="510" on="1"/>
        <pt x="322" y="510" on="0"/>
        <pt x="404" y="486" on="1"/>
        <pt x="357" y="395" on="1"/>
        <pt x="302" y="412" on="0"/>
        <pt x="230" y="412" on="0"/>
        <pt x="189" y="384" on="0"/>
        <pt x="180" y="358" on="1"/>
        <pt x="165" y="315" on="0"/>
        <pt x="165" y="166" on="0"/>
        <pt x="227" y="96" on="0"/>
        <pt x="345" y="96" on="0"/>
      </contour>
    </TTGlyph>
    <TTGlyph name="cedilla" xMin="140" yMin="-177" xMax="292" yMax="0">
      <contour>
        <pt x="292" y="0" on="1"/>
        <pt x="292" y="-48" on="0"/>
        <pt x="269" y="-112" on="0"/>
        <pt x="229" y="-177" on="1"/>
        <pt x="140" y="-146" on="1"/>
        <pt x="166" y="-93" on="0"/>
        <pt x="181" y="-44" on="0"/>
        <pt x="181" y="0" on="1"/>
      </contour>
    </TTGlyph>
    <TTGlyph name="cent" xMin="24" yMin="0" xMax="349" yMax="606">
      <contour>
        <pt x="325" y="213" on="1"/>
        <pt x="348" y="110" on="1"/>
        <pt x="292" y="92" on="0"/>
        <pt x="243" y="92" on="1"/>
        <pt x="243" y="0" on="1"/>
        <pt x="138" y="0" on="1"/>
        <pt x="138" y="94" on="1"/>
        <pt x="24" y="130" on="0"/>
        <pt x="24" y="476" on="0"/>
        <pt x="138" y="509" on="1"/>
        <pt x="138" y="606" on="1"/>
        <pt x="243" y="606" on="1"/>
        <pt x="243" y="510" on="1"/>
        <pt x="290" y="510" on="0"/>
        <pt x="349" y="491" on="1"/>
        <pt x="318" y="391" on="1"/>
        <pt x="279" y="404" on="0"/>
        <pt x="182" y="404" on="0"/>
        <pt x="139" y="360" on="0"/>
        <pt x="139" y="249" on="0"/>
        <pt x="178" y="198" on="0"/>
        <pt x="268" y="198" on="0"/>
      </contour>
    </TTGlyph>
    <TTGlyph name="circumflex" xMin="75" yMin="676" xMax="416" yMax="830">
      <contour>
        <pt x="203" y="830" on="1"/>
        <pt x="290" y="830" on="1"/>
        <pt x="416" y="740" on="1"/>
        <pt x="372" y="676" on="1"/>
        <pt x="246" y="741" on="1"/>
        <pt x="119" y="676" on="1"/>
        <pt x="75" y="740" on="1"/>
      </contour>
    </TTGlyph>
    <TTGlyph name="colon" xMin="46" yMin="0" xMax="171" yMax="500">
      <contour>
        <pt x="171" y="0" on="1"/>
        <pt x="46" y="0" on="1"/>
        <pt x="46" y="146" on="1"/>
        <pt x="171" y="146" on="1"/>
      </contour>
      <contour>
        <pt x="171" y="354" on="1"/>
        <pt x="46" y="354" on="1"/>
        <pt x="46" y="500" on="1"/>
        <pt x="171" y="500" on="1"/>
      </contour>
    </TTGlyph>
    <TTGlyph name="comma" xMin="0" yMin="-178" xMax="212" yMax="111">
      <contour>
        <pt x="212" y="70" on="1"/>
        <pt x="99" y="-178" on="1"/>
        <pt x="0" y="-146" on="1"/>
        <pt x="87" y="111" on="1"/>
      </contour>
    </TTGlyph>
    <TTGlyph name="copyright" xMin="46" yMin="-19" xMax="504" yMax="529">
      <contour>
        <pt x="351" y="192" on="1"/>
        <pt x="366" y="123" on="1"/>
        <pt x="319" y="109" on="0"/>
        <pt x="281" y="109" on="1"/>
        <pt x="216" y="109" on="0"/>
        <pt x="151" y="187" on="0"/>
        <pt x="151" y="324" on="0"/>
        <pt x="218" y="396" on="0"/>
        <pt x="284" y="396" on="1"/>
        <pt x="312" y="396" on="0"/>
        <pt x="327" y="392" on="1"/>
        <pt x="357" y="382" on="0"/>
        <pt x="369" y="378" on="1"/>
        <pt x="343" y="313" on="1"/>
        <pt x="324" y="322" on="0"/>
        <pt x="263" y="322" on="0"/>
        <pt x="242" y="294" on="0"/>
        <pt x="242" y="259" on="1"/>
        <pt x="242" y="182" on="0"/>
        <pt x="290" y="182" on="1"/>
        <pt x="322" y="182" on="0"/>
      </contour>
      <contour>
        <pt x="340" y="459" on="0"/>
        <pt x="200" y="459" on="0"/>
        <pt x="131" y="345" on="0"/>
        <pt x="131" y="163" on="0"/>
        <pt x="208" y="51" on="0"/>
        <pt x="343" y="51" on="0"/>
        <pt x="419" y="157" on="0"/>
        <pt x="419" y="344" on="0"/>
      </contour>
      <contour>
        <pt x="382" y="-19" on="0"/>
        <pt x="162" y="-19" on="0"/>
        <pt x="46" y="127" on="0"/>
        <pt x="46" y="383" on="0"/>
        <pt x="158" y="529" on="0"/>
        <pt x="378" y="529" on="0"/>
        <pt x="504" y="381" on="0"/>
        <pt x="504" y="128" on="0"/>
      </contour>
    </TTGlyph>
    <TTGlyph name="currency" xMin="35" yMin="22" xMax="575" yMax="564">
      <contour>
        <pt x="420" y="81" on="1"/>
        <pt x="374" y="61" on="0"/>
        <pt x="226" y="61" on="0"/>
        <pt x="181" y="85" on="1"/>
        <pt x="126" y="30" on="1"/>
        <pt x="41" y="116" on="1"/>
        <pt x="99" y="174" on="1"/>
        <pt x="76" y="225" on="0"/>
        <pt x="76" y="358" on="0"/>
        <pt x="94" y="409" on="1"/>
        <pt x="35" y="469" on="1"/>
        <pt x="128" y="562" on="1"/>
        <pt x="182" y="508" on="1"/>
        <pt x="225" y="529" on="0"/>
        <pt x="376" y="529" on="0"/>
        <pt x="426" y="501" on="1"/>
        <pt x="489" y="564" on="1"/>
        <pt x="575" y="478" on="1"/>
        <pt x="509" y="412" on="1"/>
        <pt x="534" y="366" on="0"/>
        <pt x="534" y="228" on="0"/>
        <pt x="511" y="177" on="1"/>
        <pt x="573" y="115" on="1"/>
        <pt x="480" y="22" on="1"/>
      </contour>
      <contour>
        <pt x="414" y="350" on="0"/>
        <pt x="354" y="424" on="0"/>
        <pt x="249" y="424" on="0"/>
        <pt x="196" y="349" on="0"/>
        <pt x="196" y="237" on="0"/>
        <pt x="254" y="166" on="0"/>
        <pt x="355" y="166" on="0"/>
        <pt x="414" y="232" on="0"/>
      </contour>
    </TTGlyph>
    <TTGlyph name="d" xMin="32" yMin="-6" xMax="460" yMax="700">
      <contour>
        <pt x="460" y="0" on="1"/>
        <pt x="362" y="0" on="1"/>
        <pt x="342" y="57" on="1"/>
        <pt x="258" y="-6" on="0"/>
        <pt x="121" y="-6" on="0"/>
        <pt x="32" y="123" on="0"/>
        <pt x="32" y="376" on="0"/>
        <pt x="133" y="510" on="0"/>
        <pt x="215" y="510" on="1"/>
        <pt x="269" y="510" on="0"/>
        <pt x="331" y="460" on="1"/>
        <pt x="331" y="700" on="1"/>
        <pt x="460" y="700" on="1"/>
      </contour>
      <contour>
        <pt x="330" y="154" on="1"/>
        <pt x="330" y="353" on="1"/>
        <pt x="277" y="397" on="0"/>
        <pt x="205" y="397" on="0"/>
        <pt x="162" y="323" on="0"/>
        <pt x="162" y="250" on="1"/>
        <pt x="162" y="110" on="0"/>
        <pt x="238" y="110" on="1"/>
        <pt x="277" y="110" on="0"/>
      </contour>
    </TTGlyph>
    <TTGlyph name="dagger" xMin="45" yMin="0" xMax="475" yMax="750">
      <contour>
        <pt x="317" y="470" on="1"/>
        <pt x="317" y="0" on="1"/>
        <pt x="192" y="0" on="1"/>
        <pt x="192" y="470" on="1"/>
        <pt x="45" y="470" on="1"/>
        <pt x="45" y="575" on="1"/>
        <pt x="192" y="575" on="1"/>
        <pt x="192" y="750" on="1"/>
        <pt x="317" y="750" on="1"/>
        <pt x="317" y="575" on="1"/>
        <pt x="475" y="575" on="1"/>
        <pt x="475" y="470" on="1"/>
      </contour>
    </TTGlyph>
    <TTGlyph name="daggerdbl" xMin="45" yMin="0" xMax="475" yMax="750">
      <contour>
        <pt x="317" y="183" on="1"/>
        <pt x="317" y="0" on="1"/>
        <pt x="192" y="0" on="1"/>
        <pt x="192" y="183" on="1"/>
        <pt x="45" y="183" on="1"/>
        <pt x="45" y="288" on="1"/>
        <pt x="192" y="288" on="1"/>
        <pt x="192" y="470" on="1"/>
        <pt x="45" y="470" on="1"/>
        <pt x="45" y="575" on="1"/>
        <pt x="192" y="575" on="1"/>
        <pt x="192" y="750" on="1"/>
        <pt x="317" y="750" on="1"/>
        <pt x="317" y="575" on="1"/>
        <pt x="475" y="575" on="1"/>
        <pt x="475" y="470" on="1"/>
        <pt x="317" y="470" on="1"/>
        <pt x="317" y="288" on="1"/>
        <pt x="475" y="288" on="1"/>
        <pt x="475" y="183" on="1"/>
      </contour>
    </TTGlyph>
    <TTGlyph name="degree" xMin="58" yMin="444" xMax="392" yMax="776">
      <contour>
        <pt x="295" y="776" on="0"/>
        <pt x="392" y="680" on="0"/>
        <pt x="392" y="541" on="0"/>
        <pt x="294" y="444" on="0"/>
        <pt x="155" y="444" on="0"/>
        <pt x="58" y="540" on="0"/>
        <pt x="58" y="679" on="0"/>
        <pt x="156" y="776" on="0"/>
      </contour>
      <contour>
        <pt x="256" y="531" on="0"/>
        <pt x="301" y="578" on="0"/>
        <pt x="301" y="645" on="0"/>
        <pt x="256" y="692" on="0"/>
        <pt x="192" y="692" on="0"/>
        <pt x="147" y="645" on="0"/>
        <pt x="147" y="578" on="0"/>
        <pt x="192" y="531" on="0"/>
      </contour>
    </TTGlyph>
    <TTGlyph name="dieresis" xMin="78" yMin="694" xMax="418" yMax="825">
      <contour>
        <pt x="78" y="694" on="1"/>
        <pt x="78" y="825" on="1"/>
        <pt x="199" y="825" on="1"/>
        <pt x="199" y="694" on="1"/>
      </contour>
      <contour>
        <pt x="297" y="694" on="1"/>
        <pt x="297" y="825" on="1"/>
        <pt x="418" y="825" on="1"/>
        <pt x="418" y="694" on="1"/>
      </contour>
    </TTGlyph>
    <TTGlyph name="divide" xMin="46" yMin="0" xMax="478" yMax="500">
      <contour>
        <pt x="325" y="0" on="1"/>
        <pt x="210" y="0" on="1"/>
        <pt x="210" y="136" on="1"/>
        <pt x="325" y="136" on="1"/>
      </contour>
      <contour>
        <pt x="325" y="364" on="1"/>
        <pt x="210" y="364" on="1"/>
        <pt x="210" y="500" on="1"/>
        <pt x="325" y="500" on="1"/>
      </contour>
      <contour>
        <pt x="478" y="208" on="1"/>
        <pt x="46" y="208" on="1"/>
        <pt x="46" y="313" on="1"/>
        <pt x="478" y="313" on="1"/>
      </contour>
    </TTGlyph>
    <TTGlyph name="dollar" xMin="42" yMin="-60" xMax="470" yMax="747">
      <contour>
        <pt x="299" y="660" on="1"/>
        <pt x="357" y="651" on="0"/>
        <pt x="407" y="630" on="1"/>
        <pt x="425" y="623" on="1"/>
        <pt x="401" y="523" on="1"/>
        <pt x="355" y="541" on="1"/>
        <pt x="291" y="562" on="0"/>
        <pt x="244" y="562" on="1"/>
        <pt x="181" y="562" on="0"/>
        <pt x="181" y="498" on="1"/>
        <pt x="181" y="465" on="0"/>
        <pt x="241" y="422" on="0"/>
        <pt x="326" y="394" on="0"/>
        <pt x="410" y="357" on="0"/>
        <pt x="470" y="277" on="0"/>
        <pt x="470" y="138" on="0"/>
        <pt x="381" y="42" on="0"/>
        <pt x="299" y="32" on="1"/>
        <pt x="299" y="-60" on="1"/>
        <pt x="194" y="-60" on="1"/>
        <pt x="194" y="30" on="1"/>
        <pt x="113" y="35" on="0"/>
        <pt x="42" y="79" on="1"/>
        <pt x="74" y="169" on="1"/>
        <pt x="159" y="132" on="0"/>
        <pt x="243" y="132" on="1"/>
        <pt x="290" y="132" on="0"/>
        <pt x="344" y="176" on="0"/>
        <pt x="344" y="248" on="0"/>
        <pt x="284" y="291" on="0"/>
        <pt x="199" y="320" on="0"/>
        <pt x="114" y="358" on="0"/>
        <pt x="54" y="437" on="0"/>
        <pt x="54" y="569" on="0"/>
        <pt x="131" y="653" on="0"/>
        <pt x="194" y="660" on="1"/>
        <pt x="194" y="747" on="1"/>
        <pt x="299" y="747" on="1"/>
      </contour>
    </TTGlyph>
    <TTGlyph name="dotaccent" xMin="70" yMin="705" xMax="175" yMax="821">
      <contour>
        <pt x="175" y="705" on="1"/>
        <pt x="70" y="705" on="1"/>
        <pt x="70" y="821" on="1"/>
        <pt x="175" y="821" on="1"/>
      </contour>
    </TTGlyph>
    <TTGlyph name="dotlessi" xMin="77" yMin="0" xMax="207" yMax="500">
      <contour>
        <pt x="77" y="0" on="1"/>
        <pt x="77" y="500" on="1"/>
        <pt x="207" y="500" on="1"/>
        <pt x="207" y="0" on="1"/>
      </contour>
    </TTGlyph>
    <TTGlyph name="e" xMin="34" yMin="-6" xMax="455" yMax="510">
      <contour>
        <pt x="445" y="31" on="1"/>
        <pt x="350" y="-6" on="0"/>
        <pt x="269" y="-6" on="1"/>
        <pt x="34" y="-6" on="0"/>
        <pt x="34" y="248" on="1"/>
        <pt x="34" y="377" on="0"/>
        <pt x="148" y="510" on="0"/>
        <pt x="257" y="510" on="1"/>
        <pt x="347" y="510" on="0"/>
        <pt x="455" y="398" on="0"/>
        <pt x="455" y="288" on="1"/>
        <pt x="455" y="244" on="0"/>
        <pt x="451" y="211" on="1"/>
        <pt x="162" y="211" on="1"/>
        <pt x="162" y="152" on="0"/>
        <pt x="226" y="96" on="0"/>
        <pt x="334" y="96" on="0"/>
        <pt x="423" y="120" on="1"/>
      </contour>
      <contour>
        <pt x="330" y="303" on="1"/>
        <pt x="330" y="310" on="1"/>
        <pt x="330" y="356" on="0"/>
        <pt x="290" y="412" on="0"/>
        <pt x="204" y="412" on="0"/>
        <pt x="162" y="350" on="0"/>
        <pt x="161" y="303" on="1"/>
      </contour>
    </TTGlyph>
    <TTGlyph name="eacute" xMin="34" yMin="-6" xMax="455" yMax="736">
      <contour>
        <pt x="445" y="31" on="1"/>
        <pt x="350" y="-6" on="0"/>
        <pt x="269" y="-6" on="1"/>
        <pt x="34" y="-6" on="0"/>
        <pt x="34" y="248" on="1"/>
        <pt x="34" y="377" on="0"/>
        <pt x="148" y="510" on="0"/>
        <pt x="257" y="510" on="1"/>
        <pt x="347" y="510" on="0"/>
        <pt x="455" y="398" on="0"/>
        <pt x="455" y="288" on="1"/>
        <pt x="455" y="244" on="0"/>
        <pt x="451" y="211" on="1"/>
        <pt x="162" y="211" on="1"/>
        <pt x="162" y="152" on="0"/>
        <pt x="226" y="96" on="0"/>
        <pt x="334" y="96" on="0"/>
        <pt x="423" y="120" on="1"/>
      </contour>
      <contour>
        <pt x="330" y="303" on="1"/>
        <pt x="330" y="310" on="1"/>
        <pt x="330" y="356" on="0"/>
        <pt x="290" y="412" on="0"/>
        <pt x="204" y="412" on="0"/>
        <pt x="162" y="350" on="0"/>
        <pt x="161" y="303" on="1"/>
      </contour>
      <contour>
        <pt x="286" y="567" on="1"/>
        <pt x="198" y="599" on="1"/>
        <pt x="301" y="736" on="1"/>
        <pt x="416" y="690" on="1"/>
      </contour>
    </TTGlyph>
    <TTGlyph name="ecircumflex" xMin="34" yMin="-6" xMax="455" yMax="722">
      <contour>
        <pt x="445" y="31" on="1"/>
        <pt x="350" y="-6" on="0"/>
        <pt x="269" y="-6" on="1"/>
        <pt x="34" y="-6" on="0"/>
        <pt x="34" y="248" on="1"/>
        <pt x="34" y="377" on="0"/>
        <pt x="148" y="510" on="0"/>
        <pt x="257" y="510" on="1"/>
        <pt x="347" y="510" on="0"/>
        <pt x="455" y="398" on="0"/>
        <pt x="455" y="288" on="1"/>
        <pt x="455" y="244" on="0"/>
        <pt x="451" y="211" on="1"/>
        <pt x="162" y="211" on="1"/>
        <pt x="162" y="152" on="0"/>
        <pt x="226" y="96" on="0"/>
        <pt x="334" y="96" on="0"/>
        <pt x="423" y="120" on="1"/>
      </contour>
      <contour>
        <pt x="330" y="303" on="1"/>
        <pt x="330" y="310" on="1"/>
        <pt x="330" y="356" on="0"/>
        <pt x="290" y="412" on="0"/>
        <pt x="204" y="412" on="0"/>
        <pt x="162" y="350" on="0"/>
        <pt x="161" y="303" on="1"/>
      </contour>
      <contour>
        <pt x="212" y="722" on="1"/>
        <pt x="299" y="722" on="1"/>
        <pt x="425" y="632" on="1"/>
        <pt x="381" y="568" on="1"/>
        <pt x="255" y="633" on="1"/>
        <pt x="128" y="568" on="1"/>
        <pt x="84" y="632" on="1"/>
      </contour>
    </TTGlyph>
    <TTGlyph name="edieresis" xMin="34" yMin="-6" xMax="455" yMax="711">
      <contour>
        <pt x="445" y="31" on="1"/>
        <pt x="350" y="-6" on="0"/>
        <pt x="269" y="-6" on="1"/>
        <pt x="34" y="-6" on="0"/>
        <pt x="34" y="248" on="1"/>
        <pt x="34" y="377" on="0"/>
        <pt x="148" y="510" on="0"/>
        <pt x="257" y="510" on="1"/>
        <pt x="347" y="510" on="0"/>
        <pt x="455" y="398" on="0"/>
        <pt x="455" y="288" on="1"/>
        <pt x="455" y="244" on="0"/>
        <pt x="451" y="211" on="1"/>
        <pt x="162" y="211" on="1"/>
        <pt x="162" y="152" on="0"/>
        <pt x="226" y="96" on="0"/>
        <pt x="334" y="96" on="0"/>
        <pt x="423" y="120" on="1"/>
      </contour>
      <contour>
        <pt x="330" y="303" on="1"/>
        <pt x="330" y="310" on="1"/>
        <pt x="330" y="356" on="0"/>
        <pt x="290" y="412" on="0"/>
        <pt x="204" y="412" on="0"/>
        <pt x="162" y="350" on="0"/>
        <pt x="161" y="303" on="1"/>
      </contour>
      <contour>
        <pt x="91" y="580" on="1"/>
        <pt x="91" y="711" on="1"/>
        <pt x="212" y="711" on="1"/>
        <pt x="212" y="580" on="1"/>
      </contour>
      <contour>
        <pt x="310" y="580" on="1"/>
        <pt x="310" y="711" on="1"/>
        <pt x="431" y="711" on="1"/>
        <pt x="431" y="580" on="1"/>
      </contour>
    </TTGlyph>
    <TTGlyph name="egrave" xMin="34" yMin="-6" xMax="455" yMax="736">
      <contour>
        <pt x="445" y="31" on="1"/>
        <pt x="350" y="-6" on="0"/>
        <pt x="269" y="-6" on="1"/>
        <pt x="34" y="-6" on="0"/>
        <pt x="34" y="248" on="1"/>
        <pt x="34" y="377" on="0"/>
        <pt x="148" y="510" on="0"/>
        <pt x="257" y="510" on="1"/>
        <pt x="347" y="510" on="0"/>
        <pt x="455" y="398" on="0"/>
        <pt x="455" y="288" on="1"/>
        <pt x="455" y="244" on="0"/>
        <pt x="451" y="211" on="1"/>
        <pt x="162" y="211" on="1"/>
        <pt x="162" y="152" on="0"/>
        <pt x="226" y="96" on="0"/>
        <pt x="334" y="96" on="0"/>
        <pt x="423" y="120" on="1"/>
      </contour>
      <contour>
        <pt x="330" y="303" on="1"/>
        <pt x="330" y="310" on="1"/>
        <pt x="330" y="356" on="0"/>
        <pt x="290" y="412" on="0"/>
        <pt x="204" y="412" on="0"/>
        <pt x="162" y="350" on="0"/>
        <pt x="161" y="303" on="1"/>
      </contour>
      <contour>
        <pt x="326" y="599" on="1"/>
        <pt x="238" y="567" on="1"/>
        <pt x="108" y="690" on="1"/>
        <pt x="223" y="736" on="1"/>
      </contour>
    </TTGlyph>
    <TTGlyph name="eight" xMin="52" yMin="-6" xMax="531" yMax="710">
      <contour>
        <pt x="398" y="710" on="0"/>
        <pt x="513" y="613" on="0"/>
        <pt x="513" y="473" on="0"/>
        <pt x="456" y="372" on="0"/>
        <pt x="424" y="344" on="1"/>
        <pt x="475" y="316" on="0"/>
        <pt x="531" y="246" on="0"/>
        <pt x="531" y="194" on="1"/>
        <pt x="531" y="99" on="0"/>
        <pt x="401" y="-6" on="0"/>
        <pt x="168" y="-6" on="0"/>
        <pt x="52" y="104" on="0"/>
        <pt x="52" y="185" on="1"/>
        <pt x="52" y="277" on="0"/>
        <pt x="136" y="342" on="1"/>
        <pt x="152" y="355" on="0"/>
        <pt x="168" y="364" on="1"/>
        <pt x="75" y="421" on="0"/>
        <pt x="75" y="610" on="0"/>
        <pt x="196" y="710" on="0"/>
      </contour>
      <contour>
        <pt x="268" y="312" on="1"/>
        <pt x="167" y="258" on="0"/>
        <pt x="167" y="189" on="1"/>
        <pt x="167" y="148" on="0"/>
        <pt x="228" y="97" on="0"/>
        <pt x="345" y="97" on="0"/>
        <pt x="416" y="145" on="0"/>
        <pt x="416" y="185" on="1"/>
        <pt x="416" y="232" on="0"/>
        <pt x="372" y="262" on="1"/>
        <pt x="338" y="284" on="0"/>
      </contour>
      <contour>
        <pt x="400" y="530" on="1"/>
        <pt x="400" y="562" on="0"/>
        <pt x="344" y="605" on="0"/>
        <pt x="251" y="605" on="0"/>
        <pt x="188" y="563" on="0"/>
        <pt x="188" y="503" on="0"/>
        <pt x="208" y="463" on="0"/>
        <pt x="258" y="428" on="0"/>
        <pt x="291" y="411" on="0"/>
        <pt x="329" y="394" on="1"/>
        <pt x="400" y="455" on="0"/>
      </contour>
    </TTGlyph>
    <TTGlyph name="ellipsis" xMin="34" yMin="0" xMax="653" yMax="136">
      <contour>
        <pt x="401" y="0" on="1"/>
        <pt x="286" y="0" on="1"/>
        <pt x="286" y="136" on="1"/>
        <pt x="401" y="136" on="1"/>
      </contour>
      <contour>
        <pt x="149" y="0" on="1"/>
        <pt x="34" y="0" on="1"/>
        <pt x="34" y="136" on="1"/>
        <pt x="149" y="136" on="1"/>
      </contour>
      <contour>
        <pt x="149" y="0" on="1"/>
        <pt x="34" y="0" on="1"/>
        <pt x="34" y="136" on="1"/>
        <pt x="149" y="136" on="1"/>
      </contour>
      <contour>
        <pt x="653" y="0" on="1"/>
        <pt x="538" y="0" on="1"/>
        <pt x="538" y="136" on="1"/>
        <pt x="653" y="136" on="1"/>
      </contour>
    </TTGlyph>
    <TTGlyph name="emdash" xMin="0" yMin="237" xMax="800" yMax="342">
      <contour>
        <pt x="800" y="237" on="1"/>
        <pt x="0" y="237" on="1"/>
        <pt x="0" y="342" on="1"/>
        <pt x="800" y="342" on="1"/>
      </contour>
    </TTGlyph>
    <TTGlyph name="endash" xMin="0" yMin="237" xMax="500" yMax="342">
      <contour>
        <pt x="500" y="237" on="1"/>
        <pt x="0" y="237" on="1"/>
        <pt x="0" y="342" on="1"/>
        <pt x="500" y="342" on="1"/>
      </contour>
    </TTGlyph>
    <TTGlyph name="equal" xMin="65" yMin="153" xMax="515" yMax="436">
      <contour>
        <pt x="515" y="331" on="1"/>
        <pt x="65" y="331" on="1"/>
        <pt x="65" y="436" on="1"/>
        <pt x="515" y="436" on="1"/>
      </contour>
      <contour>
        <pt x="515" y="153" on="1"/>
        <pt x="65" y="153" on="1"/>
        <pt x="65" y="258" on="1"/>
        <pt x="515" y="258" on="1"/>
      </contour>
    </TTGlyph>
    <TTGlyph name="eth" xMin="63" yMin="-6" xMax="536" yMax="758">
      <contour>
        <pt x="401" y="328" on="0"/>
        <pt x="351" y="403" on="0"/>
        <pt x="242" y="403" on="0"/>
        <pt x="200" y="330" on="0"/>
        <pt x="200" y="252" on="1"/>
        <pt x="200" y="99" on="0"/>
        <pt x="297" y="99" on="1"/>
        <pt x="401" y="99" on="0"/>
        <pt x="401" y="252" on="1"/>
      </contour>
      <contour>
        <pt x="414" y="686" on="1"/>
        <pt x="322" y="638" on="1"/>
        <pt x="426" y="530" on="0"/>
        <pt x="469" y="469" on="1"/>
        <pt x="536" y="373" on="0"/>
        <pt x="536" y="133" on="0"/>
        <pt x="411" y="-6" on="0"/>
        <pt x="184" y="-6" on="0"/>
        <pt x="63" y="133" on="0"/>
        <pt x="63" y="375" on="0"/>
        <pt x="181" y="510" on="0"/>
        <pt x="298" y="511" on="1"/>
        <pt x="226" y="583" on="1"/>
        <pt x="137" y="533" on="1"/>
        <pt x="73" y="598" on="1"/>
        <pt x="166" y="651" on="1"/>
        <pt x="119" y="693" on="0"/>
        <pt x="106" y="703" on="1"/>
        <pt x="198" y="758" on="1"/>
        <pt x="259" y="701" on="1"/>
        <pt x="351" y="749" on="1"/>
      </contour>
    </TTGlyph>
    <TTGlyph name="exclam" xMin="68" yMin="0" xMax="198" yMax="700">
      <contour>
        <pt x="68" y="125" on="1"/>
        <pt x="198" y="125" on="1"/>
        <pt x="198" y="0" on="1"/>
        <pt x="68" y="0" on="1"/>
      </contour>
      <contour>
        <pt x="68" y="700" on="1"/>
        <pt x="198" y="700" on="1"/>
        <pt x="198" y="190" on="1"/>
        <pt x="68" y="190" on="1"/>
      </contour>
    </TTGlyph>
    <TTGlyph name="exclamdown" xMin="73" yMin="-106" xMax="203" yMax="594">
      <contour>
        <pt x="203" y="469" on="1"/>
        <pt x="73" y="469" on="1"/>
        <pt x="73" y="594" on="1"/>
        <pt x="203" y="594" on="1"/>
      </contour>
      <contour>
        <pt x="203" y="-106" on="1"/>
        <pt x="73" y="-106" on="1"/>
        <pt x="73" y="404" on="1"/>
        <pt x="203" y="404" on="1"/>
      </contour>
    </TTGlyph>
    <TTGlyph name="f" xMin="35" yMin="0" xMax="330" yMax="710">
      <contour>
        <pt x="330" y="701" on="1"/>
        <pt x="313" y="608" on="1"/>
        <pt x="288" y="613" on="0"/>
        <pt x="245" y="613" on="0"/>
        <pt x="221" y="587" on="0"/>
        <pt x="221" y="552" on="1"/>
        <pt x="221" y="500" on="1"/>
        <pt x="303" y="500" on="1"/>
        <pt x="303" y="393" on="1"/>
        <pt x="221" y="393" on="1"/>
        <pt x="221" y="0" on="1"/>
        <pt x="92" y="0" on="1"/>
        <pt x="92" y="393" on="1"/>
        <pt x="35" y="393" on="1"/>
        <pt x="35" y="500" on="1"/>
        <pt x="93" y="500" on="1"/>
        <pt x="93" y="576" on="1"/>
        <pt x="93" y="640" on="0"/>
        <pt x="166" y="710" on="0"/>
        <pt x="294" y="710" on="0"/>
      </contour>
    </TTGlyph>
    <TTGlyph name="fi" xMin="35" yMin="0" xMax="479" yMax="710">
      <contour>
        <pt x="479" y="0" on="1"/>
        <pt x="349" y="0" on="1"/>
        <pt x="349" y="393" on="1"/>
        <pt x="221" y="393" on="1"/>
        <pt x="221" y="0" on="1"/>
        <pt x="92" y="0" on="1"/>
        <pt x="92" y="393" on="1"/>
        <pt x="35" y="393" on="1"/>
        <pt x="35" y="500" on="1"/>
        <pt x="93" y="500" on="1"/>
        <pt x="93" y="576" on="1"/>
        <pt x="93" y="640" on="0"/>
        <pt x="166" y="710" on="0"/>
        <pt x="222" y="710" on="1"/>
        <pt x="301" y="710" on="0"/>
        <pt x="340" y="701" on="1"/>
        <pt x="323" y="608" on="1"/>
        <pt x="298" y="613" on="0"/>
        <pt x="250" y="613" on="0"/>
        <pt x="221" y="587" on="0"/>
        <pt x="221" y="552" on="1"/>
        <pt x="221" y="500" on="1"/>
        <pt x="479" y="500" on="1"/>
      </contour>
    </TTGlyph>
    <TTGlyph name="five" xMin="53" yMin="-6" xMax="514" yMax="700">
      <contour>
        <pt x="394" y="100" on="0"/>
        <pt x="394" y="340" on="0"/>
        <pt x="252" y="340" on="1"/>
        <pt x="90" y="341" on="1"/>
        <pt x="114" y="700" on="1"/>
        <pt x="491" y="700" on="1"/>
        <pt x="486" y="595" on="1"/>
        <pt x="228" y="595" on="1"/>
        <pt x="217" y="449" on="1"/>
        <pt x="239" y="450" on="0"/>
        <pt x="260" y="450" on="1"/>
        <pt x="375" y="450" on="0"/>
        <pt x="514" y="333" on="0"/>
        <pt x="514" y="121" on="0"/>
        <pt x="382" y="-6" on="0"/>
        <pt x="257" y="-6" on="1"/>
        <pt x="205" y="-6" on="0"/>
        <pt x="103" y="20" on="0"/>
        <pt x="78" y="34" on="1"/>
        <pt x="53" y="47" on="1"/>
        <pt x="91" y="140" on="1"/>
        <pt x="179" y="100" on="0"/>
        <pt x="252" y="100" on="1"/>
      </contour>
    </TTGlyph>
    <TTGlyph name="fl" xMin="35" yMin="0" xMax="479" yMax="711">
      <contour>
        <pt x="350" y="700" on="1"/>
        <pt x="479" y="711" on="1"/>
        <pt x="479" y="0" on="1"/>
        <pt x="349" y="0" on="1"/>
        <pt x="349" y="607" on="1"/>
        <pt x="306" y="613" on="0"/>
        <pt x="280" y="613" on="1"/>
        <pt x="221" y="613" on="0"/>
        <pt x="221" y="552" on="1"/>
        <pt x="221" y="500" on="1"/>
        <pt x="303" y="500" on="1"/>
        <pt x="303" y="393" on="1"/>
        <pt x="221" y="393" on="1"/>
        <pt x="221" y="0" on="1"/>
        <pt x="92" y="0" on="1"/>
        <pt x="92" y="393" on="1"/>
        <pt x="35" y="393" on="1"/>
        <pt x="35" y="500" on="1"/>
        <pt x="93" y="500" on="1"/>
        <pt x="93" y="576" on="1"/>
        <pt x="93" y="640" on="0"/>
        <pt x="166" y="710" on="0"/>
        <pt x="294" y="710" on="0"/>
      </contour>
    </TTGlyph>
    <TTGlyph name="flecha0" xMin="20" yMin="-79" xMax="384" yMax="653">
      <contour>
        <pt x="384" y="-79" on="1"/>
        <pt x="20" y="287" on="1"/>
        <pt x="384" y="653" on="1"/>
      </contour>
    </TTGlyph>
    <TTGlyph name="flecha01" xMin="80" yMin="-79" xMax="665" yMax="653">
      <contour>
        <pt x="80" y="-79" on="1"/>
        <pt x="80" y="653" on="1"/>
        <pt x="665" y="287" on="1"/>
      </contour>
      <contour>
        <pt x="195" y="136" on="1"/>
        <pt x="457" y="287" on="1"/>
        <pt x="195" y="438" on="1"/>
      </contour>
    </TTGlyph>
    <TTGlyph name="flecha02" xMin="80" yMin="-79" xMax="1016" yMax="653">
      <contour>
        <pt x="80" y="-79" on="1"/>
        <pt x="80" y="653" on="1"/>
        <pt x="1016" y="287" on="1"/>
      </contour>
      <contour>
        <pt x="195" y="94" on="1"/>
        <pt x="719" y="287" on="1"/>
        <pt x="195" y="480" on="1"/>
      </contour>
    </TTGlyph>
    <TTGlyph name="florin" xMin="-75" yMin="-153" xMax="308" yMax="712">
      <contour>
        <pt x="15" y="442" on="1"/>
        <pt x="35" y="598" on="1"/>
        <pt x="43" y="659" on="0"/>
        <pt x="135" y="712" on="0"/>
        <pt x="263" y="712" on="0"/>
        <pt x="308" y="700" on="1"/>
        <pt x="282" y="596" on="1"/>
        <pt x="247" y="601" on="0"/>
        <pt x="221" y="601" on="1"/>
        <pt x="169" y="601" on="0"/>
        <pt x="167" y="564" on="1"/>
        <pt x="149" y="442" on="1"/>
        <pt x="261" y="442" on="1"/>
        <pt x="249" y="342" on="1"/>
        <pt x="137" y="342" on="1"/>
        <pt x="78" y="-143" on="1"/>
        <pt x="-60" y="-153" on="1"/>
        <pt x="2" y="342" on="1"/>
        <pt x="-75" y="342" on="1"/>
        <pt x="-63" y="442" on="1"/>
      </contour>
    </TTGlyph>
    <TTGlyph name="four" xMin="5" yMin="0" xMax="496" yMax="700">
      <contour>
        <pt x="311" y="0" on="1"/>
        <pt x="311" y="111" on="1"/>
        <pt x="5" y="111" on="1"/>
        <pt x="5" y="205" on="1"/>
        <pt x="224" y="700" on="1"/>
        <pt x="349" y="700" on="1"/>
        <pt x="137" y="221" on="1"/>
        <pt x="311" y="221" on="1"/>
        <pt x="311" y="382" on="1"/>
        <pt x="428" y="382" on="1"/>
        <pt x="428" y="221" on="1"/>
        <pt x="496" y="221" on="1"/>
        <pt x="496" y="111" on="1"/>
        <pt x="428" y="111" on="1"/>
        <pt x="428" y="0" on="1"/>
      </contour>
    </TTGlyph>
    <TTGlyph name="fraction" xMin="-30" yMin="0" xMax="496" yMax="688">
      <contour>
        <pt x="496" y="688" on="1"/>
        <pt x="108" y="0" on="1"/>
        <pt x="-30" y="0" on="1"/>
        <pt x="358" y="688" on="1"/>
      </contour>
    </TTGlyph>
    <TTGlyph name="g" xMin="32" yMin="-235" xMax="465" yMax="510">
      <contour>
        <pt x="344" y="-39" on="1"/>
        <pt x="344" y="58" on="1"/>
        <pt x="259" y="-6" on="0"/>
        <pt x="121" y="-6" on="0"/>
        <pt x="32" y="123" on="0"/>
        <pt x="32" y="376" on="0"/>
        <pt x="133" y="510" on="0"/>
        <pt x="215" y="510" on="1"/>
        <pt x="272" y="510" on="0"/>
        <pt x="335" y="459" on="1"/>
        <pt x="354" y="500" on="1"/>
        <pt x="465" y="500" on="1"/>
        <pt x="465" y="-33" on="1"/>
        <pt x="465" y="-83" on="0"/>
        <pt x="432" y="-160" on="0"/>
        <pt x="385" y="-202" on="0"/>
        <pt x="354" y="-215" on="1"/>
        <pt x="305" y="-235" on="0"/>
        <pt x="249" y="-235" on="1"/>
        <pt x="136" y="-235" on="0"/>
        <pt x="52" y="-200" on="1"/>
        <pt x="71" y="-108" on="1"/>
        <pt x="148" y="-132" on="0"/>
        <pt x="221" y="-132" on="1"/>
        <pt x="308" y="-132" on="0"/>
        <pt x="332" y="-90" on="1"/>
        <pt x="344" y="-70" on="0"/>
      </contour>
      <contour>
        <pt x="335" y="154" on="1"/>
        <pt x="335" y="353" on="1"/>
        <pt x="282" y="397" on="0"/>
        <pt x="205" y="397" on="0"/>
        <pt x="162" y="323" on="0"/>
        <pt x="162" y="250" on="1"/>
        <pt x="162" y="110" on="0"/>
        <pt x="238" y="110" on="1"/>
        <pt x="282" y="110" on="0"/>
      </contour>
    </TTGlyph>
    <TTGlyph name="germandbls" xMin="71" yMin="-6" xMax="534" yMax="710">
      <contour>
        <pt x="534" y="198" on="1"/>
        <pt x="534" y="99" on="0"/>
        <pt x="399" y="-6" on="0"/>
        <pt x="274" y="-6" on="1"/>
        <pt x="257" y="-6" on="0"/>
        <pt x="242" y="-1" on="1"/>
        <pt x="242" y="102" on="1"/>
        <pt x="399" y="102" on="0"/>
        <pt x="399" y="209" on="1"/>
        <pt x="399" y="251" on="0"/>
        <pt x="338" y="318" on="0"/>
        <pt x="282" y="318" on="1"/>
        <pt x="254" y="318" on="1"/>
        <pt x="254" y="432" on="1"/>
        <pt x="281" y="432" on="1"/>
        <pt x="315" y="432" on="0"/>
        <pt x="371" y="488" on="0"/>
        <pt x="371" y="562" on="0"/>
        <pt x="331" y="605" on="0"/>
        <pt x="296" y="605" on="1"/>
        <pt x="234" y="605" on="0"/>
        <pt x="196" y="553" on="0"/>
        <pt x="196" y="498" on="1"/>
        <pt x="196" y="0" on="1"/>
        <pt x="71" y="0" on="1"/>
        <pt x="71" y="532" on="1"/>
        <pt x="71" y="624" on="0"/>
        <pt x="172" y="710" on="0"/>
        <pt x="391" y="710" on="0"/>
        <pt x="506" y="606" on="0"/>
        <pt x="506" y="531" on="1"/>
        <pt x="506" y="398" on="0"/>
        <pt x="403" y="382" on="1"/>
        <pt x="460" y="373" on="0"/>
        <pt x="534" y="274" on="0"/>
      </contour>
    </TTGlyph>
    <TTGlyph name="grave" xMin="56" yMin="567" xMax="274" yMax="736">
      <contour>
        <pt x="274" y="599" on="1"/>
        <pt x="186" y="567" on="1"/>
        <pt x="56" y="690" on="1"/>
        <pt x="171" y="736" on="1"/>
      </contour>
    </TTGlyph>
    <TTGlyph name="graveMAY" xMin="71" yMin="701" xMax="280" yMax="825">
      <contour>
        <pt x="280" y="701" on="1"/>
        <pt x="169" y="701" on="1"/>
        <pt x="71" y="825" on="1"/>
        <pt x="205" y="825" on="1"/>
      </contour>
    </TTGlyph>
    <TTGlyph name="greater" xMin="64" yMin="45" xMax="476" yMax="551">
      <contour>
        <pt x="64" y="551" on="1"/>
        <pt x="476" y="347" on="1"/>
        <pt x="476" y="250" on="1"/>
        <pt x="64" y="45" on="1"/>
        <pt x="64" y="165" on="1"/>
        <pt x="343" y="298" on="1"/>
        <pt x="64" y="433" on="1"/>
      </contour>
    </TTGlyph>
    <TTGlyph name="greaterequal" xMin="80" yMin="-1" xMax="492" yMax="627">
      <contour>
        <pt x="492" y="-1" on="1"/>
        <pt x="80" y="-1" on="1"/>
        <pt x="80" y="104" on="1"/>
        <pt x="492" y="104" on="1"/>
      </contour>
      <contour>
        <pt x="80" y="627" on="1"/>
        <pt x="492" y="423" on="1"/>
        <pt x="492" y="326" on="1"/>
        <pt x="80" y="121" on="1"/>
        <pt x="80" y="241" on="1"/>
        <pt x="359" y="374" on="1"/>
        <pt x="80" y="509" on="1"/>
      </contour>
    </TTGlyph>
    <TTGlyph name="guillemotleft" xMin="39" yMin="72" xMax="458" yMax="522">
      <contour>
        <pt x="273" y="115" on="1"/>
        <pt x="177" y="72" on="1"/>
        <pt x="39" y="296" on="1"/>
        <pt x="178" y="522" on="1"/>
        <pt x="273" y="479" on="1"/>
        <pt x="175" y="298" on="1"/>
      </contour>
      <contour>
        <pt x="458" y="125" on="1"/>
        <pt x="362" y="82" on="1"/>
        <pt x="234" y="296" on="1"/>
        <pt x="363" y="512" on="1"/>
        <pt x="458" y="469" on="1"/>
        <pt x="370" y="298" on="1"/>
      </contour>
    </TTGlyph>
    <TTGlyph name="guillemotright" xMin="52" yMin="72" xMax="471" yMax="522">
      <contour>
        <pt x="333" y="72" on="1"/>
        <pt x="237" y="115" on="1"/>
        <pt x="335" y="298" on="1"/>
        <pt x="237" y="479" on="1"/>
        <pt x="332" y="522" on="1"/>
        <pt x="471" y="296" on="1"/>
      </contour>
      <contour>
        <pt x="148" y="82" on="1"/>
        <pt x="52" y="125" on="1"/>
        <pt x="140" y="298" on="1"/>
        <pt x="52" y="469" on="1"/>
        <pt x="147" y="512" on="1"/>
        <pt x="276" y="296" on="1"/>
      </contour>
    </TTGlyph>
    <TTGlyph name="guilsinglleft" xMin="39" yMin="72" xMax="273" yMax="522">
      <contour>
        <pt x="273" y="115" on="1"/>
        <pt x="177" y="72" on="1"/>
        <pt x="39" y="296" on="1"/>
        <pt x="178" y="522" on="1"/>
        <pt x="273" y="479" on="1"/>
        <pt x="175" y="298" on="1"/>
      </contour>
    </TTGlyph>
    <TTGlyph name="guilsinglright" xMin="69" yMin="72" xMax="303" yMax="522">
      <contour>
        <pt x="69" y="479" on="1"/>
        <pt x="165" y="522" on="1"/>
        <pt x="303" y="298" on="1"/>
        <pt x="164" y="72" on="1"/>
        <pt x="69" y="115" on="1"/>
        <pt x="167" y="296" on="1"/>
      </contour>
    </TTGlyph>
    <TTGlyph name="h" xMin="81" yMin="0" xMax="504" yMax="700">
      <contour>
        <pt x="504" y="0" on="1"/>
        <pt x="374" y="0" on="1"/>
        <pt x="374" y="299" on="1"/>
        <pt x="374" y="340" on="0"/>
        <pt x="342" y="391" on="0"/>
        <pt x="266" y="391" on="0"/>
        <pt x="211" y="345" on="1"/>
        <pt x="211" y="0" on="1"/>
        <pt x="81" y="0" on="1"/>
        <pt x="81" y="700" on="1"/>
        <pt x="211" y="700" on="1"/>
        <pt x="211" y="455" on="1"/>
        <pt x="254" y="487" on="0"/>
        <pt x="317" y="510" on="0"/>
        <pt x="359" y="510" on="1"/>
        <pt x="426" y="510" on="0"/>
        <pt x="504" y="421" on="0"/>
        <pt x="504" y="334" on="1"/>
      </contour>
    </TTGlyph>
    <TTGlyph name="hbar" xMin="-14" yMin="0" xMax="504" yMax="700">
      <contour>
        <pt x="-14" y="568" on="1"/>
        <pt x="-14" y="657" on="1"/>
        <pt x="81" y="657" on="1"/>
        <pt x="81" y="700" on="1"/>
        <pt x="211" y="700" on="1"/>
        <pt x="211" y="657" on="1"/>
        <pt x="343" y="657" on="1"/>
        <pt x="343" y="568" on="1"/>
        <pt x="211" y="568" on="1"/>
        <pt x="211" y="455" on="1"/>
        <pt x="254" y="487" on="0"/>
        <pt x="317" y="510" on="0"/>
        <pt x="359" y="510" on="1"/>
        <pt x="426" y="510" on="0"/>
        <pt x="504" y="421" on="0"/>
        <pt x="504" y="334" on="1"/>
        <pt x="504" y="0" on="1"/>
        <pt x="374" y="0" on="1"/>
        <pt x="374" y="299" on="1"/>
        <pt x="374" y="340" on="0"/>
        <pt x="342" y="391" on="0"/>
        <pt x="266" y="391" on="0"/>
        <pt x="211" y="345" on="1"/>
        <pt x="211" y="0" on="1"/>
        <pt x="81" y="0" on="1"/>
        <pt x="81" y="568" on="1"/>
      </contour>
    </TTGlyph>
    <TTGlyph name="hungarumlaut" xMin="61" yMin="566" xMax="454" yMax="733">
      <contour>
        <pt x="159" y="566" on="1"/>
        <pt x="61" y="592" on="1"/>
        <pt x="174" y="733" on="1"/>
        <pt x="289" y="698" on="1"/>
      </contour>
      <contour>
        <pt x="324" y="566" on="1"/>
        <pt x="226" y="592" on="1"/>
        <pt x="339" y="733" on="1"/>
        <pt x="454" y="698" on="1"/>
      </contour>
    </TTGlyph>
    <TTGlyph name="hyphen" xMin="28" yMin="234" xMax="259" yMax="349">
      <contour>
        <pt x="259" y="234" on="1"/>
        <pt x="28" y="234" on="1"/>
        <pt x="28" y="349" on="1"/>
        <pt x="259" y="349" on="1"/>
      </contour>
    </TTGlyph>
    <TTGlyph name="i" xMin="77" yMin="0" xMax="207" yMax="700">
      <contour>
        <pt x="207" y="575" on="1"/>
        <pt x="77" y="575" on="1"/>
        <pt x="77" y="700" on="1"/>
        <pt x="207" y="700" on="1"/>
      </contour>
      <contour>
        <pt x="207" y="0" on="1"/>
        <pt x="77" y="0" on="1"/>
        <pt x="77" y="500" on="1"/>
        <pt x="207" y="500" on="1"/>
      </contour>
    </TTGlyph>
    <TTGlyph name="iacute" xMin="77" yMin="0" xMax="316" yMax="736">
      <contour>
        <pt x="186" y="567" on="1"/>
        <pt x="98" y="599" on="1"/>
        <pt x="201" y="736" on="1"/>
        <pt x="316" y="690" on="1"/>
      </contour>
      <contour>
        <pt x="77" y="0" on="1"/>
        <pt x="77" y="500" on="1"/>
        <pt x="207" y="500" on="1"/>
        <pt x="207" y="0" on="1"/>
      </contour>
    </TTGlyph>
    <TTGlyph name="icircumflex" xMin="-29" yMin="0" xMax="312" yMax="722">
      <contour>
        <pt x="99" y="722" on="1"/>
        <pt x="186" y="722" on="1"/>
        <pt x="312" y="632" on="1"/>
        <pt x="268" y="568" on="1"/>
        <pt x="142" y="633" on="1"/>
        <pt x="15" y="568" on="1"/>
        <pt x="-29" y="632" on="1"/>
      </contour>
      <contour>
        <pt x="77" y="0" on="1"/>
        <pt x="77" y="500" on="1"/>
        <pt x="207" y="500" on="1"/>
        <pt x="207" y="0" on="1"/>
      </contour>
    </TTGlyph>
    <TTGlyph name="idieresis" xMin="-28" yMin="0" xMax="312" yMax="710">
      <contour>
        <pt x="-28" y="579" on="1"/>
        <pt x="-28" y="710" on="1"/>
        <pt x="93" y="710" on="1"/>
        <pt x="93" y="579" on="1"/>
      </contour>
      <contour>
        <pt x="191" y="579" on="1"/>
        <pt x="191" y="710" on="1"/>
        <pt x="312" y="710" on="1"/>
        <pt x="312" y="579" on="1"/>
      </contour>
      <contour>
        <pt x="77" y="0" on="1"/>
        <pt x="77" y="500" on="1"/>
        <pt x="207" y="500" on="1"/>
        <pt x="207" y="0" on="1"/>
      </contour>
    </TTGlyph>
    <TTGlyph name="igrave" xMin="-29" yMin="0" xMax="207" yMax="736">
      <contour>
        <pt x="189" y="599" on="1"/>
        <pt x="101" y="567" on="1"/>
        <pt x="-29" y="690" on="1"/>
        <pt x="86" y="736" on="1"/>
      </contour>
      <contour>
        <pt x="77" y="0" on="1"/>
        <pt x="77" y="500" on="1"/>
        <pt x="207" y="500" on="1"/>
        <pt x="207" y="0" on="1"/>
      </contour>
    </TTGlyph>
    <TTGlyph name="ij" xMin="77" yMin="-236" xMax="484" yMax="700">
      <contour>
        <pt x="207" y="575" on="1"/>
        <pt x="77" y="575" on="1"/>
        <pt x="77" y="700" on="1"/>
        <pt x="207" y="700" on="1"/>
      </contour>
      <contour>
        <pt x="207" y="0" on="1"/>
        <pt x="77" y="0" on="1"/>
        <pt x="77" y="500" on="1"/>
        <pt x="207" y="500" on="1"/>
      </contour>
      <contour>
        <pt x="314" y="-176" on="1"/>
        <pt x="355" y="-123" on="0"/>
        <pt x="355" y="-6" on="1"/>
        <pt x="355" y="500" on="1"/>
        <pt x="483" y="500" on="1"/>
        <pt x="483" y="18" on="1"/>
        <pt x="483" y="-138" on="0"/>
        <pt x="391" y="-236" on="1"/>
      </contour>
      <contour>
        <pt x="484" y="575" on="1"/>
        <pt x="354" y="575" on="1"/>
        <pt x="354" y="700" on="1"/>
        <pt x="484" y="700" on="1"/>
      </contour>
    </TTGlyph>
    <TTGlyph name="infinity" xMin="53" yMin="133" xMax="839" yMax="457">
      <contour>
        <pt x="450" y="368" on="1"/>
        <pt x="560" y="457" on="0"/>
        <pt x="657" y="457" on="1"/>
        <pt x="738" y="457" on="0"/>
        <pt x="839" y="372" on="0"/>
        <pt x="839" y="224" on="0"/>
        <pt x="733" y="133" on="0"/>
        <pt x="652" y="133" on="1"/>
        <pt x="555" y="133" on="0"/>
        <pt x="442" y="224" on="1"/>
        <pt x="334" y="133" on="0"/>
        <pt x="235" y="133" on="1"/>
        <pt x="154" y="133" on="0"/>
        <pt x="53" y="217" on="0"/>
        <pt x="53" y="366" on="0"/>
        <pt x="160" y="457" on="0"/>
        <pt x="331" y="457" on="0"/>
      </contour>
      <contour>
        <pt x="359" y="294" on="1"/>
        <pt x="321" y="330" on="0"/>
        <pt x="264" y="367" on="0"/>
        <pt x="199" y="367" on="0"/>
        <pt x="158" y="328" on="0"/>
        <pt x="158" y="297" on="1"/>
        <pt x="158" y="226" on="0"/>
        <pt x="238" y="226" on="1"/>
        <pt x="287" y="226" on="0"/>
      </contour>
      <contour>
        <pt x="527" y="294" on="1"/>
        <pt x="599" y="226" on="0"/>
        <pt x="648" y="226" on="1"/>
        <pt x="718" y="226" on="0"/>
        <pt x="718" y="297" on="1"/>
        <pt x="718" y="328" on="0"/>
        <pt x="682" y="367" on="0"/>
        <pt x="622" y="367" on="0"/>
        <pt x="565" y="330" on="0"/>
      </contour>
    </TTGlyph>
    <TTGlyph name="integral" xMin="-13" yMin="-201" xMax="350" yMax="804">
      <contour>
        <pt x="96" y="-43" on="1"/>
        <pt x="97" y="650" on="1"/>
        <pt x="97" y="726" on="0"/>
        <pt x="195" y="804" on="0"/>
        <pt x="261" y="804" on="1"/>
        <pt x="305" y="804" on="0"/>
        <pt x="350" y="793" on="1"/>
        <pt x="338" y="694" on="1"/>
        <pt x="275" y="694" on="1"/>
        <pt x="241" y="694" on="0"/>
        <pt x="241" y="646" on="1"/>
        <pt x="241" y="-47" on="1"/>
        <pt x="241" y="-123" on="0"/>
        <pt x="142" y="-201" on="0"/>
        <pt x="76" y="-201" on="1"/>
        <pt x="32" y="-201" on="0"/>
        <pt x="-13" y="-190" on="1"/>
        <pt x="-1" y="-91" on="1"/>
        <pt x="62" y="-91" on="1"/>
        <pt x="96" y="-91" on="0"/>
      </contour>
    </TTGlyph>
    <TTGlyph name="itilde" xMin="-74" yMin="0" xMax="307" yMax="725">
      <contour>
        <pt x="50" y="0" on="1"/>
        <pt x="50" y="500" on="1"/>
        <pt x="180" y="500" on="1"/>
        <pt x="180" y="0" on="1"/>
      </contour>
      <contour>
        <pt x="244" y="715" on="1"/>
        <pt x="307" y="668" on="1"/>
        <pt x="306" y="663" on="0"/>
        <pt x="266" y="620" on="0"/>
        <pt x="205" y="576" on="0"/>
        <pt x="158" y="576" on="0"/>
        <pt x="54" y="627" on="0"/>
        <pt x="34" y="627" on="0"/>
        <pt x="3" y="606" on="0"/>
        <pt x="-7" y="595" on="1"/>
        <pt x="-17" y="584" on="1"/>
        <pt x="-74" y="640" on="1"/>
        <pt x="-66" y="650" on="0"/>
        <pt x="-41" y="678" on="0"/>
        <pt x="23" y="725" on="0"/>
        <pt x="71" y="725" on="0"/>
        <pt x="173" y="674" on="0"/>
        <pt x="194" y="674" on="0"/>
        <pt x="224" y="694" on="0"/>
        <pt x="234" y="704" on="1"/>
      </contour>
    </TTGlyph>
    <TTGlyph name="j" xMin="30" yMin="-236" xMax="200" yMax="700">
      <contour>
        <pt x="30" y="-176" on="1"/>
        <pt x="71" y="-123" on="0"/>
        <pt x="71" y="-6" on="1"/>
        <pt x="71" y="500" on="1"/>
        <pt x="199" y="500" on="1"/>
        <pt x="199" y="18" on="1"/>
        <pt x="199" y="-138" on="0"/>
        <pt x="107" y="-236" on="1"/>
      </contour>
      <contour>
        <pt x="200" y="575" on="1"/>
        <pt x="70" y="575" on="1"/>
        <pt x="70" y="700" on="1"/>
        <pt x="200" y="700" on="1"/>
      </contour>
    </TTGlyph>
    <TTGlyph name="jcircumflex" xMin="-34" yMin="-264" xMax="307" yMax="722">
      <contour>
        <pt x="30" y="-204" on="1"/>
        <pt x="71" y="-151" on="0"/>
        <pt x="71" y="-34" on="1"/>
        <pt x="71" y="500" on="1"/>
        <pt x="199" y="500" on="1"/>
        <pt x="199" y="-10" on="1"/>
        <pt x="199" y="-166" on="0"/>
        <pt x="107" y="-264" on="1"/>
      </contour>
      <contour>
        <pt x="94" y="722" on="1"/>
        <pt x="181" y="722" on="1"/>
        <pt x="307" y="632" on="1"/>
        <pt x="263" y="568" on="1"/>
        <pt x="137" y="633" on="1"/>
        <pt x="10" y="568" on="1"/>
        <pt x="-34" y="632" on="1"/>
      </contour>
    </TTGlyph>
    <TTGlyph name="k" xMin="81" yMin="0" xMax="530" yMax="700">
      <contour>
        <pt x="81" y="700" on="1"/>
        <pt x="211" y="700" on="1"/>
        <pt x="211" y="319" on="1"/>
        <pt x="367" y="500" on="1"/>
        <pt x="514" y="500" on="1"/>
        <pt x="331" y="296" on="1"/>
        <pt x="530" y="0" on="1"/>
        <pt x="389" y="0" on="1"/>
        <pt x="254" y="216" on="1"/>
        <pt x="211" y="166" on="1"/>
        <pt x="211" y="0" on="1"/>
        <pt x="81" y="0" on="1"/>
      </contour>
    </TTGlyph>
    <TTGlyph name="kcedilla" xMin="81" yMin="-217" xMax="530" yMax="700">
      <component glyphName="k" x="0" y="0" flags="0x1004"/>
      <component glyphName="cedilla" x="38" y="-40" flags="0x1004"/>
    </TTGlyph>
    <TTGlyph name="kgreenlandic" xMin="81" yMin="0" xMax="561" yMax="500">
      <contour>
        <pt x="81" y="500" on="1"/>
        <pt x="211" y="500" on="1"/>
        <pt x="211" y="319" on="1"/>
        <pt x="381" y="500" on="1"/>
        <pt x="528" y="500" on="1"/>
        <pt x="351" y="311" on="1"/>
        <pt x="561" y="0" on="1"/>
        <pt x="420" y="0" on="1"/>
        <pt x="274" y="231" on="1"/>
        <pt x="211" y="166" on="1"/>
        <pt x="211" y="0" on="1"/>
        <pt x="81" y="0" on="1"/>
      </contour>
    </TTGlyph>
    <TTGlyph name="l" xMin="81" yMin="0" xMax="211" yMax="700">
      <contour>
        <pt x="211" y="0" on="1"/>
        <pt x="81" y="0" on="1"/>
        <pt x="81" y="700" on="1"/>
        <pt x="211" y="700" on="1"/>
      </contour>
    </TTGlyph>
    <TTGlyph name="ldot" xMin="81" yMin="0" xMax="401" yMax="700">
      <contour>
        <pt x="211" y="0" on="1"/>
        <pt x="81" y="0" on="1"/>
        <pt x="81" y="700" on="1"/>
        <pt x="211" y="700" on="1"/>
      </contour>
      <contour>
        <pt x="401" y="231" on="1"/>
        <pt x="286" y="231" on="1"/>
        <pt x="286" y="367" on="1"/>
        <pt x="401" y="367" on="1"/>
      </contour>
    </TTGlyph>
    <TTGlyph name="less" xMin="51" yMin="45" xMax="463" yMax="551">
      <contour>
        <pt x="463" y="45" on="1"/>
        <pt x="51" y="249" on="1"/>
        <pt x="51" y="346" on="1"/>
        <pt x="463" y="551" on="1"/>
        <pt x="463" y="431" on="1"/>
        <pt x="184" y="298" on="1"/>
        <pt x="463" y="163" on="1"/>
      </contour>
    </TTGlyph>
    <TTGlyph name="lessequal" xMin="30" yMin="-1" xMax="442" yMax="624">
      <contour>
        <pt x="442" y="-1" on="1"/>
        <pt x="30" y="-1" on="1"/>
        <pt x="30" y="104" on="1"/>
        <pt x="442" y="104" on="1"/>
      </contour>
      <contour>
        <pt x="442" y="118" on="1"/>
        <pt x="30" y="322" on="1"/>
        <pt x="30" y="419" on="1"/>
        <pt x="442" y="624" on="1"/>
        <pt x="442" y="504" on="1"/>
        <pt x="163" y="371" on="1"/>
        <pt x="442" y="236" on="1"/>
      </contour>
    </TTGlyph>
    <TTGlyph name="logicalnot" xMin="18" yMin="125" xMax="487" yMax="354">
      <contour>
        <pt x="487" y="125" on="1"/>
        <pt x="362" y="125" on="1"/>
        <pt x="362" y="249" on="1"/>
        <pt x="18" y="249" on="1"/>
        <pt x="18" y="354" on="1"/>
        <pt x="487" y="354" on="1"/>
      </contour>
    </TTGlyph>
    <TTGlyph name="lozenge" xMin="20" yMin="0" xMax="523" yMax="700">
      <contour>
        <pt x="523" y="353" on="1"/>
        <pt x="321" y="0" on="1"/>
        <pt x="220" y="0" on="1"/>
        <pt x="20" y="351" on="1"/>
        <pt x="222" y="700" on="1"/>
        <pt x="323" y="700" on="1"/>
      </contour>
      <contour>
        <pt x="381" y="351" on="1"/>
        <pt x="271" y="557" on="1"/>
        <pt x="162" y="353" on="1"/>
        <pt x="272" y="136" on="1"/>
      </contour>
    </TTGlyph>
    <TTGlyph name="lslash" xMin="20" yMin="0" xMax="323" yMax="700">
      <contour>
        <pt x="221" y="0" on="1"/>
        <pt x="91" y="0" on="1"/>
        <pt x="91" y="388" on="1"/>
        <pt x="20" y="345" on="1"/>
        <pt x="20" y="457" on="1"/>
        <pt x="91" y="499" on="1"/>
        <pt x="91" y="700" on="1"/>
        <pt x="221" y="700" on="1"/>
        <pt x="221" y="543" on="1"/>
        <pt x="323" y="604" on="1"/>
        <pt x="323" y="492" on="1"/>
        <pt x="221" y="432" on="1"/>
      </contour>
    </TTGlyph>
    <TTGlyph name="m" xMin="81" yMin="0" xMax="767" yMax="510">
      <contour>
        <pt x="212" y="0" on="1"/>
        <pt x="81" y="0" on="1"/>
        <pt x="81" y="500" on="1"/>
        <pt x="191" y="500" on="1"/>
        <pt x="208" y="455" on="1"/>
        <pt x="251" y="487" on="0"/>
        <pt x="314" y="510" on="0"/>
        <pt x="356" y="510" on="1"/>
        <pt x="432" y="510" on="0"/>
        <pt x="467" y="441" on="1"/>
        <pt x="523" y="482" on="0"/>
        <pt x="592" y="510" on="0"/>
        <pt x="633" y="510" on="1"/>
        <pt x="695" y="510" on="0"/>
        <pt x="767" y="419" on="0"/>
        <pt x="767" y="331" on="1"/>
        <pt x="767" y="0" on="1"/>
        <pt x="636" y="0" on="1"/>
        <pt x="636" y="296" on="1"/>
        <pt x="636" y="388" on="0"/>
        <pt x="581" y="388" on="1"/>
        <pt x="540" y="388" on="0"/>
        <pt x="487" y="342" on="1"/>
        <pt x="487" y="0" on="1"/>
        <pt x="357" y="0" on="1"/>
        <pt x="357" y="296" on="1"/>
        <pt x="357" y="388" on="0"/>
        <pt x="303" y="388" on="1"/>
        <pt x="263" y="388" on="0"/>
        <pt x="212" y="345" on="1"/>
      </contour>
    </TTGlyph>
    <TTGlyph name="macron" xMin="68" yMin="594" xMax="425" yMax="699">
      <contour>
        <pt x="68" y="594" on="1"/>
        <pt x="68" y="699" on="1"/>
        <pt x="425" y="699" on="1"/>
        <pt x="425" y="594" on="1"/>
      </contour>
    </TTGlyph>
    <TTGlyph name="minus" xMin="69" yMin="255" xMax="501" yMax="360">
      <contour>
        <pt x="501" y="255" on="1"/>
        <pt x="69" y="255" on="1"/>
        <pt x="69" y="360" on="1"/>
        <pt x="501" y="360" on="1"/>
      </contour>
    </TTGlyph>
    <TTGlyph name="mu" xMin="82" yMin="-236" xMax="486" yMax="500">
      <contour>
        <pt x="82" y="500" on="1"/>
        <pt x="214" y="500" on="1"/>
        <pt x="214" y="194" on="1"/>
        <pt x="214" y="102" on="0"/>
        <pt x="269" y="102" on="1"/>
        <pt x="306" y="102" on="0"/>
        <pt x="355" y="148" on="1"/>
        <pt x="355" y="500" on="1"/>
        <pt x="486" y="500" on="1"/>
        <pt x="486" y="0" on="1"/>
        <pt x="376" y="0" on="1"/>
        <pt x="355" y="48" on="1"/>
        <pt x="315" y="16" on="0"/>
        <pt x="255" y="-6" on="0"/>
        <pt x="214" y="-6" on="1"/>
        <pt x="214" y="-236" on="1"/>
        <pt x="82" y="-236" on="1"/>
      </contour>
    </TTGlyph>
    <TTGlyph name="multiply" xMin="55" yMin="42" xMax="555" yMax="544">
      <contour>
        <pt x="555" y="463" on="1"/>
        <pt x="388" y="296" on="1"/>
        <pt x="553" y="130" on="1"/>
        <pt x="465" y="42" on="1"/>
        <pt x="300" y="208" on="1"/>
        <pt x="141" y="50" on="1"/>
        <pt x="61" y="131" on="1"/>
        <pt x="219" y="289" on="1"/>
        <pt x="55" y="454" on="1"/>
        <pt x="143" y="542" on="1"/>
        <pt x="307" y="377" on="1"/>
        <pt x="474" y="544" on="1"/>
      </contour>
    </TTGlyph>
    <TTGlyph name="n" xMin="81" yMin="0" xMax="505" yMax="510">
      <contour>
        <pt x="505" y="0" on="1"/>
        <pt x="373" y="0" on="1"/>
        <pt x="373" y="299" on="1"/>
        <pt x="373" y="340" on="0"/>
        <pt x="341" y="391" on="0"/>
        <pt x="267" y="391" on="0"/>
        <pt x="212" y="345" on="1"/>
        <pt x="212" y="0" on="1"/>
        <pt x="81" y="0" on="1"/>
        <pt x="81" y="500" on="1"/>
        <pt x="191" y="500" on="1"/>
        <pt x="212" y="455" on="1"/>
        <pt x="255" y="487" on="0"/>
        <pt x="318" y="510" on="0"/>
        <pt x="360" y="510" on="1"/>
        <pt x="427" y="510" on="0"/>
        <pt x="505" y="421" on="0"/>
        <pt x="505" y="334" on="1"/>
      </contour>
    </TTGlyph>
    <TTGlyph name="nacute" xMin="81" yMin="0" xMax="505" yMax="736">
      <component glyphName="n" x="0" y="0" flags="0x1004"/>
      <component glyphName="acute" x="114" y="0" flags="0x1004"/>
    </TTGlyph>
    <TTGlyph name="nine" xMin="43" yMin="-6" xMax="513" yMax="710">
      <contour>
        <pt x="271" y="261" on="1"/>
        <pt x="162" y="261" on="0"/>
        <pt x="43" y="375" on="0"/>
        <pt x="43" y="585" on="0"/>
        <pt x="166" y="710" on="0"/>
        <pt x="271" y="710" on="1"/>
        <pt x="513" y="710" on="0"/>
        <pt x="513" y="394" on="1"/>
        <pt x="513" y="102" on="0"/>
        <pt x="373" y="25" on="1"/>
        <pt x="317" y="-6" on="0"/>
        <pt x="237" y="-6" on="1"/>
        <pt x="195" y="-6" on="0"/>
        <pt x="115" y="10" on="0"/>
        <pt x="96" y="18" on="1"/>
        <pt x="76" y="27" on="1"/>
        <pt x="104" y="127" on="1"/>
        <pt x="174" y="100" on="0"/>
        <pt x="246" y="100" on="1"/>
        <pt x="382" y="100" on="0"/>
        <pt x="395" y="288" on="1"/>
        <pt x="338" y="261" on="0"/>
      </contour>
      <contour>
        <pt x="266" y="605" on="1"/>
        <pt x="217" y="605" on="0"/>
        <pt x="158" y="540" on="0"/>
        <pt x="158" y="491" on="1"/>
        <pt x="158" y="366" on="0"/>
        <pt x="275" y="366" on="1"/>
        <pt x="334" y="366" on="0"/>
        <pt x="398" y="402" on="1"/>
        <pt x="398" y="406" on="1"/>
        <pt x="398" y="505" on="0"/>
        <pt x="337" y="605" on="0"/>
      </contour>
    </TTGlyph>
    <TTGlyph name="notequal" xMin="65" yMin="0" xMax="515" yMax="589">
      <contour>
        <pt x="515" y="153" on="1"/>
        <pt x="285" y="153" on="1"/>
        <pt x="232" y="0" on="1"/>
        <pt x="122" y="0" on="1"/>
        <pt x="175" y="153" on="1"/>
        <pt x="65" y="153" on="1"/>
        <pt x="65" y="258" on="1"/>
        <pt x="212" y="258" on="1"/>
        <pt x="237" y="331" on="1"/>
        <pt x="65" y="331" on="1"/>
        <pt x="65" y="436" on="1"/>
        <pt x="274" y="436" on="1"/>
        <pt x="328" y="589" on="1"/>
        <pt x="437" y="589" on="1"/>
        <pt x="384" y="436" on="1"/>
        <pt x="515" y="436" on="1"/>
        <pt x="515" y="331" on="1"/>
        <pt x="347" y="331" on="1"/>
        <pt x="322" y="258" on="1"/>
        <pt x="515" y="258" on="1"/>
      </contour>
    </TTGlyph>
    <TTGlyph name="ntilde" xMin="81" yMin="0" xMax="505" yMax="717">
      <component glyphName="n" x="0" y="0" flags="0x1004"/>
      <component glyphName="tilde" x="10" y="-104" flags="0x1004"/>
    </TTGlyph>
    <TTGlyph name="numbersign" xMin="21" yMin="0" xMax="588" yMax="701">
      <contour>
        <pt x="139" y="281" on="1"/>
        <pt x="156" y="442" on="1"/>
        <pt x="46" y="442" on="1"/>
        <pt x="46" y="541" on="1"/>
        <pt x="165" y="541" on="1"/>
        <pt x="182" y="701" on="1"/>
        <pt x="293" y="701" on="1"/>
        <pt x="276" y="541" on="1"/>
        <pt x="388" y="541" on="1"/>
        <pt x="405" y="701" on="1"/>
        <pt x="514" y="701" on="1"/>
        <pt x="499" y="541" on="1"/>
        <pt x="588" y="541" on="1"/>
        <pt x="588" y="442" on="1"/>
        <pt x="488" y="442" on="1"/>
        <pt x="472" y="281" on="1"/>
        <pt x="562" y="281" on="1"/>
        <pt x="562" y="181" on="1"/>
        <pt x="462" y="181" on="1"/>
        <pt x="443" y="0" on="1"/>
        <pt x="333" y="0" on="1"/>
        <pt x="352" y="181" on="1"/>
        <pt x="240" y="181" on="1"/>
        <pt x="220" y="0" on="1"/>
        <pt x="110" y="0" on="1"/>
        <pt x="129" y="181" on="1"/>
        <pt x="21" y="181" on="1"/>
        <pt x="21" y="281" on="1"/>
      </contour>
      <contour>
        <pt x="380" y="442" on="1"/>
        <pt x="267" y="442" on="1"/>
        <pt x="254" y="339" on="0"/>
        <pt x="249" y="281" on="1"/>
        <pt x="361" y="281" on="1"/>
        <pt x="376" y="400" on="0"/>
      </contour>
    </TTGlyph>
    <TTGlyph name="o" xMin="32" yMin="-7" xMax="494" yMax="510">
      <contour>
        <pt x="494" y="129" on="0"/>
        <pt x="372" y="-7" on="0"/>
        <pt x="148" y="-7" on="0"/>
        <pt x="32" y="129" on="0"/>
        <pt x="32" y="371" on="0"/>
        <pt x="148" y="510" on="0"/>
        <pt x="366" y="510" on="0"/>
        <pt x="494" y="369" on="0"/>
      </contour>
      <contour>
        <pt x="361" y="251" on="1"/>
        <pt x="361" y="404" on="0"/>
        <pt x="263" y="404" on="1"/>
        <pt x="163" y="404" on="0"/>
        <pt x="163" y="100" on="0"/>
        <pt x="264" y="100" on="1"/>
        <pt x="318" y="100" on="0"/>
        <pt x="361" y="177" on="0"/>
      </contour>
    </TTGlyph>
    <TTGlyph name="oacute" xMin="32" yMin="-7" xMax="494" yMax="736">
      <component glyphName="o" x="0" y="0" flags="0x1004"/>
      <component glyphName="acute" x="95" y="0" flags="0x1004"/>
    </TTGlyph>
    <TTGlyph name="ocircumflex" xMin="32" yMin="-7" xMax="494" yMax="722">
      <component glyphName="o" x="0" y="0" flags="0x1004"/>
      <component glyphName="circumflex" x="13" y="-108" flags="0x1004"/>
    </TTGlyph>
    <TTGlyph name="odieresis" xMin="32" yMin="-7" xMax="494" yMax="710">
      <component glyphName="o" x="0" y="0" flags="0x1004"/>
      <component glyphName="dieresis" x="18" y="-115" flags="0x1004"/>
    </TTGlyph>
    <TTGlyph name="oe" xMin="37" yMin="-7" xMax="747" yMax="510">
      <contour>
        <pt x="409" y="49" on="1"/>
        <pt x="351" y="-7" on="0"/>
        <pt x="148" y="-7" on="0"/>
        <pt x="37" y="129" on="0"/>
        <pt x="37" y="371" on="0"/>
        <pt x="149" y="510" on="0"/>
        <pt x="348" y="510" on="0"/>
        <pt x="407" y="451" on="1"/>
        <pt x="461" y="510" on="0"/>
        <pt x="644" y="510" on="0"/>
        <pt x="747" y="398" on="0"/>
        <pt x="747" y="288" on="1"/>
        <pt x="747" y="244" on="0"/>
        <pt x="743" y="211" on="1"/>
        <pt x="474" y="211" on="1"/>
        <pt x="474" y="152" on="0"/>
        <pt x="533" y="96" on="0"/>
        <pt x="632" y="96" on="0"/>
        <pt x="715" y="120" on="1"/>
        <pt x="737" y="31" on="1"/>
        <pt x="647" y="-6" on="0"/>
        <pt x="571" y="-6" on="1"/>
        <pt x="465" y="-6" on="0"/>
      </contour>
      <contour>
        <pt x="346" y="251" on="1"/>
        <pt x="346" y="404" on="0"/>
        <pt x="258" y="404" on="1"/>
        <pt x="168" y="404" on="0"/>
        <pt x="168" y="100" on="0"/>
        <pt x="259" y="100" on="1"/>
        <pt x="307" y="100" on="0"/>
        <pt x="346" y="177" on="0"/>
      </contour>
      <contour>
        <pt x="622" y="303" on="1"/>
        <pt x="622" y="310" on="1"/>
        <pt x="622" y="412" on="0"/>
        <pt x="549" y="412" on="1"/>
        <pt x="511" y="412" on="0"/>
        <pt x="474" y="350" on="0"/>
        <pt x="473" y="303" on="1"/>
      </contour>
    </TTGlyph>
    <TTGlyph name="ogonek" xMin="40" yMin="-194" xMax="274" yMax="0">
      <contour>
        <pt x="40" y="-118" on="1"/>
        <pt x="40" y="-48" on="0"/>
        <pt x="116" y="0" on="1"/>
        <pt x="239" y="0" on="1"/>
        <pt x="151" y="-43" on="0"/>
        <pt x="151" y="-91" on="1"/>
        <pt x="151" y="-121" on="0"/>
        <pt x="181" y="-121" on="1"/>
        <pt x="200" y="-121" on="0"/>
        <pt x="256" y="-105" on="1"/>
        <pt x="274" y="-169" on="1"/>
        <pt x="218" y="-194" on="0"/>
        <pt x="158" y="-194" on="1"/>
        <pt x="40" y="-194" on="0"/>
      </contour>
    </TTGlyph>
    <TTGlyph name="ograve" xMin="32" yMin="-7" xMax="494" yMax="736">
      <contour>
        <pt x="32" y="129" on="0"/>
        <pt x="148" y="-7" on="0"/>
        <pt x="372" y="-7" on="0"/>
        <pt x="494" y="129" on="0"/>
        <pt x="494" y="369" on="0"/>
        <pt x="366" y="510" on="0"/>
        <pt x="148" y="510" on="0"/>
        <pt x="32" y="371" on="0"/>
      </contour>
      <contour>
        <pt x="361" y="251" on="1"/>
        <pt x="361" y="177" on="0"/>
        <pt x="318" y="100" on="0"/>
        <pt x="264" y="100" on="1"/>
        <pt x="163" y="100" on="0"/>
        <pt x="163" y="404" on="0"/>
        <pt x="263" y="404" on="1"/>
        <pt x="361" y="404" on="0"/>
      </contour>
      <contour>
        <pt x="336" y="599" on="1"/>
        <pt x="248" y="567" on="1"/>
        <pt x="118" y="690" on="1"/>
        <pt x="233" y="736" on="1"/>
      </contour>
    </TTGlyph>
    <TTGlyph name="one" xMin="18" yMin="0" xMax="475" yMax="700">
      <contour>
        <pt x="32" y="0" on="1"/>
        <pt x="32" y="100" on="1"/>
        <pt x="212" y="100" on="1"/>
        <pt x="212" y="571" on="1"/>
        <pt x="65" y="475" on="1"/>
        <pt x="18" y="571" on="1"/>
        <pt x="212" y="700" on="1"/>
        <pt x="337" y="700" on="1"/>
        <pt x="337" y="100" on="1"/>
        <pt x="475" y="100" on="1"/>
        <pt x="475" y="0" on="1"/>
      </contour>
    </TTGlyph>
    <TTGlyph name="onehalf" xMin="33" yMin="0" xMax="772" yMax="688">
      <contour>
        <pt x="66" y="316" on="1"/>
        <pt x="66" y="394" on="1"/>
        <pt x="136" y="394" on="1"/>
        <pt x="136" y="570" on="1"/>
        <pt x="63" y="523" on="1"/>
        <pt x="33" y="599" on="1"/>
        <pt x="136" y="662" on="1"/>
        <pt x="226" y="662" on="1"/>
        <pt x="226" y="394" on="1"/>
        <pt x="296" y="394" on="1"/>
        <pt x="296" y="316" on="1"/>
      </contour>
      <contour>
        <pt x="676" y="688" on="1"/>
        <pt x="288" y="0" on="1"/>
        <pt x="150" y="0" on="1"/>
        <pt x="538" y="688" on="1"/>
      </contour>
      <contour>
        <pt x="772" y="77" on="1"/>
        <pt x="763" y="0" on="1"/>
        <pt x="513" y="0" on="1"/>
        <pt x="513" y="62" on="1"/>
        <pt x="569" y="113" on="0"/>
        <pt x="594" y="138" on="1"/>
        <pt x="658" y="200" on="0"/>
        <pt x="658" y="240" on="1"/>
        <pt x="658" y="266" on="0"/>
        <pt x="617" y="266" on="1"/>
        <pt x="575" y="266" on="0"/>
        <pt x="538" y="256" on="1"/>
        <pt x="525" y="252" on="1"/>
        <pt x="532" y="322" on="1"/>
        <pt x="586" y="339" on="0"/>
        <pt x="696" y="339" on="0"/>
        <pt x="756" y="296" on="0"/>
        <pt x="756" y="216" on="0"/>
        <pt x="708" y="135" on="0"/>
        <pt x="648" y="77" on="1"/>
      </contour>
    </TTGlyph>
    <TTGlyph name="onequarter" xMin="33" yMin="0" xMax="811" yMax="688">
      <contour>
        <pt x="609" y="346" on="1"/>
        <pt x="708" y="346" on="1"/>
        <pt x="593" y="131" on="1"/>
        <pt x="672" y="131" on="1"/>
        <pt x="672" y="236" on="1"/>
        <pt x="763" y="236" on="1"/>
        <pt x="763" y="130" on="1"/>
        <pt x="811" y="130" on="1"/>
        <pt x="811" y="51" on="1"/>
        <pt x="763" y="51" on="1"/>
        <pt x="763" y="0" on="1"/>
        <pt x="672" y="0" on="1"/>
        <pt x="672" y="51" on="1"/>
        <pt x="489" y="51" on="1"/>
        <pt x="489" y="122" on="1"/>
      </contour>
      <contour>
        <pt x="66" y="316" on="1"/>
        <pt x="66" y="394" on="1"/>
        <pt x="136" y="394" on="1"/>
        <pt x="136" y="570" on="1"/>
        <pt x="63" y="523" on="1"/>
        <pt x="33" y="599" on="1"/>
        <pt x="136" y="662" on="1"/>
        <pt x="226" y="662" on="1"/>
        <pt x="226" y="394" on="1"/>
        <pt x="296" y="394" on="1"/>
        <pt x="296" y="316" on="1"/>
      </contour>
      <contour>
        <pt x="676" y="688" on="1"/>
        <pt x="288" y="0" on="1"/>
        <pt x="150" y="0" on="1"/>
        <pt x="538" y="688" on="1"/>
      </contour>
    </TTGlyph>
    <TTGlyph name="onesuperior" xMin="33" yMin="316" xMax="296" yMax="662">
      <contour>
        <pt x="66" y="316" on="1"/>
        <pt x="66" y="394" on="1"/>
        <pt x="136" y="394" on="1"/>
        <pt x="136" y="570" on="1"/>
        <pt x="63" y="523" on="1"/>
        <pt x="33" y="599" on="1"/>
        <pt x="136" y="662" on="1"/>
        <pt x="226" y="662" on="1"/>
        <pt x="226" y="394" on="1"/>
        <pt x="296" y="394" on="1"/>
        <pt x="296" y="316" on="1"/>
      </contour>
    </TTGlyph>
    <TTGlyph name="ordfeminine" xMin="37" yMin="234" xMax="308" yMax="700">
      <contour>
        <pt x="180" y="560" on="1"/>
        <pt x="206" y="559" on="1"/>
        <pt x="206" y="600" on="0"/>
        <pt x="189" y="622" on="0"/>
        <pt x="104" y="622" on="0"/>
        <pt x="62" y="608" on="1"/>
        <pt x="53" y="682" on="1"/>
        <pt x="110" y="700" on="0"/>
        <pt x="172" y="700" on="1"/>
        <pt x="305" y="700" on="0"/>
        <pt x="305" y="588" on="1"/>
        <pt x="305" y="361" on="1"/>
        <pt x="227" y="361" on="1"/>
        <pt x="211" y="379" on="1"/>
        <pt x="177" y="358" on="0"/>
        <pt x="92" y="358" on="0"/>
        <pt x="37" y="410" on="0"/>
        <pt x="37" y="453" on="1"/>
        <pt x="37" y="560" on="0"/>
      </contour>
      <contour>
        <pt x="203" y="485" on="1"/>
        <pt x="170" y="485" on="1"/>
        <pt x="150" y="485" on="0"/>
        <pt x="136" y="472" on="0"/>
        <pt x="136" y="435" on="0"/>
        <pt x="152" y="435" on="1"/>
        <pt x="177" y="435" on="0"/>
        <pt x="203" y="450" on="1"/>
      </contour>
      <contour>
        <pt x="308" y="234" on="1"/>
        <pt x="39" y="234" on="1"/>
        <pt x="39" y="318" on="1"/>
        <pt x="308" y="318" on="1"/>
      </contour>
    </TTGlyph>
    <TTGlyph name="ordmasculine" xMin="41" yMin="234" xMax="324" yMax="700">
      <contour>
        <pt x="311" y="234" on="1"/>
        <pt x="52" y="234" on="1"/>
        <pt x="52" y="318" on="1"/>
        <pt x="311" y="318" on="1"/>
      </contour>
      <contour>
        <pt x="182" y="620" on="1"/>
        <pt x="162" y="620" on="0"/>
        <pt x="141" y="568" on="0"/>
        <pt x="141" y="528" on="1"/>
        <pt x="141" y="438" on="0"/>
        <pt x="181" y="438" on="1"/>
        <pt x="224" y="438" on="0"/>
        <pt x="224" y="620" on="0"/>
      </contour>
      <contour>
        <pt x="181" y="700" on="1"/>
        <pt x="324" y="700" on="0"/>
        <pt x="324" y="358" on="0"/>
        <pt x="179" y="358" on="1"/>
        <pt x="109" y="358" on="0"/>
        <pt x="41" y="449" on="0"/>
        <pt x="41" y="600" on="0"/>
        <pt x="110" y="700" on="0"/>
      </contour>
    </TTGlyph>
    <TTGlyph name="oslash" xMin="22" yMin="-43" xMax="530" yMax="545">
      <contour>
        <pt x="257" y="-7" on="1"/>
        <pt x="190" y="-7" on="0"/>
        <pt x="144" y="18" on="1"/>
        <pt x="94" y="-43" on="1"/>
        <pt x="22" y="21" on="1"/>
        <pt x="73" y="83" on="1"/>
        <pt x="32" y="147" on="0"/>
        <pt x="32" y="371" on="0"/>
        <pt x="148" y="510" on="0"/>
        <pt x="257" y="510" on="1"/>
        <pt x="335" y="510" on="0"/>
        <pt x="393" y="471" on="1"/>
        <pt x="453" y="545" on="1"/>
        <pt x="530" y="487" on="1"/>
        <pt x="458" y="400" on="1"/>
        <pt x="494" y="336" on="0"/>
        <pt x="494" y="250" on="1"/>
        <pt x="494" y="129" on="0"/>
        <pt x="372" y="-7" on="0"/>
      </contour>
      <contour>
        <pt x="263" y="408" on="1"/>
        <pt x="159" y="408" on="0"/>
        <pt x="159" y="251" on="1"/>
        <pt x="159" y="212" on="0"/>
        <pt x="164" y="189" on="1"/>
        <pt x="326" y="386" on="1"/>
        <pt x="301" y="408" on="0"/>
      </contour>
      <contour>
        <pt x="365" y="251" on="1"/>
        <pt x="365" y="264" on="0"/>
        <pt x="363" y="288" on="1"/>
        <pt x="215" y="107" on="1"/>
        <pt x="235" y="96" on="0"/>
        <pt x="264" y="96" on="1"/>
        <pt x="320" y="96" on="0"/>
        <pt x="365" y="175" on="0"/>
      </contour>
    </TTGlyph>
    <TTGlyph name="otilde" xMin="32" yMin="-7" xMax="494" yMax="718">
      <contour>
        <pt x="32" y="129" on="0"/>
        <pt x="148" y="-7" on="0"/>
        <pt x="372" y="-7" on="0"/>
        <pt x="494" y="129" on="0"/>
        <pt x="494" y="369" on="0"/>
        <pt x="366" y="510" on="0"/>
        <pt x="148" y="510" on="0"/>
        <pt x="32" y="371" on="0"/>
      </contour>
      <contour>
        <pt x="361" y="251" on="1"/>
        <pt x="361" y="177" on="0"/>
        <pt x="318" y="100" on="0"/>
        <pt x="264" y="100" on="1"/>
        <pt x="163" y="100" on="0"/>
        <pt x="163" y="404" on="0"/>
        <pt x="263" y="404" on="1"/>
        <pt x="361" y="404" on="0"/>
      </contour>
      <contour>
        <pt x="395" y="708" on="1"/>
        <pt x="458" y="661" on="1"/>
        <pt x="457" y="656" on="0"/>
        <pt x="417" y="613" on="0"/>
        <pt x="356" y="569" on="0"/>
        <pt x="309" y="569" on="0"/>
        <pt x="205" y="620" on="0"/>
        <pt x="185" y="620" on="0"/>
        <pt x="154" y="598" on="0"/>
        <pt x="144" y="588" on="1"/>
        <pt x="134" y="577" on="1"/>
        <pt x="77" y="633" on="1"/>
        <pt x="85" y="643" on="0"/>
        <pt x="110" y="671" on="0"/>
        <pt x="174" y="718" on="0"/>
        <pt x="222" y="718" on="0"/>
        <pt x="324" y="667" on="0"/>
        <pt x="334" y="667" on="1"/>
        <pt x="354" y="667" on="0"/>
        <pt x="385" y="698" on="1"/>
      </contour>
    </TTGlyph>
    <TTGlyph name="p" xMin="81" yMin="-237" xMax="510" yMax="510">
      <contour>
        <pt x="211" y="-237" on="1"/>
        <pt x="81" y="-237" on="1"/>
        <pt x="81" y="500" on="1"/>
        <pt x="180" y="500" on="1"/>
        <pt x="204" y="447" on="1"/>
        <pt x="241" y="478" on="0"/>
        <pt x="302" y="510" on="0"/>
        <pt x="340" y="510" on="1"/>
        <pt x="423" y="510" on="0"/>
        <pt x="510" y="372" on="0"/>
        <pt x="510" y="124" on="0"/>
        <pt x="398" y="-7" on="0"/>
        <pt x="322" y="-7" on="1"/>
        <pt x="267" y="-7" on="0"/>
        <pt x="211" y="41" on="1"/>
      </contour>
      <contour>
        <pt x="211" y="346" on="1"/>
        <pt x="211" y="163" on="1"/>
        <pt x="243" y="111" on="0"/>
        <pt x="338" y="111" on="0"/>
        <pt x="375" y="179" on="0"/>
        <pt x="375" y="319" on="0"/>
        <pt x="335" y="395" on="0"/>
        <pt x="305" y="395" on="1"/>
        <pt x="262" y="395" on="0"/>
      </contour>
    </TTGlyph>
    <TTGlyph name="paragraph" xMin="50" yMin="-203" xMax="554" yMax="710">
      <contour>
        <pt x="328" y="-203" on="1"/>
        <pt x="223" y="-203" on="1"/>
        <pt x="223" y="358" on="1"/>
        <pt x="145" y="358" on="0"/>
        <pt x="50" y="458" on="0"/>
        <pt x="50" y="604" on="0"/>
        <pt x="157" y="710" on="0"/>
        <pt x="269" y="710" on="1"/>
        <pt x="554" y="710" on="1"/>
        <pt x="554" y="600" on="1"/>
        <pt x="489" y="600" on="1"/>
        <pt x="489" y="-203" on="1"/>
        <pt x="384" y="-203" on="1"/>
        <pt x="384" y="600" on="1"/>
        <pt x="328" y="600" on="1"/>
      </contour>
    </TTGlyph>
    <TTGlyph name="parenleft" xMin="40" yMin="-130" xMax="284" yMax="764">
      <contour>
        <pt x="173" y="-130" on="1"/>
        <pt x="40" y="78" on="0"/>
        <pt x="40" y="555" on="0"/>
        <pt x="178" y="764" on="1"/>
        <pt x="284" y="751" on="1"/>
        <pt x="185" y="539" on="0"/>
        <pt x="185" y="95" on="0"/>
        <pt x="282" y="-118" on="1"/>
      </contour>
    </TTGlyph>
    <TTGlyph name="parenright" xMin="15" yMin="-130" xMax="259" yMax="764">
      <contour>
        <pt x="121" y="764" on="1"/>
        <pt x="259" y="555" on="0"/>
        <pt x="259" y="78" on="0"/>
        <pt x="126" y="-130" on="1"/>
        <pt x="17" y="-118" on="1"/>
        <pt x="114" y="95" on="0"/>
        <pt x="114" y="539" on="0"/>
        <pt x="15" y="751" on="1"/>
      </contour>
    </TTGlyph>
    <TTGlyph name="partialdiff" xMin="-13" yMin="-6" xMax="483" yMax="738">
      <contour>
        <pt x="320" y="441" on="1"/>
        <pt x="310" y="501" on="0"/>
        <pt x="173" y="613" on="0"/>
        <pt x="109" y="620" on="1"/>
        <pt x="145" y="738" on="1"/>
        <pt x="300" y="707" on="0"/>
        <pt x="483" y="478" on="0"/>
        <pt x="483" y="320" on="1"/>
        <pt x="483" y="-6" on="0"/>
        <pt x="225" y="-6" on="1"/>
        <pt x="118" y="-6" on="0"/>
        <pt x="-13" y="112" on="0"/>
        <pt x="-13" y="324" on="0"/>
        <pt x="123" y="448" on="0"/>
        <pt x="235" y="448" on="1"/>
        <pt x="268" y="448" on="0"/>
      </contour>
      <contour>
        <pt x="338" y="259" on="1"/>
        <pt x="338" y="295" on="0"/>
        <pt x="334" y="323" on="1"/>
        <pt x="274" y="333" on="0"/>
        <pt x="189" y="333" on="0"/>
        <pt x="122" y="274" on="0"/>
        <pt x="122" y="175" on="0"/>
        <pt x="176" y="115" on="0"/>
        <pt x="275" y="115" on="0"/>
        <pt x="338" y="185" on="0"/>
      </contour>
    </TTGlyph>
    <TTGlyph name="percent" xMin="30" yMin="-6" xMax="693" yMax="696">
      <contour>
        <pt x="588" y="200" on="0"/>
        <pt x="567" y="246" on="0"/>
        <pt x="527" y="246" on="0"/>
        <pt x="505" y="199" on="0"/>
        <pt x="505" y="164" on="1"/>
        <pt x="505" y="84" on="0"/>
        <pt x="545" y="84" on="1"/>
        <pt x="588" y="84" on="0"/>
        <pt x="588" y="164" on="1"/>
      </contour>
      <contour>
        <pt x="545" y="336" on="1"/>
        <pt x="693" y="336" on="0"/>
        <pt x="693" y="-6" on="0"/>
        <pt x="543" y="-6" on="1"/>
        <pt x="470" y="-6" on="0"/>
        <pt x="400" y="85" on="0"/>
        <pt x="400" y="236" on="0"/>
        <pt x="471" y="336" on="0"/>
      </contour>
      <contour>
        <pt x="218" y="560" on="0"/>
        <pt x="197" y="606" on="0"/>
        <pt x="157" y="606" on="0"/>
        <pt x="135" y="559" on="0"/>
        <pt x="135" y="524" on="1"/>
        <pt x="135" y="444" on="0"/>
        <pt x="175" y="444" on="1"/>
        <pt x="218" y="444" on="0"/>
        <pt x="218" y="524" on="1"/>
      </contour>
      <contour>
        <pt x="175" y="696" on="1"/>
        <pt x="323" y="696" on="0"/>
        <pt x="323" y="354" on="0"/>
        <pt x="173" y="354" on="1"/>
        <pt x="100" y="354" on="0"/>
        <pt x="30" y="445" on="0"/>
        <pt x="30" y="596" on="0"/>
        <pt x="101" y="696" on="0"/>
      </contour>
      <contour>
        <pt x="616" y="688" on="1"/>
        <pt x="228" y="0" on="1"/>
        <pt x="90" y="0" on="1"/>
        <pt x="478" y="688" on="1"/>
      </contour>
    </TTGlyph>
    <TTGlyph name="period" xMin="34" yMin="0" xMax="149" yMax="136">
      <contour>
        <pt x="149" y="0" on="1"/>
        <pt x="34" y="0" on="1"/>
        <pt x="34" y="136" on="1"/>
        <pt x="149" y="136" on="1"/>
      </contour>
    </TTGlyph>
    <TTGlyph name="periodcentered" xMin="33" yMin="231" xMax="148" yMax="367">
      <contour>
        <pt x="148" y="231" on="1"/>
        <pt x="33" y="231" on="1"/>
        <pt x="33" y="367" on="1"/>
        <pt x="148" y="367" on="1"/>
      </contour>
    </TTGlyph>
    <TTGlyph name="perthousand" xMin="30" yMin="-6" xMax="1015" yMax="696">
      <contour>
        <pt x="588" y="200" on="0"/>
        <pt x="567" y="246" on="0"/>
        <pt x="527" y="246" on="0"/>
        <pt x="505" y="199" on="0"/>
        <pt x="505" y="164" on="1"/>
        <pt x="505" y="84" on="0"/>
        <pt x="545" y="84" on="1"/>
        <pt x="588" y="84" on="0"/>
        <pt x="588" y="164" on="1"/>
      </contour>
      <contour>
        <pt x="545" y="336" on="1"/>
        <pt x="693" y="336" on="0"/>
        <pt x="693" y="-6" on="0"/>
        <pt x="543" y="-6" on="1"/>
        <pt x="470" y="-6" on="0"/>
        <pt x="400" y="85" on="0"/>
        <pt x="400" y="236" on="0"/>
        <pt x="471" y="336" on="0"/>
      </contour>
      <contour>
        <pt x="218" y="560" on="0"/>
        <pt x="197" y="606" on="0"/>
        <pt x="157" y="606" on="0"/>
        <pt x="135" y="559" on="0"/>
        <pt x="135" y="524" on="1"/>
        <pt x="135" y="444" on="0"/>
        <pt x="175" y="444" on="1"/>
        <pt x="218" y="444" on="0"/>
        <pt x="218" y="524" on="1"/>
      </contour>
      <contour>
        <pt x="175" y="696" on="1"/>
        <pt x="323" y="696" on="0"/>
        <pt x="323" y="354" on="0"/>
        <pt x="173" y="354" on="1"/>
        <pt x="100" y="354" on="0"/>
        <pt x="30" y="445" on="0"/>
        <pt x="30" y="596" on="0"/>
        <pt x="101" y="696" on="0"/>
      </contour>
      <contour>
        <pt x="910" y="200" on="0"/>
        <pt x="889" y="246" on="0"/>
        <pt x="849" y="246" on="0"/>
        <pt x="827" y="199" on="0"/>
        <pt x="827" y="164" on="1"/>
        <pt x="827" y="84" on="0"/>
        <pt x="867" y="84" on="1"/>
        <pt x="910" y="84" on="0"/>
        <pt x="910" y="164" on="1"/>
      </contour>
      <contour>
        <pt x="867" y="336" on="1"/>
        <pt x="1015" y="336" on="0"/>
        <pt x="1015" y="-6" on="0"/>
        <pt x="865" y="-6" on="1"/>
        <pt x="792" y="-6" on="0"/>
        <pt x="722" y="85" on="0"/>
        <pt x="722" y="236" on="0"/>
        <pt x="793" y="336" on="0"/>
      </contour>
      <contour>
        <pt x="616" y="688" on="1"/>
        <pt x="228" y="0" on="1"/>
        <pt x="90" y="0" on="1"/>
        <pt x="478" y="688" on="1"/>
      </contour>
    </TTGlyph>
    <TTGlyph name="pi" xMin="30" yMin="0" xMax="539" yMax="544">
      <contour>
        <pt x="539" y="544" on="1"/>
        <pt x="539" y="439" on="1"/>
        <pt x="453" y="439" on="1"/>
        <pt x="453" y="0" on="1"/>
        <pt x="339" y="0" on="1"/>
        <pt x="339" y="439" on="1"/>
        <pt x="227" y="439" on="1"/>
        <pt x="227" y="0" on="1"/>
        <pt x="112" y="0" on="1"/>
        <pt x="112" y="439" on="1"/>
        <pt x="30" y="439" on="1"/>
        <pt x="30" y="544" on="1"/>
      </contour>
    </TTGlyph>
    <TTGlyph name="plus" xMin="28" yMin="69" xMax="440" yMax="527">
      <contour>
        <pt x="440" y="242" on="1"/>
        <pt x="287" y="242" on="1"/>
        <pt x="287" y="69" on="1"/>
        <pt x="172" y="69" on="1"/>
        <pt x="172" y="242" on="1"/>
        <pt x="28" y="242" on="1"/>
        <pt x="28" y="347" on="1"/>
        <pt x="172" y="347" on="1"/>
        <pt x="172" y="527" on="1"/>
        <pt x="287" y="527" on="1"/>
        <pt x="287" y="347" on="1"/>
        <pt x="440" y="347" on="1"/>
      </contour>
    </TTGlyph>
    <TTGlyph name="plusminus" xMin="36" yMin="-1" xMax="468" yMax="622">
      <contour>
        <pt x="468" y="337" on="1"/>
        <pt x="305" y="337" on="1"/>
        <pt x="305" y="164" on="1"/>
        <pt x="190" y="164" on="1"/>
        <pt x="190" y="337" on="1"/>
        <pt x="36" y="337" on="1"/>
        <pt x="36" y="442" on="1"/>
        <pt x="190" y="442" on="1"/>
        <pt x="190" y="622" on="1"/>
        <pt x="305" y="622" on="1"/>
        <pt x="305" y="442" on="1"/>
        <pt x="468" y="442" on="1"/>
      </contour>
      <contour>
        <pt x="468" y="-1" on="1"/>
        <pt x="36" y="-1" on="1"/>
        <pt x="36" y="104" on="1"/>
        <pt x="468" y="104" on="1"/>
      </contour>
    </TTGlyph>
    <TTGlyph name="product" xMin="-13" yMin="0" xMax="450" yMax="700">
      <contour>
        <pt x="132" y="0" on="1"/>
        <pt x="-13" y="0" on="1"/>
        <pt x="-13" y="700" on="1"/>
        <pt x="450" y="700" on="1"/>
        <pt x="450" y="0" on="1"/>
        <pt x="305" y="0" on="1"/>
        <pt x="305" y="585" on="1"/>
        <pt x="132" y="585" on="1"/>
      </contour>
    </TTGlyph>
    <TTGlyph name="q" xMin="32" yMin="-236" xMax="461" yMax="510">
      <contour>
        <pt x="331" y="158" on="1"/>
        <pt x="331" y="349" on="1"/>
        <pt x="317" y="367" on="0"/>
        <pt x="258" y="395" on="0"/>
        <pt x="226" y="395" on="1"/>
        <pt x="162" y="395" on="0"/>
        <pt x="162" y="255" on="1"/>
        <pt x="162" y="147" on="0"/>
        <pt x="203" y="120" on="1"/>
        <pt x="221" y="108" on="0"/>
        <pt x="272" y="108" on="0"/>
        <pt x="318" y="135" on="0"/>
      </contour>
      <contour>
        <pt x="331" y="46" on="1"/>
        <pt x="278" y="-7" on="0"/>
        <pt x="132" y="-7" on="0"/>
        <pt x="32" y="111" on="0"/>
        <pt x="32" y="361" on="0"/>
        <pt x="125" y="510" on="0"/>
        <pt x="225" y="510" on="1"/>
        <pt x="281" y="510" on="0"/>
        <pt x="336" y="453" on="1"/>
        <pt x="362" y="500" on="1"/>
        <pt x="461" y="500" on="1"/>
        <pt x="461" y="-236" on="1"/>
        <pt x="331" y="-236" on="1"/>
      </contour>
    </TTGlyph>
    <TTGlyph name="question" xMin="70" yMin="0" xMax="408" yMax="710">
      <contour>
        <pt x="356" y="408" on="1"/>
        <pt x="335" y="386" on="0"/>
        <pt x="314" y="366" on="1"/>
        <pt x="262" y="316" on="0"/>
        <pt x="262" y="257" on="1"/>
        <pt x="262" y="194" on="1"/>
        <pt x="138" y="194" on="1"/>
        <pt x="138" y="252" on="1"/>
        <pt x="138" y="337" on="0"/>
        <pt x="189" y="393" on="1"/>
        <pt x="210" y="416" on="0"/>
        <pt x="232" y="436" on="1"/>
        <pt x="283" y="486" on="0"/>
        <pt x="283" y="541" on="1"/>
        <pt x="283" y="594" on="0"/>
        <pt x="147" y="594" on="0"/>
        <pt x="91" y="575" on="1"/>
        <pt x="70" y="683" on="1"/>
        <pt x="156" y="710" on="0"/>
        <pt x="310" y="710" on="0"/>
        <pt x="408" y="623" on="0"/>
        <pt x="408" y="462" on="0"/>
      </contour>
      <contour>
        <pt x="261" y="0" on="1"/>
        <pt x="136" y="0" on="1"/>
        <pt x="136" y="138" on="1"/>
        <pt x="261" y="138" on="1"/>
      </contour>
    </TTGlyph>
    <TTGlyph name="questiondown" xMin="55" yMin="-102" xMax="393" yMax="608">
      <contour>
        <pt x="106" y="200" on="1"/>
        <pt x="128" y="222" on="0"/>
        <pt x="150" y="242" on="1"/>
        <pt x="201" y="292" on="0"/>
        <pt x="201" y="351" on="1"/>
        <pt x="201" y="414" on="1"/>
        <pt x="325" y="414" on="1"/>
        <pt x="325" y="356" on="1"/>
        <pt x="325" y="270" on="0"/>
        <pt x="274" y="215" on="1"/>
        <pt x="252" y="192" on="0"/>
        <pt x="231" y="172" on="1"/>
        <pt x="180" y="122" on="0"/>
        <pt x="180" y="14" on="0"/>
        <pt x="316" y="14" on="0"/>
        <pt x="372" y="33" on="1"/>
        <pt x="393" y="-75" on="1"/>
        <pt x="307" y="-102" on="0"/>
        <pt x="153" y="-102" on="0"/>
        <pt x="55" y="-15" on="0"/>
        <pt x="55" y="146" on="0"/>
      </contour>
      <contour>
        <pt x="202" y="608" on="1"/>
        <pt x="327" y="608" on="1"/>
        <pt x="327" y="470" on="1"/>
        <pt x="202" y="470" on="1"/>
      </contour>
    </TTGlyph>
    <TTGlyph name="quotedbl" xMin="54" yMin="441" xMax="324" yMax="700">
      <contour>
        <pt x="54" y="700" on="1"/>
        <pt x="165" y="700" on="1"/>
        <pt x="165" y="441" on="1"/>
        <pt x="54" y="441" on="1"/>
      </contour>
      <contour>
        <pt x="213" y="700" on="1"/>
        <pt x="324" y="700" on="1"/>
        <pt x="324" y="441" on="1"/>
        <pt x="213" y="441" on="1"/>
      </contour>
    </TTGlyph>
    <TTGlyph name="quotedblbase" xMin="21" yMin="-162" xMax="430" yMax="122">
      <contour>
        <pt x="230" y="86" on="1"/>
        <pt x="117" y="-162" on="1"/>
        <pt x="21" y="-132" on="1"/>
        <pt x="109" y="122" on="1"/>
      </contour>
      <contour>
        <pt x="430" y="86" on="1"/>
        <pt x="317" y="-162" on="1"/>
        <pt x="221" y="-132" on="1"/>
        <pt x="309" y="122" on="1"/>
      </contour>
    </TTGlyph>
    <TTGlyph name="quotedblleft" xMin="37" yMin="475" xMax="442" yMax="769">
      <contour>
        <pt x="37" y="512" on="1"/>
        <pt x="151" y="769" on="1"/>
        <pt x="242" y="741" on="1"/>
        <pt x="159" y="475" on="1"/>
      </contour>
      <contour>
        <pt x="237" y="512" on="1"/>
        <pt x="351" y="769" on="1"/>
        <pt x="442" y="741" on="1"/>
        <pt x="359" y="475" on="1"/>
      </contour>
    </TTGlyph>
    <TTGlyph name="quotedblright" xMin="23" yMin="475" xMax="428" yMax="769">
      <contour>
        <pt x="228" y="732" on="1"/>
        <pt x="114" y="475" on="1"/>
        <pt x="23" y="503" on="1"/>
        <pt x="106" y="769" on="1"/>
      </contour>
      <contour>
        <pt x="428" y="732" on="1"/>
        <pt x="314" y="475" on="1"/>
        <pt x="223" y="503" on="1"/>
        <pt x="306" y="769" on="1"/>
      </contour>
    </TTGlyph>
    <TTGlyph name="quoteleft" xMin="37" yMin="475" xMax="242" yMax="769">
      <contour>
        <pt x="37" y="512" on="1"/>
        <pt x="151" y="769" on="1"/>
        <pt x="242" y="741" on="1"/>
        <pt x="159" y="475" on="1"/>
      </contour>
    </TTGlyph>
    <TTGlyph name="quoteright" xMin="23" yMin="475" xMax="228" yMax="769">
      <contour>
        <pt x="228" y="732" on="1"/>
        <pt x="114" y="475" on="1"/>
        <pt x="23" y="503" on="1"/>
        <pt x="106" y="769" on="1"/>
      </contour>
    </TTGlyph>
    <TTGlyph name="quotesinglbase" xMin="21" yMin="-162" xMax="230" yMax="122">
      <contour>
        <pt x="230" y="86" on="1"/>
        <pt x="117" y="-162" on="1"/>
        <pt x="21" y="-132" on="1"/>
        <pt x="109" y="122" on="1"/>
      </contour>
    </TTGlyph>
    <TTGlyph name="quotesingle" xMin="37" yMin="441" xMax="148" yMax="700">
      <contour>
        <pt x="37" y="700" on="1"/>
        <pt x="148" y="700" on="1"/>
        <pt x="148" y="441" on="1"/>
        <pt x="37" y="441" on="1"/>
      </contour>
    </TTGlyph>
    <TTGlyph name="r" xMin="81" yMin="0" xMax="368" yMax="510">
      <contour>
        <pt x="212" y="332" on="1"/>
        <pt x="212" y="0" on="1"/>
        <pt x="81" y="0" on="1"/>
        <pt x="81" y="500" on="1"/>
        <pt x="185" y="500" on="1"/>
        <pt x="197" y="451" on="1"/>
        <pt x="237" y="483" on="0"/>
        <pt x="291" y="510" on="0"/>
        <pt x="332" y="510" on="0"/>
        <pt x="346" y="509" on="0"/>
        <pt x="356" y="507" on="0"/>
        <pt x="368" y="504" on="1"/>
        <pt x="356" y="385" on="1"/>
        <pt x="338" y="391" on="0"/>
        <pt x="307" y="391" on="1"/>
        <pt x="265" y="391" on="0"/>
      </contour>
    </TTGlyph>
    <TTGlyph name="radical" xMin="1" yMin="0" xMax="599" yMax="800">
      <contour>
        <pt x="196" y="0" on="1"/>
        <pt x="107" y="385" on="1"/>
        <pt x="1" y="385" on="1"/>
        <pt x="1" y="500" on="1"/>
        <pt x="206" y="500" on="1"/>
        <pt x="282" y="125" on="1"/>
        <pt x="457" y="800" on="1"/>
        <pt x="599" y="800" on="1"/>
        <pt x="361" y="0" on="1"/>
      </contour>
    </TTGlyph>
    <TTGlyph name="rcaron" xMin="43" yMin="0" xMax="384" yMax="743">
      <contour>
        <pt x="212" y="332" on="1"/>
        <pt x="212" y="0" on="1"/>
        <pt x="81" y="0" on="1"/>
        <pt x="81" y="500" on="1"/>
        <pt x="185" y="500" on="1"/>
        <pt x="197" y="451" on="1"/>
        <pt x="237" y="483" on="0"/>
        <pt x="291" y="510" on="0"/>
        <pt x="332" y="510" on="0"/>
        <pt x="346" y="509" on="0"/>
        <pt x="356" y="507" on="0"/>
        <pt x="368" y="504" on="1"/>
        <pt x="356" y="385" on="1"/>
        <pt x="338" y="391" on="0"/>
        <pt x="307" y="391" on="1"/>
        <pt x="265" y="391" on="0"/>
      </contour>
      <contour>
        <pt x="256" y="589" on="1"/>
        <pt x="169" y="589" on="1"/>
        <pt x="43" y="679" on="1"/>
        <pt x="87" y="743" on="1"/>
        <pt x="213" y="678" on="1"/>
        <pt x="340" y="743" on="1"/>
        <pt x="384" y="679" on="1"/>
      </contour>
    </TTGlyph>
    <TTGlyph name="rcommaaccent" xMin="32" yMin="-217" xMax="368" yMax="510">
      <contour>
        <pt x="212" y="332" on="1"/>
        <pt x="212" y="0" on="1"/>
        <pt x="81" y="0" on="1"/>
        <pt x="81" y="500" on="1"/>
        <pt x="185" y="500" on="1"/>
        <pt x="197" y="451" on="1"/>
        <pt x="237" y="483" on="0"/>
        <pt x="291" y="510" on="0"/>
        <pt x="332" y="510" on="0"/>
        <pt x="346" y="509" on="0"/>
        <pt x="356" y="507" on="0"/>
        <pt x="368" y="504" on="1"/>
        <pt x="356" y="385" on="1"/>
        <pt x="338" y="391" on="0"/>
        <pt x="307" y="391" on="1"/>
        <pt x="265" y="391" on="0"/>
      </contour>
      <contour>
        <pt x="184" y="-40" on="1"/>
        <pt x="184" y="-88" on="0"/>
        <pt x="161" y="-152" on="0"/>
        <pt x="121" y="-217" on="1"/>
        <pt x="32" y="-186" on="1"/>
        <pt x="58" y="-133" on="0"/>
        <pt x="73" y="-84" on="0"/>
        <pt x="73" y="-40" on="1"/>
      </contour>
    </TTGlyph>
    <TTGlyph name="registered" xMin="56" yMin="164" xMax="494" yMax="712">
      <contour>
        <pt x="414" y="526" on="0"/>
        <pt x="336" y="642" on="0"/>
        <pt x="205" y="642" on="0"/>
        <pt x="141" y="528" on="0"/>
        <pt x="141" y="346" on="0"/>
        <pt x="213" y="234" on="0"/>
        <pt x="339" y="234" on="0"/>
        <pt x="414" y="341" on="0"/>
      </contour>
      <contour>
        <pt x="377" y="164" on="0"/>
        <pt x="167" y="164" on="0"/>
        <pt x="56" y="310" on="0"/>
        <pt x="56" y="566" on="0"/>
        <pt x="163" y="712" on="0"/>
        <pt x="374" y="712" on="0"/>
        <pt x="494" y="564" on="0"/>
        <pt x="494" y="311" on="0"/>
      </contour>
      <contour>
        <pt x="273" y="426" on="1"/>
        <pt x="261" y="426" on="1"/>
        <pt x="261" y="305" on="1"/>
        <pt x="186" y="305" on="1"/>
        <pt x="186" y="584" on="1"/>
        <pt x="272" y="584" on="1"/>
        <pt x="367" y="584" on="0"/>
        <pt x="367" y="512" on="1"/>
        <pt x="367" y="489" on="0"/>
        <pt x="344" y="449" on="0"/>
        <pt x="329" y="447" on="1"/>
        <pt x="345" y="442" on="0"/>
        <pt x="359" y="425" on="0"/>
        <pt x="367" y="399" on="1"/>
        <pt x="381" y="305" on="1"/>
        <pt x="315" y="305" on="1"/>
        <pt x="301" y="384" on="1"/>
        <pt x="294" y="426" on="0"/>
      </contour>
      <contour>
        <pt x="273" y="528" on="1"/>
        <pt x="261" y="528" on="1"/>
        <pt x="261" y="485" on="1"/>
        <pt x="272" y="485" on="1"/>
        <pt x="297" y="485" on="0"/>
        <pt x="297" y="512" on="1"/>
        <pt x="297" y="528" on="0"/>
      </contour>
    </TTGlyph>
    <TTGlyph name="ring" xMin="77" yMin="552" xMax="321" yMax="772">
      <contour>
        <pt x="138" y="772" on="0"/>
        <pt x="258" y="772" on="0"/>
        <pt x="321" y="711" on="0"/>
        <pt x="321" y="611" on="0"/>
        <pt x="261" y="552" on="0"/>
        <pt x="137" y="552" on="0"/>
        <pt x="77" y="611" on="0"/>
        <pt x="77" y="711" on="0"/>
      </contour>
      <contour>
        <pt x="199" y="703" on="1"/>
        <pt x="163" y="703" on="0"/>
        <pt x="163" y="623" on="0"/>
        <pt x="199" y="623" on="1"/>
        <pt x="237" y="623" on="0"/>
        <pt x="237" y="703" on="0"/>
      </contour>
    </TTGlyph>
    <TTGlyph name="s" xMin="44" yMin="-6" xMax="409" yMax="510">
      <contour>
        <pt x="72" y="133" on="1"/>
        <pt x="139" y="99" on="0"/>
        <pt x="280" y="99" on="0"/>
        <pt x="280" y="151" on="1"/>
        <pt x="280" y="199" on="0"/>
        <pt x="200" y="222" on="1"/>
        <pt x="166" y="231" on="0"/>
        <pt x="99" y="256" on="0"/>
        <pt x="52" y="313" on="0"/>
        <pt x="52" y="358" on="1"/>
        <pt x="52" y="431" on="0"/>
        <pt x="142" y="510" on="0"/>
        <pt x="303" y="510" on="0"/>
        <pt x="375" y="482" on="1"/>
        <pt x="354" y="378" on="1"/>
        <pt x="288" y="405" on="0"/>
        <pt x="225" y="405" on="1"/>
        <pt x="181" y="405" on="0"/>
        <pt x="181" y="375" on="1"/>
        <pt x="181" y="344" on="0"/>
        <pt x="240" y="328" on="1"/>
        <pt x="302" y="312" on="0"/>
        <pt x="350" y="282" on="1"/>
        <pt x="375" y="267" on="0"/>
        <pt x="409" y="207" on="0"/>
        <pt x="409" y="165" on="1"/>
        <pt x="409" y="86" on="0"/>
        <pt x="303" y="-6" on="0"/>
        <pt x="117" y="-6" on="0"/>
        <pt x="44" y="37" on="1"/>
      </contour>
    </TTGlyph>
    <TTGlyph name="scaron" xMin="40" yMin="-6" xMax="405" yMax="743">
      <contour>
        <pt x="68" y="133" on="1"/>
        <pt x="135" y="99" on="0"/>
        <pt x="276" y="99" on="0"/>
        <pt x="276" y="151" on="1"/>
        <pt x="276" y="199" on="0"/>
        <pt x="196" y="222" on="1"/>
        <pt x="162" y="231" on="0"/>
        <pt x="95" y="256" on="0"/>
        <pt x="48" y="313" on="0"/>
        <pt x="48" y="358" on="1"/>
        <pt x="48" y="431" on="0"/>
        <pt x="138" y="510" on="0"/>
        <pt x="299" y="510" on="0"/>
        <pt x="371" y="482" on="1"/>
        <pt x="350" y="378" on="1"/>
        <pt x="284" y="405" on="0"/>
        <pt x="221" y="405" on="1"/>
        <pt x="177" y="405" on="0"/>
        <pt x="177" y="375" on="1"/>
        <pt x="177" y="344" on="0"/>
        <pt x="236" y="328" on="1"/>
        <pt x="298" y="312" on="0"/>
        <pt x="346" y="282" on="1"/>
        <pt x="371" y="267" on="0"/>
        <pt x="405" y="207" on="0"/>
        <pt x="405" y="165" on="1"/>
        <pt x="405" y="86" on="0"/>
        <pt x="299" y="-6" on="0"/>
        <pt x="113" y="-6" on="0"/>
        <pt x="40" y="37" on="1"/>
      </contour>
      <contour>
        <pt x="264" y="589" on="1"/>
        <pt x="177" y="589" on="1"/>
        <pt x="51" y="679" on="1"/>
        <pt x="95" y="743" on="1"/>
        <pt x="221" y="678" on="1"/>
        <pt x="348" y="743" on="1"/>
        <pt x="392" y="679" on="1"/>
      </contour>
    </TTGlyph>
    <TTGlyph name="section" xMin="56" yMin="-157" xMax="544" yMax="710">
      <contour>
        <pt x="246" y="386" on="1"/>
        <pt x="201" y="348" on="0"/>
        <pt x="201" y="286" on="0"/>
        <pt x="254" y="251" on="0"/>
        <pt x="352" y="217" on="0"/>
        <pt x="373" y="205" on="1"/>
        <pt x="375" y="207" on="0"/>
        <pt x="382" y="215" on="0"/>
        <pt x="385" y="218" on="0"/>
        <pt x="391" y="226" on="0"/>
        <pt x="393" y="231" on="0"/>
        <pt x="396" y="239" on="0"/>
        <pt x="397" y="243" on="1"/>
        <pt x="399" y="251" on="0"/>
        <pt x="399" y="264" on="1"/>
        <pt x="399" y="294" on="0"/>
        <pt x="358" y="333" on="0"/>
        <pt x="262" y="376" on="0"/>
      </contour>
      <contour>
        <pt x="137" y="-9" on="1"/>
        <pt x="211" y="-52" on="0"/>
        <pt x="365" y="-52" on="0"/>
        <pt x="365" y="2" on="1"/>
        <pt x="365" y="42" on="0"/>
        <pt x="302" y="101" on="0"/>
        <pt x="211" y="140" on="0"/>
        <pt x="120" y="183" on="0"/>
        <pt x="56" y="259" on="0"/>
        <pt x="56" y="312" on="1"/>
        <pt x="56" y="397" on="0"/>
        <pt x="165" y="477" on="1"/>
        <pt x="138" y="514" on="0"/>
        <pt x="138" y="562" on="1"/>
        <pt x="138" y="638" on="0"/>
        <pt x="234" y="710" on="0"/>
        <pt x="333" y="710" on="1"/>
        <pt x="402" y="710" on="0"/>
        <pt x="465" y="690" on="1"/>
        <pt x="485" y="683" on="1"/>
        <pt x="468" y="581" on="1"/>
        <pt x="401" y="605" on="0"/>
        <pt x="331" y="605" on="1"/>
        <pt x="313" y="605" on="0"/>
        <pt x="284" y="582" on="0"/>
        <pt x="284" y="529" on="0"/>
        <pt x="337" y="477" on="0"/>
        <pt x="414" y="435" on="0"/>
        <pt x="490" y="388" on="0"/>
        <pt x="544" y="313" on="0"/>
        <pt x="544" y="219" on="0"/>
        <pt x="506" y="155" on="0"/>
        <pt x="458" y="117" on="1"/>
        <pt x="510" y="71" on="0"/>
        <pt x="510" y="-69" on="0"/>
        <pt x="388" y="-157" on="0"/>
        <pt x="280" y="-157" on="1"/>
        <pt x="239" y="-157" on="0"/>
        <pt x="139" y="-131" on="0"/>
        <pt x="108" y="-114" on="1"/>
      </contour>
    </TTGlyph>
    <TTGlyph name="semicolon" xMin="-7" yMin="-170" xMax="205" yMax="500">
      <contour>
        <pt x="205" y="129" on="1"/>
        <pt x="92" y="-170" on="1"/>
        <pt x="-7" y="-139" on="1"/>
        <pt x="83" y="168" on="1"/>
      </contour>
      <contour>
        <pt x="204" y="354" on="1"/>
        <pt x="79" y="354" on="1"/>
        <pt x="79" y="500" on="1"/>
        <pt x="204" y="500" on="1"/>
      </contour>
    </TTGlyph>
    <TTGlyph name="seven" xMin="16" yMin="0" xMax="487" yMax="700">
      <contour>
        <pt x="16" y="585" on="1"/>
        <pt x="16" y="700" on="1"/>
        <pt x="487" y="700" on="1"/>
        <pt x="487" y="585" on="1"/>
        <pt x="187" y="0" on="1"/>
        <pt x="54" y="0" on="1"/>
        <pt x="348" y="585" on="1"/>
      </contour>
    </TTGlyph>
    <TTGlyph name="six" xMin="62" yMin="-6" xMax="532" yMax="710">
      <contour>
        <pt x="304" y="443" on="1"/>
        <pt x="413" y="443" on="0"/>
        <pt x="532" y="329" on="0"/>
        <pt x="532" y="119" on="0"/>
        <pt x="409" y="-6" on="0"/>
        <pt x="304" y="-6" on="1"/>
        <pt x="62" y="-6" on="0"/>
        <pt x="62" y="310" on="1"/>
        <pt x="62" y="602" on="0"/>
        <pt x="202" y="679" on="1"/>
        <pt x="258" y="710" on="0"/>
        <pt x="338" y="710" on="1"/>
        <pt x="380" y="710" on="0"/>
        <pt x="460" y="694" on="0"/>
        <pt x="480" y="686" on="1"/>
        <pt x="499" y="677" on="1"/>
        <pt x="471" y="577" on="1"/>
        <pt x="401" y="604" on="0"/>
        <pt x="329" y="604" on="1"/>
        <pt x="192" y="604" on="0"/>
        <pt x="179" y="416" on="1"/>
        <pt x="243" y="443" on="0"/>
      </contour>
      <contour>
        <pt x="309" y="99" on="1"/>
        <pt x="358" y="99" on="0"/>
        <pt x="417" y="164" on="0"/>
        <pt x="417" y="213" on="1"/>
        <pt x="417" y="338" on="0"/>
        <pt x="300" y="338" on="1"/>
        <pt x="239" y="338" on="0"/>
        <pt x="177" y="301" on="1"/>
        <pt x="177" y="200" on="0"/>
        <pt x="238" y="99" on="0"/>
      </contour>
    </TTGlyph>
    <TTGlyph name="slash" xMin="37" yMin="-145" xMax="461" yMax="800">
      <contour>
        <pt x="461" y="800" on="1"/>
        <pt x="167" y="-145" on="1"/>
        <pt x="37" y="-145" on="1"/>
        <pt x="332" y="800" on="1"/>
      </contour>
    </TTGlyph>
    <TTGlyph name="sterling" xMin="40" yMin="0" xMax="495" yMax="711">
      <contour>
        <pt x="233" y="415" on="1"/>
        <pt x="390" y="415" on="1"/>
        <pt x="390" y="305" on="1"/>
        <pt x="233" y="305" on="1"/>
        <pt x="233" y="115" on="1"/>
        <pt x="495" y="115" on="1"/>
        <pt x="495" y="0" on="1"/>
        <pt x="108" y="0" on="1"/>
        <pt x="108" y="305" on="1"/>
        <pt x="40" y="305" on="1"/>
        <pt x="40" y="415" on="1"/>
        <pt x="108" y="415" on="1"/>
        <pt x="108" y="596" on="1"/>
        <pt x="108" y="657" on="0"/>
        <pt x="197" y="711" on="0"/>
        <pt x="305" y="711" on="0"/>
        <pt x="365" y="692" on="1"/>
        <pt x="344" y="583" on="1"/>
        <pt x="314" y="594" on="0"/>
        <pt x="275" y="594" on="1"/>
        <pt x="256" y="594" on="0"/>
        <pt x="233" y="558" on="0"/>
        <pt x="233" y="524" on="1"/>
      </contour>
    </TTGlyph>
    <TTGlyph name="summation" xMin="-13" yMin="0" xMax="389" yMax="700">
      <contour>
        <pt x="389" y="0" on="1"/>
        <pt x="-13" y="0" on="1"/>
        <pt x="-13" y="111" on="1"/>
        <pt x="181" y="339" on="1"/>
        <pt x="-3" y="590" on="1"/>
        <pt x="-3" y="700" on="1"/>
        <pt x="378" y="700" on="1"/>
        <pt x="378" y="585" on="1"/>
        <pt x="166" y="585" on="1"/>
        <pt x="335" y="343" on="1"/>
        <pt x="152" y="115" on="1"/>
        <pt x="389" y="115" on="1"/>
      </contour>
    </TTGlyph>
    <TTGlyph name="t" xMin="25" yMin="-6" xMax="316" yMax="643">
      <contour>
        <pt x="76" y="108" on="1"/>
        <pt x="76" y="390" on="1"/>
        <pt x="25" y="390" on="1"/>
        <pt x="25" y="500" on="1"/>
        <pt x="77" y="500" on="1"/>
        <pt x="77" y="643" on="1"/>
        <pt x="206" y="643" on="1"/>
        <pt x="206" y="500" on="1"/>
        <pt x="311" y="500" on="1"/>
        <pt x="311" y="390" on="1"/>
        <pt x="205" y="390" on="1"/>
        <pt x="205" y="172" on="1"/>
        <pt x="205" y="105" on="0"/>
        <pt x="246" y="105" on="1"/>
        <pt x="269" y="105" on="0"/>
        <pt x="295" y="111" on="1"/>
        <pt x="316" y="7" on="1"/>
        <pt x="270" y="-6" on="0"/>
        <pt x="167" y="-6" on="0"/>
        <pt x="76" y="47" on="0"/>
      </contour>
    </TTGlyph>
    <TTGlyph name="thorn" xMin="71" yMin="-236" xMax="494" yMax="700">
      <contour>
        <pt x="71" y="700" on="1"/>
        <pt x="201" y="700" on="1"/>
        <pt x="201" y="464" on="1"/>
        <pt x="278" y="510" on="0"/>
        <pt x="334" y="510" on="1"/>
        <pt x="407" y="510" on="0"/>
        <pt x="494" y="379" on="0"/>
        <pt x="494" y="132" on="0"/>
        <pt x="394" y="0" on="0"/>
        <pt x="315" y="0" on="1"/>
        <pt x="254" y="0" on="0"/>
        <pt x="201" y="34" on="1"/>
        <pt x="201" y="-236" on="1"/>
        <pt x="71" y="-236" on="1"/>
      </contour>
      <contour>
        <pt x="288" y="111" on="1"/>
        <pt x="366" y="111" on="0"/>
        <pt x="366" y="394" on="0"/>
        <pt x="292" y="394" on="1"/>
        <pt x="254" y="394" on="0"/>
        <pt x="201" y="359" on="1"/>
        <pt x="201" y="156" on="1"/>
        <pt x="254" y="111" on="0"/>
      </contour>
    </TTGlyph>
    <TTGlyph name="three" xMin="39" yMin="-6" xMax="484" yMax="710">
      <contour>
        <pt x="126" y="411" on="1"/>
        <pt x="231" y="411" on="1"/>
        <pt x="282" y="411" on="0"/>
        <pt x="341" y="470" on="0"/>
        <pt x="341" y="514" on="1"/>
        <pt x="341" y="600" on="0"/>
        <pt x="242" y="600" on="1"/>
        <pt x="208" y="600" on="0"/>
        <pt x="128" y="580" on="0"/>
        <pt x="104" y="570" on="1"/>
        <pt x="81" y="559" on="1"/>
        <pt x="57" y="662" on="1"/>
        <pt x="90" y="681" on="0"/>
        <pt x="195" y="710" on="0"/>
        <pt x="239" y="710" on="1"/>
        <pt x="351" y="710" on="0"/>
        <pt x="461" y="609" on="0"/>
        <pt x="461" y="522" on="1"/>
        <pt x="461" y="461" on="0"/>
        <pt x="403" y="370" on="0"/>
        <pt x="357" y="359" on="1"/>
        <pt x="412" y="350" on="0"/>
        <pt x="484" y="269" on="0"/>
        <pt x="484" y="207" on="1"/>
        <pt x="484" y="107" on="0"/>
        <pt x="351" y="-6" on="0"/>
        <pt x="231" y="-6" on="1"/>
        <pt x="180" y="-6" on="0"/>
        <pt x="84" y="18" on="0"/>
        <pt x="62" y="30" on="1"/>
        <pt x="39" y="41" on="1"/>
        <pt x="79" y="142" on="1"/>
        <pt x="159" y="104" on="0"/>
        <pt x="300" y="104" on="0"/>
        <pt x="363" y="154" on="0"/>
        <pt x="363" y="244" on="0"/>
        <pt x="294" y="301" on="0"/>
        <pt x="231" y="301" on="1"/>
        <pt x="126" y="301" on="1"/>
      </contour>
    </TTGlyph>
    <TTGlyph name="threequarters" xMin="72" yMin="0" xMax="811" yMax="688">
      <contour>
        <pt x="609" y="346" on="1"/>
        <pt x="708" y="346" on="1"/>
        <pt x="593" y="131" on="1"/>
        <pt x="672" y="131" on="1"/>
        <pt x="672" y="236" on="1"/>
        <pt x="763" y="236" on="1"/>
        <pt x="763" y="130" on="1"/>
        <pt x="811" y="130" on="1"/>
        <pt x="811" y="51" on="1"/>
        <pt x="763" y="51" on="1"/>
        <pt x="763" y="0" on="1"/>
        <pt x="672" y="0" on="1"/>
        <pt x="672" y="51" on="1"/>
        <pt x="489" y="51" on="1"/>
        <pt x="489" y="122" on="1"/>
      </contour>
      <contour>
        <pt x="676" y="688" on="1"/>
        <pt x="288" y="0" on="1"/>
        <pt x="150" y="0" on="1"/>
        <pt x="538" y="688" on="1"/>
      </contour>
      <contour>
        <pt x="117" y="525" on="1"/>
        <pt x="168" y="525" on="1"/>
        <pt x="224" y="525" on="0"/>
        <pt x="224" y="557" on="1"/>
        <pt x="224" y="573" on="0"/>
        <pt x="203" y="584" on="0"/>
        <pt x="178" y="584" on="1"/>
        <pt x="137" y="584" on="0"/>
        <pt x="104" y="564" on="1"/>
        <pt x="93" y="557" on="1"/>
        <pt x="81" y="633" on="1"/>
        <pt x="127" y="662" on="0"/>
        <pt x="247" y="662" on="0"/>
        <pt x="312" y="612" on="0"/>
        <pt x="312" y="569" on="1"/>
        <pt x="312" y="542" on="0"/>
        <pt x="284" y="503" on="0"/>
        <pt x="262" y="498" on="1"/>
        <pt x="289" y="494" on="0"/>
        <pt x="324" y="453" on="0"/>
        <pt x="324" y="424" on="1"/>
        <pt x="324" y="374" on="0"/>
        <pt x="246" y="318" on="0"/>
        <pt x="177" y="318" on="1"/>
        <pt x="149" y="318" on="0"/>
        <pt x="96" y="332" on="0"/>
        <pt x="84" y="340" on="1"/>
        <pt x="72" y="347" on="1"/>
        <pt x="87" y="420" on="1"/>
        <pt x="120" y="398" on="0"/>
        <pt x="233" y="398" on="0"/>
        <pt x="233" y="429" on="1"/>
        <pt x="233" y="452" on="0"/>
        <pt x="166" y="452" on="1"/>
        <pt x="117" y="452" on="1"/>
      </contour>
    </TTGlyph>
    <TTGlyph name="threesuperior" xMin="86" yMin="318" xMax="338" yMax="662">
      <contour>
        <pt x="131" y="525" on="1"/>
        <pt x="182" y="525" on="1"/>
        <pt x="238" y="525" on="0"/>
        <pt x="238" y="557" on="1"/>
        <pt x="238" y="573" on="0"/>
        <pt x="217" y="584" on="0"/>
        <pt x="192" y="584" on="1"/>
        <pt x="151" y="584" on="0"/>
        <pt x="118" y="564" on="1"/>
        <pt x="107" y="557" on="1"/>
        <pt x="95" y="633" on="1"/>
        <pt x="141" y="662" on="0"/>
        <pt x="261" y="662" on="0"/>
        <pt x="326" y="612" on="0"/>
        <pt x="326" y="569" on="1"/>
        <pt x="326" y="542" on="0"/>
        <pt x="298" y="503" on="0"/>
        <pt x="276" y="498" on="1"/>
        <pt x="303" y="494" on="0"/>
        <pt x="338" y="453" on="0"/>
        <pt x="338" y="424" on="1"/>
        <pt x="338" y="374" on="0"/>
        <pt x="260" y="318" on="0"/>
        <pt x="191" y="318" on="1"/>
        <pt x="163" y="318" on="0"/>
        <pt x="110" y="332" on="0"/>
        <pt x="98" y="340" on="1"/>
        <pt x="86" y="347" on="1"/>
        <pt x="101" y="420" on="1"/>
        <pt x="134" y="398" on="0"/>
        <pt x="247" y="398" on="0"/>
        <pt x="247" y="429" on="1"/>
        <pt x="247" y="452" on="0"/>
        <pt x="180" y="452" on="1"/>
        <pt x="131" y="452" on="1"/>
      </contour>
    </TTGlyph>
    <TTGlyph name="tilde" xMin="78" yMin="672" xMax="459" yMax="821">
      <contour>
        <pt x="396" y="811" on="1"/>
        <pt x="459" y="764" on="1"/>
        <pt x="458" y="759" on="0"/>
        <pt x="418" y="716" on="0"/>
        <pt x="357" y="672" on="0"/>
        <pt x="310" y="672" on="0"/>
        <pt x="206" y="723" on="0"/>
        <pt x="186" y="723" on="0"/>
        <pt x="155" y="702" on="0"/>
        <pt x="145" y="691" on="1"/>
        <pt x="135" y="680" on="1"/>
        <pt x="78" y="736" on="1"/>
        <pt x="86" y="746" on="0"/>
        <pt x="111" y="774" on="0"/>
        <pt x="175" y="821" on="0"/>
        <pt x="223" y="821" on="0"/>
        <pt x="325" y="770" on="0"/>
        <pt x="346" y="770" on="0"/>
        <pt x="376" y="790" on="0"/>
        <pt x="386" y="800" on="1"/>
      </contour>
    </TTGlyph>
    <TTGlyph name="trademark" xMin="38" yMin="418" xMax="636" yMax="700">
      <contour>
        <pt x="549" y="546" on="1"/>
        <pt x="493" y="473" on="1"/>
        <pt x="465" y="473" on="1"/>
        <pt x="418" y="541" on="1"/>
        <pt x="418" y="418" on="1"/>
        <pt x="332" y="418" on="1"/>
        <pt x="332" y="700" on="1"/>
        <pt x="413" y="700" on="1"/>
        <pt x="484" y="594" on="1"/>
        <pt x="558" y="700" on="1"/>
        <pt x="636" y="700" on="1"/>
        <pt x="636" y="418" on="1"/>
        <pt x="549" y="418" on="1"/>
      </contour>
      <contour>
        <pt x="110" y="418" on="1"/>
        <pt x="110" y="622" on="1"/>
        <pt x="38" y="622" on="1"/>
        <pt x="38" y="700" on="1"/>
        <pt x="281" y="700" on="1"/>
        <pt x="281" y="622" on="1"/>
        <pt x="205" y="622" on="1"/>
        <pt x="205" y="418" on="1"/>
      </contour>
    </TTGlyph>
    <TTGlyph name="two" xMin="47" yMin="0" xMax="480" yMax="710">
      <contour>
        <pt x="480" y="110" on="1"/>
        <pt x="479" y="0" on="1"/>
        <pt x="47" y="0" on="1"/>
        <pt x="47" y="102" on="1"/>
        <pt x="207" y="261" on="0"/>
        <pt x="353" y="455" on="0"/>
        <pt x="353" y="600" on="0"/>
        <pt x="247" y="600" on="1"/>
        <pt x="171" y="600" on="0"/>
        <pt x="102" y="580" on="1"/>
        <pt x="79" y="574" on="1"/>
        <pt x="60" y="677" on="1"/>
        <pt x="140" y="710" on="0"/>
        <pt x="360" y="710" on="0"/>
        <pt x="479" y="619" on="0"/>
        <pt x="479" y="453" on="0"/>
        <pt x="352" y="253" on="0"/>
        <pt x="221" y="110" on="1"/>
      </contour>
    </TTGlyph>
    <TTGlyph name="twosuperior" xMin="91" yMin="323" xMax="350" yMax="662">
      <contour>
        <pt x="350" y="400" on="1"/>
        <pt x="341" y="323" on="1"/>
        <pt x="91" y="323" on="1"/>
        <pt x="91" y="385" on="1"/>
        <pt x="147" y="436" on="0"/>
        <pt x="172" y="460" on="1"/>
        <pt x="236" y="523" on="0"/>
        <pt x="236" y="563" on="1"/>
        <pt x="236" y="589" on="0"/>
        <pt x="195" y="589" on="1"/>
        <pt x="153" y="589" on="0"/>
        <pt x="116" y="578" on="1"/>
        <pt x="103" y="575" on="1"/>
        <pt x="110" y="645" on="1"/>
        <pt x="164" y="662" on="0"/>
        <pt x="274" y="662" on="0"/>
        <pt x="334" y="619" on="0"/>
        <pt x="334" y="539" on="0"/>
        <pt x="286" y="458" on="0"/>
        <pt x="226" y="400" on="1"/>
      </contour>
    </TTGlyph>
    <TTGlyph name="u" xMin="71" yMin="-6" xMax="495" yMax="500">
      <contour>
        <pt x="71" y="500" on="1"/>
        <pt x="203" y="500" on="1"/>
        <pt x="203" y="194" on="1"/>
        <pt x="203" y="153" on="0"/>
        <pt x="235" y="102" on="0"/>
        <pt x="309" y="102" on="0"/>
        <pt x="364" y="148" on="1"/>
        <pt x="364" y="500" on="1"/>
        <pt x="495" y="500" on="1"/>
        <pt x="495" y="0" on="1"/>
        <pt x="385" y="0" on="1"/>
        <pt x="364" y="48" on="1"/>
        <pt x="321" y="16" on="0"/>
        <pt x="258" y="-6" on="0"/>
        <pt x="216" y="-6" on="1"/>
        <pt x="149" y="-6" on="0"/>
        <pt x="71" y="82" on="0"/>
        <pt x="71" y="169" on="1"/>
      </contour>
    </TTGlyph>
    <TTGlyph name="uacute" xMin="71" yMin="-6" xMax="495" yMax="736">
      <contour>
        <pt x="71" y="500" on="1"/>
        <pt x="203" y="500" on="1"/>
        <pt x="203" y="194" on="1"/>
        <pt x="203" y="153" on="0"/>
        <pt x="235" y="102" on="0"/>
        <pt x="309" y="102" on="0"/>
        <pt x="364" y="148" on="1"/>
        <pt x="364" y="500" on="1"/>
        <pt x="495" y="500" on="1"/>
        <pt x="495" y="0" on="1"/>
        <pt x="385" y="0" on="1"/>
        <pt x="364" y="48" on="1"/>
        <pt x="321" y="16" on="0"/>
        <pt x="258" y="-6" on="0"/>
        <pt x="216" y="-6" on="1"/>
        <pt x="149" y="-6" on="0"/>
        <pt x="71" y="82" on="0"/>
        <pt x="71" y="169" on="1"/>
      </contour>
      <contour>
        <pt x="314" y="567" on="1"/>
        <pt x="226" y="599" on="1"/>
        <pt x="329" y="736" on="1"/>
        <pt x="444" y="690" on="1"/>
      </contour>
    </TTGlyph>
    <TTGlyph name="ucircumflex" xMin="71" yMin="-6" xMax="495" yMax="722">
      <contour>
        <pt x="71" y="500" on="1"/>
        <pt x="203" y="500" on="1"/>
        <pt x="203" y="194" on="1"/>
        <pt x="203" y="153" on="0"/>
        <pt x="235" y="102" on="0"/>
        <pt x="309" y="102" on="0"/>
        <pt x="364" y="148" on="1"/>
        <pt x="364" y="500" on="1"/>
        <pt x="495" y="500" on="1"/>
        <pt x="495" y="0" on="1"/>
        <pt x="385" y="0" on="1"/>
        <pt x="364" y="48" on="1"/>
        <pt x="321" y="16" on="0"/>
        <pt x="258" y="-6" on="0"/>
        <pt x="216" y="-6" on="1"/>
        <pt x="149" y="-6" on="0"/>
        <pt x="71" y="82" on="0"/>
        <pt x="71" y="169" on="1"/>
      </contour>
      <contour>
        <pt x="244" y="722" on="1"/>
        <pt x="331" y="722" on="1"/>
        <pt x="457" y="632" on="1"/>
        <pt x="413" y="568" on="1"/>
        <pt x="287" y="633" on="1"/>
        <pt x="160" y="568" on="1"/>
        <pt x="116" y="632" on="1"/>
      </contour>
    </TTGlyph>
    <TTGlyph name="udieresis" xMin="71" yMin="-6" xMax="495" yMax="710">
      <contour>
        <pt x="71" y="500" on="1"/>
        <pt x="203" y="500" on="1"/>
        <pt x="203" y="194" on="1"/>
        <pt x="203" y="153" on="0"/>
        <pt x="235" y="102" on="0"/>
        <pt x="309" y="102" on="0"/>
        <pt x="364" y="148" on="1"/>
        <pt x="364" y="500" on="1"/>
        <pt x="495" y="500" on="1"/>
        <pt x="495" y="0" on="1"/>
        <pt x="385" y="0" on="1"/>
        <pt x="364" y="48" on="1"/>
        <pt x="321" y="16" on="0"/>
        <pt x="258" y="-6" on="0"/>
        <pt x="216" y="-6" on="1"/>
        <pt x="149" y="-6" on="0"/>
        <pt x="71" y="82" on="0"/>
        <pt x="71" y="169" on="1"/>
      </contour>
      <contour>
        <pt x="116" y="579" on="1"/>
        <pt x="116" y="710" on="1"/>
        <pt x="237" y="710" on="1"/>
        <pt x="237" y="579" on="1"/>
      </contour>
      <contour>
        <pt x="335" y="579" on="1"/>
        <pt x="335" y="710" on="1"/>
        <pt x="456" y="710" on="1"/>
        <pt x="456" y="579" on="1"/>
      </contour>
    </TTGlyph>
    <TTGlyph name="ugrave" xMin="71" yMin="-6" xMax="495" yMax="736">
      <component glyphName="u" x="0" y="0" flags="0x1004"/>
      <component glyphName="grave" x="92" y="0" flags="0x1004"/>
    </TTGlyph>
    <TTGlyph name="underscore" xMin="0" yMin="-236" xMax="430" yMax="-131">
      <contour>
        <pt x="430" y="-236" on="1"/>
        <pt x="0" y="-236" on="1"/>
        <pt x="0" y="-131" on="1"/>
        <pt x="430" y="-131" on="1"/>
      </contour>
    </TTGlyph>
    <TTGlyph name="uni00AD" xMin="0" yMin="237" xMax="400" yMax="342">
      <contour>
        <pt x="400" y="237" on="1"/>
        <pt x="0" y="237" on="1"/>
        <pt x="0" y="342" on="1"/>
        <pt x="400" y="342" on="1"/>
      </contour>
    </TTGlyph>
    <TTGlyph name="v" xMin="1" yMin="0" xMax="464" yMax="500">
      <contour>
        <pt x="464" y="500" on="1"/>
        <pt x="305" y="0" on="1"/>
        <pt x="159" y="0" on="1"/>
        <pt x="1" y="500" on="1"/>
        <pt x="136" y="500" on="1"/>
        <pt x="233" y="130" on="1"/>
        <pt x="331" y="500" on="1"/>
      </contour>
    </TTGlyph>
    <TTGlyph name="w" xMin="1" yMin="0" xMax="688" yMax="500">
      <contour>
        <pt x="127" y="0" on="1"/>
        <pt x="1" y="500" on="1"/>
        <pt x="129" y="500" on="1"/>
        <pt x="200" y="129" on="1"/>
        <pt x="283" y="500" on="1"/>
        <pt x="407" y="500" on="1"/>
        <pt x="491" y="125" on="1"/>
        <pt x="560" y="500" on="1"/>
        <pt x="688" y="500" on="1"/>
        <pt x="564" y="0" on="1"/>
        <pt x="421" y="0" on="1"/>
        <pt x="345" y="335" on="1"/>
        <pt x="268" y="0" on="1"/>
      </contour>
    </TTGlyph>
    <TTGlyph name="x" xMin="14" yMin="0" xMax="442" yMax="500">
      <contour>
        <pt x="153" y="500" on="1"/>
        <pt x="228" y="364" on="1"/>
        <pt x="303" y="500" on="1"/>
        <pt x="436" y="500" on="1"/>
        <pt x="296" y="255" on="1"/>
        <pt x="442" y="0" on="1"/>
        <pt x="309" y="0" on="1"/>
        <pt x="228" y="158" on="1"/>
        <pt x="147" y="0" on="1"/>
        <pt x="14" y="0" on="1"/>
        <pt x="160" y="255" on="1"/>
        <pt x="20" y="500" on="1"/>
      </contour>
    </TTGlyph>
</ttFont>
